<?xml version="1.0" encoding="utf-8"?>
<!-- Generator: Adobe Illustrator 24.1.0, SVG Export Plug-In . SVG Version: 6.00 Build 0)  -->
<svg version="1.1" xmlns="http://www.w3.org/2000/svg" xmlns:xlink="http://www.w3.org/1999/xlink" x="0px" y="0px"
	 viewBox="0 0 100 100" style="enable-background:new 0 0 100 100;" xml:space="preserve">
<style type="text/css">
	.st0{fill:url(#dark_background_1_);}
	.st1{fill:#484751;}
	.st2{fill:#FFFFFF;}
	.st3{opacity:0.65;}
	.st4{opacity:0.2;}
	.st5{opacity:0.65;fill:none;stroke:#FFFFFF;stroke-width:2;stroke-miterlimit:10;}
	.st6{opacity:0.65;fill:none;stroke:#FFFFFF;stroke-width:0.7;stroke-miterlimit:10;}
	.st7{opacity:0.76;}
	.st8{fill:none;stroke:#484751;stroke-width:2.6322;stroke-linecap:square;stroke-miterlimit:10;}
	.st9{fill:none;stroke:#484751;stroke-width:2.6322;stroke-miterlimit:10;}
	.st10{fill:none;stroke:#FFFFFF;stroke-width:2.6322;stroke-linecap:square;stroke-miterlimit:10;}
	.st11{fill:none;stroke:#484751;stroke-width:2.632;stroke-linecap:square;stroke-miterlimit:10;}
</style>
<g id="Design_1_">
	
		<linearGradient id="dark_background_1_" gradientUnits="userSpaceOnUse" x1="-877.4116" y1="587.2254" x2="-1437.4116" y2="27.2254">
		<stop  offset="0" style="stop-color:#3D3D44"/>
		<stop  offset="0.3718" style="stop-color:#46464E"/>
		<stop  offset="0.9974" style="stop-color:#5D5D68"/>
	</linearGradient>
	<rect id="dark_background" x="-1331.4" y="-78.8" class="st0" width="348" height="772"/>
	<g id="Descriptions">
		<g>
			<path class="st1" d="M-877.7,124.5v1.4h-6.2v-1.2l3.2-3.3c0.3-0.3,0.5-0.6,0.7-0.9c0.2-0.3,0.3-0.6,0.3-0.8
				c0-0.3-0.1-0.5-0.4-0.7c-0.2-0.2-0.6-0.3-1-0.3c-0.4,0-0.8,0.1-1.2,0.3c-0.4,0.2-0.8,0.4-1.2,0.8l-0.6-1.2c0.5-0.4,1-0.7,1.6-0.9
				c0.5-0.2,1.1-0.3,1.6-0.3c0.6,0,1,0.1,1.5,0.3c0.4,0.2,0.8,0.4,1,0.8c0.2,0.3,0.4,0.7,0.4,1.1c0,0.4-0.1,0.8-0.4,1.3
				c-0.3,0.5-0.7,0.9-1.2,1.5l-2.1,2.2H-877.7z"/>
			<path class="st1" d="M-870.2,122.6v1.4h-1.2v2h-1.5v-2h-4v-1.2l2.7-5.2h1.5l-2.6,5h2.3v-1.9h1.5v1.9H-870.2z"/>
			<path class="st1" d="M-865.4,117.5h1.6v3.6h4.2v-3.6h1.6v8.4h-1.6v-3.4h-4.2v3.4h-1.6V117.5z"/>
			<path class="st1" d="M-849.6,118c0.7,0.4,1.2,0.9,1.6,1.5c0.4,0.7,0.6,1.4,0.6,2.2c0,0.8-0.2,1.5-0.6,2.2
				c-0.4,0.7-0.9,1.2-1.6,1.6c-0.7,0.4-1.4,0.6-2.3,0.6c-0.8,0-1.6-0.2-2.3-0.6c-0.7-0.4-1.2-0.9-1.6-1.6c-0.4-0.7-0.6-1.4-0.6-2.2
				c0-0.8,0.2-1.5,0.6-2.2c0.4-0.7,0.9-1.2,1.6-1.5c0.7-0.4,1.4-0.6,2.3-0.6C-851,117.4-850.3,117.6-849.6,118z M-853.3,119.2
				c-0.4,0.3-0.8,0.6-1,1c-0.3,0.4-0.4,0.9-0.4,1.4c0,0.5,0.1,1,0.4,1.5c0.3,0.4,0.6,0.8,1,1c0.4,0.3,0.9,0.4,1.4,0.4
				c0.5,0,1-0.1,1.4-0.4c0.4-0.3,0.8-0.6,1-1c0.3-0.4,0.4-0.9,0.4-1.5c0-0.5-0.1-1-0.4-1.4c-0.3-0.4-0.6-0.8-1-1
				c-0.4-0.3-0.9-0.4-1.4-0.4C-852.3,118.8-852.8,119-853.3,119.2z"/>
			<path class="st1" d="M-843.7,124c0.4,0.4,0.9,0.6,1.5,0.6c0.6,0,1.1-0.2,1.5-0.6c0.4-0.4,0.5-0.9,0.5-1.6v-4.9h1.6v4.9
				c0,0.7-0.1,1.4-0.4,1.9c-0.3,0.5-0.7,1-1.3,1.2c-0.5,0.3-1.2,0.4-1.9,0.4c-0.8,0-1.4-0.1-2-0.4c-0.6-0.3-1-0.7-1.3-1.2
				c-0.3-0.5-0.4-1.2-0.4-1.9v-4.9h1.6v4.9C-844.3,123.1-844.1,123.6-843.7,124z"/>
			<path class="st1" d="M-831.2,125.9l-1.5-2.5c-0.1,0-0.2,0-0.3,0h-1.9v2.5h-1.6v-8.4h3.5c1.1,0,1.9,0.3,2.5,0.8
				c0.6,0.5,0.9,1.2,0.9,2.1c0,0.7-0.1,1.2-0.4,1.7c-0.3,0.5-0.7,0.8-1.2,1l1.8,2.8H-831.2z M-834.8,122h1.9c0.6,0,1.1-0.1,1.4-0.4
				c0.3-0.3,0.5-0.7,0.5-1.2c0-0.5-0.2-0.9-0.5-1.2c-0.3-0.3-0.8-0.4-1.4-0.4h-1.9V122z"/>
			<path class="st1" d="M-823.5,119.1c-0.5-0.1-0.9-0.2-1.2-0.2c-0.4,0-0.7,0.1-0.9,0.2c-0.2,0.1-0.3,0.3-0.3,0.6
				c0,0.2,0.1,0.4,0.2,0.6c0.2,0.2,0.4,0.3,0.6,0.4c0.2,0.1,0.6,0.2,1,0.3c0.6,0.2,1,0.3,1.4,0.5c0.4,0.2,0.7,0.4,0.9,0.7
				c0.3,0.3,0.4,0.8,0.4,1.3c0,0.5-0.1,1-0.4,1.3c-0.3,0.4-0.7,0.7-1.1,0.9c-0.5,0.2-1,0.3-1.7,0.3c-0.7,0-1.3-0.1-1.9-0.4
				c-0.6-0.2-1.2-0.6-1.6-1l0.7-1.4c0.4,0.4,0.9,0.7,1.4,0.9c0.5,0.2,1,0.3,1.5,0.3c0.4,0,0.8-0.1,1.1-0.3c0.3-0.2,0.4-0.4,0.4-0.7
				c0-0.2-0.1-0.4-0.2-0.6c-0.2-0.2-0.4-0.3-0.6-0.4c-0.2-0.1-0.6-0.2-1-0.3c-0.6-0.2-1-0.3-1.4-0.5c-0.4-0.2-0.7-0.4-0.9-0.7
				c-0.3-0.3-0.4-0.8-0.4-1.3c0-0.5,0.1-0.9,0.4-1.3c0.3-0.4,0.6-0.6,1.1-0.8c0.5-0.2,1-0.3,1.6-0.3c0.5,0,1.1,0.1,1.6,0.2
				c0.5,0.2,1,0.4,1.4,0.6l-0.6,1.4C-822.7,119.4-823.1,119.2-823.5,119.1z"/>
		</g>
		<g>
			<path class="st1" d="M-736.9,117.5h6.2v1.4h-4.5v2.1h4.1v1.4h-4.1v2.1h4.7v1.4h-6.3V117.5z"/>
			<path class="st1" d="M-729.1,121.3h3v1.1h-3V121.3z"/>
			<path class="st1" d="M-724.1,117.5h1.8l2.8,5.4l2.8-5.4h1.8v8.4h-1.5v-6l-2.6,5.2h-1l-2.6-5.2v6h-1.5V117.5z"/>
			<path class="st1" d="M-706.3,125.9l-0.7-1.8h-4.1l-0.7,1.8h-1.7l3.7-8.4h1.7l3.6,8.4H-706.3z M-710.6,122.8h3l-1.5-3.5
				L-710.6,122.8z"/>
			<path class="st1" d="M-703.3,117.5h1.6v8.4h-1.6V117.5z"/>
			<path class="st1" d="M-699.4,117.5h1.6v6.9h3.6v1.5h-5.2V117.5z"/>
		</g>
		<g>
			<path class="st1" d="M-604.1,119.1c-0.5-0.1-0.8-0.2-1.2-0.2c-0.4,0-0.7,0.1-0.9,0.2c-0.2,0.1-0.3,0.3-0.3,0.6
				c0,0.2,0.1,0.4,0.2,0.6c0.2,0.2,0.4,0.3,0.6,0.4c0.2,0.1,0.6,0.2,1,0.3c0.6,0.2,1,0.3,1.4,0.5c0.4,0.2,0.7,0.4,0.9,0.7
				c0.3,0.3,0.4,0.8,0.4,1.3c0,0.5-0.1,1-0.4,1.3c-0.3,0.4-0.7,0.7-1.1,0.9c-0.5,0.2-1,0.3-1.7,0.3c-0.7,0-1.3-0.1-1.9-0.4
				c-0.6-0.2-1.2-0.6-1.6-1l0.7-1.4c0.4,0.4,0.9,0.7,1.4,0.9c0.5,0.2,1,0.3,1.5,0.3c0.4,0,0.8-0.1,1.1-0.3c0.3-0.2,0.4-0.4,0.4-0.7
				c0-0.2-0.1-0.4-0.2-0.6c-0.2-0.2-0.4-0.3-0.6-0.4c-0.2-0.1-0.6-0.2-1-0.3c-0.6-0.2-1-0.3-1.4-0.5c-0.4-0.2-0.7-0.4-0.9-0.7
				c-0.3-0.3-0.4-0.8-0.4-1.3c0-0.5,0.1-0.9,0.4-1.3c0.3-0.4,0.6-0.6,1.1-0.8c0.5-0.2,1-0.3,1.7-0.3c0.5,0,1.1,0.1,1.6,0.2
				c0.5,0.2,1,0.4,1.4,0.6l-0.6,1.4C-603.2,119.4-603.7,119.2-604.1,119.1z"/>
			<path class="st1" d="M-598.3,124c0.4,0.4,0.9,0.6,1.5,0.6c0.6,0,1.1-0.2,1.5-0.6c0.4-0.4,0.5-0.9,0.5-1.6v-4.9h1.6v4.9
				c0,0.7-0.1,1.4-0.4,1.9c-0.3,0.5-0.7,1-1.3,1.2c-0.5,0.3-1.2,0.4-1.9,0.4c-0.8,0-1.4-0.1-2-0.4c-0.6-0.3-1-0.7-1.3-1.2
				c-0.3-0.5-0.4-1.2-0.4-1.9v-4.9h1.6v4.9C-598.8,123.1-598.6,123.6-598.3,124z"/>
			<path class="st1" d="M-585.1,118.3c0.6,0.5,0.9,1.2,0.9,2.1c0,1-0.3,1.7-0.9,2.2c-0.6,0.5-1.4,0.8-2.5,0.8h-1.8v2.5h-1.6v-8.4
				h3.4C-586.5,117.5-585.7,117.8-585.1,118.3z M-586.2,121.6c0.3-0.3,0.5-0.7,0.5-1.2c0-0.5-0.2-0.9-0.5-1.2
				c-0.3-0.3-0.8-0.4-1.4-0.4h-1.8v3.1h1.8C-587,122-586.5,121.9-586.2,121.6z"/>
			<path class="st1" d="M-576.7,118.3c0.6,0.5,0.9,1.2,0.9,2.1c0,1-0.3,1.7-0.9,2.2c-0.6,0.5-1.4,0.8-2.5,0.8h-1.8v2.5h-1.6v-8.4
				h3.4C-578.1,117.5-577.3,117.8-576.7,118.3z M-577.9,121.6c0.3-0.3,0.5-0.7,0.5-1.2c0-0.5-0.2-0.9-0.5-1.2
				c-0.3-0.3-0.8-0.4-1.4-0.4h-1.8v3.1h1.8C-578.7,122-578.2,121.9-577.9,121.6z"/>
			<path class="st1" d="M-568.2,118c0.7,0.4,1.2,0.9,1.6,1.5c0.4,0.7,0.6,1.4,0.6,2.2c0,0.8-0.2,1.5-0.6,2.2
				c-0.4,0.7-0.9,1.2-1.6,1.6c-0.7,0.4-1.4,0.6-2.3,0.6c-0.8,0-1.6-0.2-2.3-0.6c-0.7-0.4-1.2-0.9-1.6-1.6c-0.4-0.7-0.6-1.4-0.6-2.2
				c0-0.8,0.2-1.5,0.6-2.2c0.4-0.7,0.9-1.2,1.6-1.5c0.7-0.4,1.4-0.6,2.3-0.6C-569.6,117.4-568.9,117.6-568.2,118z M-571.9,119.2
				c-0.4,0.3-0.8,0.6-1,1c-0.3,0.4-0.4,0.9-0.4,1.4c0,0.5,0.1,1,0.4,1.5c0.3,0.4,0.6,0.8,1,1c0.4,0.3,0.9,0.4,1.4,0.4
				c0.5,0,1-0.1,1.4-0.4c0.4-0.3,0.8-0.6,1-1c0.3-0.4,0.4-0.9,0.4-1.5c0-0.5-0.1-1-0.4-1.4c-0.3-0.4-0.6-0.8-1-1
				c-0.4-0.3-0.9-0.4-1.4-0.4C-571,118.8-571.4,119-571.9,119.2z"/>
			<path class="st1" d="M-559.1,125.9l-1.5-2.5c-0.1,0-0.2,0-0.3,0h-1.9v2.5h-1.6v-8.4h3.5c1.1,0,1.9,0.3,2.5,0.8
				c0.6,0.5,0.9,1.2,0.9,2.1c0,0.7-0.1,1.2-0.4,1.7c-0.3,0.5-0.7,0.8-1.2,1l1.8,2.8H-559.1z M-562.7,122h1.9c0.6,0,1.1-0.1,1.4-0.4
				c0.3-0.3,0.5-0.7,0.5-1.2c0-0.5-0.2-0.9-0.5-1.2c-0.3-0.3-0.8-0.4-1.4-0.4h-1.9V122z"/>
			<path class="st1" d="M-556.4,117.5h6.9v1.4h-2.6v7h-1.6v-7h-2.6V117.5z"/>
		</g>
		<g>
			<path class="st1" d="M-463.6,119.1c-0.5-0.1-0.8-0.2-1.2-0.2c-0.4,0-0.7,0.1-0.9,0.2c-0.2,0.1-0.3,0.3-0.3,0.6
				c0,0.2,0.1,0.4,0.2,0.6c0.2,0.2,0.4,0.3,0.6,0.4c0.2,0.1,0.6,0.2,1,0.3c0.6,0.2,1,0.3,1.4,0.5c0.4,0.2,0.7,0.4,0.9,0.7
				c0.3,0.3,0.4,0.8,0.4,1.3c0,0.5-0.1,1-0.4,1.3c-0.3,0.4-0.7,0.7-1.1,0.9c-0.5,0.2-1,0.3-1.7,0.3c-0.7,0-1.3-0.1-1.9-0.4
				c-0.6-0.2-1.2-0.6-1.6-1l0.7-1.4c0.4,0.4,0.9,0.7,1.4,0.9c0.5,0.2,1,0.3,1.5,0.3c0.4,0,0.8-0.1,1.1-0.3c0.3-0.2,0.4-0.4,0.4-0.7
				c0-0.2-0.1-0.4-0.2-0.6c-0.2-0.2-0.4-0.3-0.6-0.4c-0.2-0.1-0.6-0.2-1-0.3c-0.6-0.2-1-0.3-1.4-0.5c-0.4-0.2-0.7-0.4-0.9-0.7
				c-0.3-0.3-0.4-0.8-0.4-1.3c0-0.5,0.1-0.9,0.4-1.3c0.3-0.4,0.6-0.6,1.1-0.8c0.5-0.2,1-0.3,1.7-0.3c0.5,0,1.1,0.1,1.6,0.2
				c0.5,0.2,1,0.4,1.4,0.6l-0.6,1.4C-462.7,119.4-463.2,119.2-463.6,119.1z"/>
			<path class="st1" d="M-459.8,117.5h6.2v1.4h-4.5v2.1h4.1v1.4h-4.1v2.1h4.7v1.4h-6.3V117.5z"/>
			<path class="st1" d="M-445.4,125.9l-0.7-1.8h-4.1l-0.7,1.8h-1.7l3.7-8.4h1.7l3.6,8.4H-445.4z M-449.7,122.8h3l-1.5-3.5
				L-449.7,122.8z"/>
			<path class="st1" d="M-437.2,125.9l-1.5-2.5c-0.1,0-0.2,0-0.3,0h-1.9v2.5h-1.6v-8.4h3.5c1.1,0,1.9,0.3,2.5,0.8
				c0.6,0.5,0.9,1.2,0.9,2.1c0,0.7-0.1,1.2-0.4,1.7c-0.3,0.5-0.7,0.8-1.2,1l1.8,2.8H-437.2z M-440.8,122h1.9c0.6,0,1.1-0.1,1.4-0.4
				c0.3-0.3,0.5-0.7,0.5-1.2c0-0.5-0.2-0.9-0.5-1.2c-0.3-0.3-0.8-0.4-1.4-0.4h-1.9V122z"/>
			<path class="st1" d="M-428.5,119.1c-0.4-0.2-0.8-0.3-1.2-0.3c-0.5,0-1,0.1-1.4,0.4c-0.4,0.2-0.8,0.6-1,1
				c-0.2,0.4-0.4,0.9-0.4,1.4s0.1,1,0.4,1.4c0.2,0.4,0.6,0.8,1,1c0.4,0.3,0.9,0.4,1.4,0.4c0.4,0,0.8-0.1,1.2-0.3
				c0.4-0.2,0.8-0.4,1.1-0.7l0.9,1.1c-0.4,0.4-1,0.8-1.5,1.1c-0.6,0.3-1.2,0.4-1.8,0.4c-0.8,0-1.5-0.2-2.2-0.6
				c-0.7-0.4-1.2-0.9-1.6-1.6c-0.4-0.7-0.6-1.4-0.6-2.2c0-0.8,0.2-1.5,0.6-2.2c0.4-0.7,0.9-1.2,1.6-1.5c0.7-0.4,1.4-0.6,2.2-0.6
				c0.6,0,1.2,0.1,1.8,0.4c0.6,0.2,1.1,0.6,1.5,1l-0.9,1.2C-427.7,119.6-428.1,119.3-428.5,119.1z"/>
			<path class="st1" d="M-424.9,117.5h1.6v3.6h4.2v-3.6h1.6v8.4h-1.6v-3.4h-4.2v3.4h-1.6V117.5z"/>
		</g>
		<g>
			<path class="st1" d="M-343.4,119.1c-0.4-0.2-0.8-0.3-1.2-0.3c-0.5,0-1,0.1-1.4,0.4c-0.4,0.2-0.8,0.6-1,1
				c-0.2,0.4-0.4,0.9-0.4,1.4s0.1,1,0.4,1.4c0.2,0.4,0.6,0.8,1,1c0.4,0.3,0.9,0.4,1.4,0.4c0.4,0,0.8-0.1,1.2-0.3
				c0.4-0.2,0.8-0.4,1.1-0.7l0.9,1.1c-0.4,0.4-1,0.8-1.5,1.1c-0.6,0.3-1.2,0.4-1.8,0.4c-0.8,0-1.5-0.2-2.2-0.6
				c-0.7-0.4-1.2-0.9-1.6-1.6c-0.4-0.7-0.6-1.4-0.6-2.2c0-0.8,0.2-1.5,0.6-2.2c0.4-0.7,0.9-1.2,1.6-1.5c0.7-0.4,1.4-0.6,2.2-0.6
				c0.6,0,1.2,0.1,1.8,0.4c0.6,0.2,1.1,0.6,1.5,1l-0.9,1.2C-342.7,119.6-343,119.3-343.4,119.1z"/>
			<path class="st1" d="M-339.9,117.5h1.6v3.6h4.2v-3.6h1.6v8.4h-1.6v-3.4h-4.2v3.4h-1.6V117.5z"/>
			<path class="st1" d="M-323.9,125.9l-0.7-1.8h-4.1l-0.7,1.8h-1.7l3.7-8.4h1.7l3.6,8.4H-323.9z M-328.2,122.8h3l-1.5-3.5
				L-328.2,122.8z"/>
			<path class="st1" d="M-322.7,117.5h6.9v1.4h-2.6v7h-1.6v-7h-2.6V117.5z"/>
			<path class="st1" d="M-305.5,118.1c0.5,0.4,0.8,0.9,0.8,1.5c0,0.5-0.1,0.9-0.4,1.2c-0.3,0.3-0.6,0.6-1.1,0.7
				c0.6,0.1,1,0.3,1.3,0.7c0.3,0.4,0.5,0.8,0.5,1.4c0,0.7-0.3,1.3-0.8,1.7c-0.6,0.4-1.3,0.6-2.3,0.6h-3.8v-8.4h3.7
				C-306.7,117.5-306,117.7-305.5,118.1z M-306.7,120.7c0.2-0.2,0.4-0.4,0.4-0.8c0-0.3-0.1-0.6-0.4-0.7c-0.2-0.2-0.6-0.3-1-0.3h-2v2
				h2C-307.3,121-306.9,120.9-306.7,120.7z M-306.5,124.2c0.3-0.2,0.4-0.5,0.4-0.8c0-0.3-0.1-0.6-0.4-0.8c-0.3-0.2-0.7-0.3-1.2-0.3
				h-2v2.2h2C-307.2,124.5-306.8,124.4-306.5,124.2z"/>
			<path class="st1" d="M-300.6,124c0.4,0.4,0.9,0.6,1.5,0.6c0.6,0,1.1-0.2,1.5-0.6c0.4-0.4,0.5-0.9,0.5-1.6v-4.9h1.6v4.9
				c0,0.7-0.1,1.4-0.4,1.9c-0.3,0.5-0.7,1-1.3,1.2c-0.5,0.3-1.2,0.4-1.9,0.4c-0.8,0-1.4-0.1-2-0.4c-0.6-0.3-1-0.7-1.3-1.2
				c-0.3-0.5-0.4-1.2-0.4-1.9v-4.9h1.6v4.9C-301.1,123.1-300.9,123.6-300.6,124z"/>
			<path class="st1" d="M-287.4,118.1c0.5,0.4,0.8,0.9,0.8,1.5c0,0.5-0.1,0.9-0.4,1.2c-0.3,0.3-0.6,0.6-1.1,0.7
				c0.6,0.1,1,0.3,1.3,0.7c0.3,0.4,0.5,0.8,0.5,1.4c0,0.7-0.3,1.3-0.8,1.7c-0.6,0.4-1.3,0.6-2.3,0.6h-3.8v-8.4h3.7
				C-288.6,117.5-287.9,117.7-287.4,118.1z M-288.6,120.7c0.2-0.2,0.4-0.4,0.4-0.8c0-0.3-0.1-0.6-0.4-0.7c-0.2-0.2-0.6-0.3-1-0.3h-2
				v2h2C-289.2,121-288.9,120.9-288.6,120.7z M-288.4,124.2c0.3-0.2,0.4-0.5,0.4-0.8c0-0.3-0.1-0.6-0.4-0.8
				c-0.3-0.2-0.7-0.3-1.2-0.3h-2v2.2h2C-289.1,124.5-288.7,124.4-288.4,124.2z"/>
			<path class="st1" d="M-278.7,118.1c0.5,0.4,0.8,0.9,0.8,1.5c0,0.5-0.1,0.9-0.4,1.2c-0.3,0.3-0.6,0.6-1.1,0.7
				c0.6,0.1,1,0.3,1.3,0.7c0.3,0.4,0.5,0.8,0.5,1.4c0,0.7-0.3,1.3-0.8,1.7c-0.6,0.4-1.3,0.6-2.3,0.6h-3.8v-8.4h3.7
				C-279.9,117.5-279.2,117.7-278.7,118.1z M-279.9,120.7c0.2-0.2,0.4-0.4,0.4-0.8c0-0.3-0.1-0.6-0.4-0.7c-0.2-0.2-0.6-0.3-1-0.3h-2
				v2h2C-280.4,121-280.1,120.9-279.9,120.7z M-279.7,124.2c0.3-0.2,0.4-0.5,0.4-0.8c0-0.3-0.1-0.6-0.4-0.8
				c-0.3-0.2-0.7-0.3-1.2-0.3h-2v2.2h2C-280.3,124.5-279.9,124.4-279.7,124.2z"/>
			<path class="st1" d="M-275.8,117.5h1.6v6.9h3.6v1.5h-5.2V117.5z"/>
			<path class="st1" d="M-269,117.5h6.2v1.4h-4.5v2.1h4.1v1.4h-4.1v2.1h4.7v1.4h-6.3V117.5z"/>
		</g>
		<g>
			<path class="st1" d="M-881.4,275.1c-0.4-0.2-0.8-0.3-1.2-0.3c-0.5,0-1,0.1-1.4,0.4c-0.4,0.2-0.8,0.6-1,1
				c-0.2,0.4-0.4,0.9-0.4,1.4c0,0.5,0.1,1,0.4,1.4c0.2,0.4,0.6,0.8,1,1c0.4,0.3,0.9,0.4,1.4,0.4c0.4,0,0.8-0.1,1.2-0.3
				c0.4-0.2,0.8-0.4,1.1-0.7l0.9,1.1c-0.4,0.4-1,0.8-1.5,1.1c-0.6,0.3-1.2,0.4-1.8,0.4c-0.8,0-1.5-0.2-2.2-0.6
				c-0.7-0.4-1.2-0.9-1.6-1.6c-0.4-0.7-0.6-1.4-0.6-2.2c0-0.8,0.2-1.5,0.6-2.2c0.4-0.7,0.9-1.2,1.6-1.5c0.7-0.4,1.4-0.6,2.2-0.6
				c0.6,0,1.2,0.1,1.8,0.4c0.6,0.2,1.1,0.6,1.5,1l-0.9,1.2C-880.6,275.6-881,275.3-881.4,275.1z"/>
			<path class="st1" d="M-871.7,281.9l-0.7-1.8h-4.1l-0.7,1.8h-1.7l3.7-8.4h1.7l3.6,8.4H-871.7z M-876,278.8h3l-1.5-3.5L-876,278.8z
				"/>
			<path class="st1" d="M-868.7,273.5h1.6v6.9h3.6v1.5h-5.2V273.5z"/>
			<path class="st1" d="M-862,273.5h6.2v1.4h-4.5v2.1h4.1v1.4h-4.1v2.1h4.7v1.4h-6.3V273.5z"/>
			<path class="st1" d="M-847.9,273.5h1.6v8.4h-1.5l-4.3-5.8v5.8h-1.6v-8.4h1.5l4.3,5.8V273.5z"/>
			<path class="st1" d="M-838.3,274.1c0.7,0.4,1.2,0.9,1.6,1.5c0.4,0.6,0.6,1.4,0.6,2.2c0,0.8-0.2,1.5-0.6,2.2
				c-0.4,0.6-0.9,1.1-1.6,1.5c-0.7,0.4-1.4,0.5-2.3,0.5h-3.4v-8.4h3.5C-839.7,273.5-839,273.7-838.3,274.1z M-839.2,280.1
				c0.4-0.2,0.7-0.6,1-1c0.2-0.4,0.3-0.9,0.3-1.4c0-0.5-0.1-1-0.4-1.4c-0.2-0.4-0.6-0.8-1-1c-0.4-0.2-0.9-0.4-1.4-0.4h-1.9v5.6h1.9
				C-840,280.5-839.6,280.4-839.2,280.1z"/>
			<path class="st1" d="M-828.6,281.9l-0.7-1.8h-4.1l-0.7,1.8h-1.7l3.7-8.4h1.7l3.6,8.4H-828.6z M-832.8,278.8h3l-1.5-3.5
				L-832.8,278.8z"/>
			<path class="st1" d="M-820.3,281.9l-1.5-2.5c-0.1,0-0.2,0-0.3,0h-1.9v2.5h-1.6v-8.4h3.5c1.1,0,1.9,0.3,2.5,0.8
				c0.6,0.5,0.9,1.2,0.9,2.1c0,0.7-0.1,1.2-0.4,1.7c-0.3,0.5-0.7,0.8-1.2,1l1.8,2.8H-820.3z M-824,278h1.9c0.6,0,1.1-0.1,1.4-0.4
				c0.3-0.3,0.5-0.7,0.5-1.2c0-0.5-0.2-0.9-0.5-1.2c-0.3-0.3-0.8-0.4-1.4-0.4h-1.9V278z"/>
		</g>
		<g>
			<path class="st1" d="M-730.5,273.5h1.8l2.8,5.4l2.8-5.4h1.8v8.4h-1.5v-6l-2.6,5.2h-1l-2.6-5.2v6h-1.5V273.5z"/>
			<path class="st1" d="M-712.8,281.9l-0.7-1.8h-4.1l-0.7,1.8h-1.7l3.7-8.4h1.7l3.6,8.4H-712.8z M-717,278.8h3l-1.5-3.5L-717,278.8z
				"/>
			<path class="st1" d="M-709.8,273.5h1.6v8.4h-1.6V273.5z"/>
			<path class="st1" d="M-705.9,273.5h1.6v6.9h3.6v1.5h-5.2V273.5z"/>
		</g>
		<g>
			<path class="st1" d="M-602.3,281.9l-0.7-1.8h-4.1l-0.7,1.8h-1.7l3.7-8.4h1.7l3.6,8.4H-602.3z M-606.6,278.8h3l-1.5-3.5
				L-606.6,278.8z"/>
			<path class="st1" d="M-593.6,274.1c0.7,0.4,1.2,0.9,1.6,1.5c0.4,0.6,0.6,1.4,0.6,2.2c0,0.8-0.2,1.5-0.6,2.2
				c-0.4,0.6-0.9,1.1-1.6,1.5c-0.7,0.4-1.4,0.5-2.3,0.5h-3.4v-8.4h3.5C-595,273.5-594.2,273.7-593.6,274.1z M-594.4,280.1
				c0.4-0.2,0.7-0.6,1-1c0.2-0.4,0.3-0.9,0.3-1.4c0-0.5-0.1-1-0.4-1.4c-0.2-0.4-0.6-0.8-1-1c-0.4-0.2-0.9-0.4-1.4-0.4h-1.9v5.6h1.9
				C-595.3,280.5-594.8,280.4-594.4,280.1z"/>
			<path class="st1" d="M-584.1,274.1c0.7,0.4,1.2,0.9,1.6,1.5c0.4,0.6,0.6,1.4,0.6,2.2c0,0.8-0.2,1.5-0.6,2.2
				c-0.4,0.6-0.9,1.1-1.6,1.5c-0.7,0.4-1.4,0.5-2.3,0.5h-3.4v-8.4h3.5C-585.5,273.5-584.7,273.7-584.1,274.1z M-584.9,280.1
				c0.4-0.2,0.7-0.6,1-1c0.2-0.4,0.3-0.9,0.3-1.4c0-0.5-0.1-1-0.4-1.4c-0.2-0.4-0.6-0.8-1-1c-0.4-0.2-0.9-0.4-1.4-0.4h-1.9v5.6h1.9
				C-585.8,280.5-585.3,280.4-584.9,280.1z"/>
			<path class="st1" d="M-575,281.9l-1.5-2.5c-0.1,0-0.2,0-0.3,0h-1.9v2.5h-1.6v-8.4h3.5c1.1,0,1.9,0.3,2.5,0.8
				c0.6,0.5,0.9,1.2,0.9,2.1c0,0.7-0.1,1.2-0.4,1.7c-0.3,0.5-0.7,0.8-1.2,1l1.8,2.8H-575z M-578.7,278h1.9c0.6,0,1.1-0.1,1.4-0.4
				c0.3-0.3,0.5-0.7,0.5-1.2c0-0.5-0.2-0.9-0.5-1.2c-0.3-0.3-0.8-0.4-1.4-0.4h-1.9V278z"/>
			<path class="st1" d="M-571.4,273.5h6.2v1.4h-4.5v2.1h4.1v1.4h-4.1v2.1h4.7v1.4h-6.3V273.5z"/>
			<path class="st1" d="M-559.3,275.1c-0.5-0.1-0.8-0.2-1.2-0.2c-0.4,0-0.7,0.1-0.9,0.2c-0.2,0.1-0.3,0.3-0.3,0.6
				c0,0.2,0.1,0.4,0.2,0.6c0.2,0.2,0.4,0.3,0.6,0.4c0.2,0.1,0.6,0.2,1,0.3c0.6,0.2,1,0.3,1.4,0.5c0.4,0.2,0.7,0.4,0.9,0.7
				c0.3,0.3,0.4,0.8,0.4,1.3c0,0.5-0.1,1-0.4,1.3c-0.3,0.4-0.7,0.7-1.1,0.9c-0.5,0.2-1,0.3-1.7,0.3c-0.7,0-1.3-0.1-1.9-0.4
				c-0.6-0.2-1.2-0.6-1.6-1l0.7-1.4c0.4,0.4,0.9,0.7,1.4,0.9c0.5,0.2,1,0.3,1.5,0.3c0.4,0,0.8-0.1,1.1-0.3c0.3-0.2,0.4-0.4,0.4-0.7
				c0-0.2-0.1-0.4-0.2-0.6c-0.2-0.2-0.4-0.3-0.6-0.4c-0.2-0.1-0.6-0.2-1-0.3c-0.6-0.2-1-0.3-1.4-0.5c-0.4-0.2-0.7-0.4-0.9-0.7
				c-0.3-0.3-0.4-0.8-0.4-1.3c0-0.5,0.1-0.9,0.4-1.3c0.3-0.4,0.6-0.6,1.1-0.8c0.5-0.2,1-0.3,1.7-0.3c0.5,0,1.1,0.1,1.6,0.2
				c0.5,0.2,1,0.4,1.4,0.6l-0.6,1.4C-558.4,275.4-558.8,275.2-559.3,275.1z"/>
			<path class="st1" d="M-551.5,275.1c-0.5-0.1-0.8-0.2-1.2-0.2c-0.4,0-0.7,0.1-0.9,0.2c-0.2,0.1-0.3,0.3-0.3,0.6
				c0,0.2,0.1,0.4,0.2,0.6c0.2,0.2,0.4,0.3,0.6,0.4c0.2,0.1,0.6,0.2,1,0.3c0.6,0.2,1,0.3,1.4,0.5c0.4,0.2,0.7,0.4,0.9,0.7
				c0.3,0.3,0.4,0.8,0.4,1.3c0,0.5-0.1,1-0.4,1.3c-0.3,0.4-0.7,0.7-1.1,0.9c-0.5,0.2-1,0.3-1.7,0.3c-0.7,0-1.3-0.1-1.9-0.4
				c-0.6-0.2-1.2-0.6-1.6-1l0.7-1.4c0.4,0.4,0.9,0.7,1.4,0.9c0.5,0.2,1,0.3,1.5,0.3c0.4,0,0.8-0.1,1.1-0.3c0.3-0.2,0.4-0.4,0.4-0.7
				c0-0.2-0.1-0.4-0.2-0.6c-0.2-0.2-0.4-0.3-0.6-0.4c-0.2-0.1-0.6-0.2-1-0.3c-0.6-0.2-1-0.3-1.4-0.5c-0.4-0.2-0.7-0.4-0.9-0.7
				c-0.3-0.3-0.4-0.8-0.4-1.3c0-0.5,0.1-0.9,0.4-1.3c0.3-0.4,0.6-0.6,1.1-0.8c0.5-0.2,1-0.3,1.7-0.3c0.5,0,1.1,0.1,1.6,0.2
				c0.5,0.2,1,0.4,1.4,0.6l-0.6,1.4C-550.6,275.4-551,275.2-551.5,275.1z"/>
		</g>
		<g>
			<path class="st1" d="M-458.4,274.3c0.6,0.5,0.9,1.2,0.9,2.1c0,1-0.3,1.7-0.9,2.2c-0.6,0.5-1.4,0.8-2.5,0.8h-1.8v2.5h-1.6v-8.4
				h3.4C-459.8,273.5-459,273.8-458.4,274.3z M-459.6,277.6c0.3-0.3,0.5-0.7,0.5-1.2c0-0.5-0.2-0.9-0.5-1.2
				c-0.3-0.3-0.8-0.4-1.4-0.4h-1.8v3.1h1.8C-460.4,278-459.9,277.9-459.6,277.6z"/>
			<path class="st1" d="M-456,273.5h1.6v3.6h4.2v-3.6h1.6v8.4h-1.6v-3.4h-4.2v3.4h-1.6V273.5z"/>
			<path class="st1" d="M-440.2,274c0.7,0.4,1.2,0.9,1.6,1.5c0.4,0.7,0.6,1.4,0.6,2.2c0,0.8-0.2,1.5-0.6,2.2
				c-0.4,0.7-0.9,1.2-1.6,1.6c-0.7,0.4-1.4,0.6-2.3,0.6c-0.8,0-1.6-0.2-2.3-0.6c-0.7-0.4-1.2-0.9-1.6-1.6c-0.4-0.7-0.6-1.4-0.6-2.2
				c0-0.8,0.2-1.5,0.6-2.2c0.4-0.7,0.9-1.2,1.6-1.5c0.7-0.4,1.4-0.6,2.3-0.6C-441.6,273.4-440.9,273.6-440.2,274z M-443.9,275.2
				c-0.4,0.3-0.8,0.6-1,1c-0.3,0.4-0.4,0.9-0.4,1.4c0,0.5,0.1,1,0.4,1.5c0.3,0.4,0.6,0.8,1,1c0.4,0.3,0.9,0.4,1.4,0.4
				c0.5,0,1-0.1,1.4-0.4c0.4-0.3,0.8-0.6,1-1c0.3-0.4,0.4-0.9,0.4-1.5c0-0.5-0.1-1-0.4-1.4c-0.3-0.4-0.6-0.8-1-1
				c-0.4-0.3-0.9-0.4-1.4-0.4C-442.9,274.8-443.4,275-443.9,275.2z"/>
			<path class="st1" d="M-430.5,273.5h1.6v8.4h-1.5l-4.3-5.8v5.8h-1.6v-8.4h1.5l4.3,5.8V273.5z"/>
			<path class="st1" d="M-426.6,273.5h6.2v1.4h-4.5v2.1h4.1v1.4h-4.1v2.1h4.7v1.4h-6.3V273.5z"/>
		</g>
		<g>
			<path class="st1" d="M-329.2,273.5h1.8l2.8,5.4l2.8-5.4h1.8v8.4h-1.5v-6l-2.6,5.2h-1l-2.6-5.2v6h-1.5V273.5z"/>
			<path class="st1" d="M-311.6,274c0.7,0.4,1.2,0.9,1.6,1.5c0.4,0.7,0.6,1.4,0.6,2.2c0,0.8-0.2,1.5-0.6,2.2
				c-0.4,0.7-0.9,1.2-1.6,1.6c-0.7,0.4-1.4,0.6-2.3,0.6c-0.8,0-1.6-0.2-2.3-0.6c-0.7-0.4-1.2-0.9-1.6-1.6c-0.4-0.7-0.6-1.4-0.6-2.2
				c0-0.8,0.2-1.5,0.6-2.2c0.4-0.7,0.9-1.2,1.6-1.5c0.7-0.4,1.4-0.6,2.3-0.6C-313,273.4-312.2,273.6-311.6,274z M-315.2,275.2
				c-0.4,0.3-0.8,0.6-1,1c-0.3,0.4-0.4,0.9-0.4,1.4c0,0.5,0.1,1,0.4,1.5c0.3,0.4,0.6,0.8,1,1c0.4,0.3,0.9,0.4,1.4,0.4
				c0.5,0,1-0.1,1.4-0.4c0.4-0.3,0.8-0.6,1-1c0.3-0.4,0.4-0.9,0.4-1.5c0-0.5-0.1-1-0.4-1.4c-0.3-0.4-0.6-0.8-1-1
				c-0.4-0.3-0.9-0.4-1.4-0.4C-314.3,274.8-314.8,275-315.2,275.2z"/>
			<path class="st1" d="M-301.9,274.1c0.5,0.4,0.8,0.9,0.8,1.5c0,0.5-0.1,0.9-0.4,1.2c-0.3,0.3-0.6,0.6-1.1,0.7
				c0.6,0.1,1,0.3,1.3,0.7c0.3,0.4,0.5,0.8,0.5,1.4c0,0.7-0.3,1.3-0.8,1.7c-0.6,0.4-1.3,0.6-2.3,0.6h-3.8v-8.4h3.7
				C-303.1,273.5-302.4,273.7-301.9,274.1z M-303.1,276.7c0.2-0.2,0.4-0.4,0.4-0.8c0-0.3-0.1-0.6-0.4-0.7c-0.2-0.2-0.6-0.3-1-0.3h-2
				v2h2C-303.6,277-303.3,276.9-303.1,276.7z M-302.9,280.2c0.3-0.2,0.4-0.5,0.4-0.8c0-0.3-0.1-0.6-0.4-0.8
				c-0.3-0.2-0.7-0.3-1.2-0.3h-2v2.2h2C-303.5,280.5-303.1,280.4-302.9,280.2z"/>
			<path class="st1" d="M-299,273.5h1.6v8.4h-1.6V273.5z"/>
			<path class="st1" d="M-295,273.5h1.6v6.9h3.6v1.5h-5.2V273.5z"/>
			<path class="st1" d="M-288.3,273.5h6.2v1.4h-4.5v2.1h4.1v1.4h-4.1v2.1h4.7v1.4h-6.3V273.5z"/>
		</g>
		<g>
			<path class="st1" d="M-865.4,429.5h1.7l-2.8,8.4h-1.7l-1.9-6.4l-2,6.4h-1.6l-2.8-8.4h1.7l2,6.7l2-6.7h1.6l2,6.7L-865.4,429.5z"/>
			<path class="st1" d="M-856.5,430c0.7,0.4,1.2,0.9,1.6,1.5c0.4,0.7,0.6,1.4,0.6,2.2c0,0.8-0.2,1.5-0.6,2.2
				c-0.4,0.7-0.9,1.2-1.6,1.6c-0.7,0.4-1.4,0.6-2.3,0.6c-0.8,0-1.6-0.2-2.3-0.6c-0.7-0.4-1.2-0.9-1.6-1.6c-0.4-0.7-0.6-1.4-0.6-2.2
				c0-0.8,0.2-1.5,0.6-2.2c0.4-0.7,0.9-1.2,1.6-1.5c0.7-0.4,1.4-0.6,2.3-0.6C-857.9,429.4-857.2,429.6-856.5,430z M-860.2,431.2
				c-0.4,0.3-0.8,0.6-1,1c-0.3,0.4-0.4,0.9-0.4,1.4c0,0.5,0.1,1,0.4,1.5c0.3,0.4,0.6,0.8,1,1c0.4,0.3,0.9,0.4,1.4,0.4
				c0.5,0,1-0.1,1.4-0.4c0.4-0.3,0.8-0.6,1-1c0.3-0.4,0.4-0.9,0.4-1.5c0-0.5-0.1-1-0.4-1.4c-0.3-0.4-0.6-0.8-1-1
				c-0.4-0.3-0.9-0.4-1.4-0.4C-859.3,430.8-859.7,431-860.2,431.2z"/>
			<path class="st1" d="M-847.4,437.9l-1.5-2.5c-0.1,0-0.2,0-0.3,0h-1.9v2.5h-1.6v-8.4h3.5c1.1,0,1.9,0.3,2.5,0.8
				c0.6,0.5,0.9,1.2,0.9,2.1c0,0.7-0.1,1.2-0.4,1.7c-0.3,0.5-0.7,0.8-1.2,1l1.8,2.8H-847.4z M-851,434h1.9c0.6,0,1.1-0.1,1.4-0.4
				c0.3-0.3,0.5-0.7,0.5-1.2c0-0.5-0.2-0.9-0.5-1.2c-0.3-0.3-0.8-0.4-1.4-0.4h-1.9V434z"/>
			<path class="st1" d="M-843.7,429.5h1.6v6.9h3.6v1.5h-5.2V429.5z"/>
			<path class="st1" d="M-831.2,430.1c0.7,0.4,1.2,0.9,1.6,1.5c0.4,0.6,0.6,1.4,0.6,2.2c0,0.8-0.2,1.5-0.6,2.2
				c-0.4,0.6-0.9,1.1-1.6,1.5c-0.7,0.4-1.4,0.5-2.3,0.5h-3.4v-8.4h3.5C-832.7,429.5-831.9,429.7-831.2,430.1z M-832.1,436.1
				c0.4-0.2,0.7-0.6,1-1c0.2-0.4,0.3-0.9,0.3-1.4c0-0.5-0.1-1-0.4-1.4c-0.2-0.4-0.6-0.8-1-1c-0.4-0.2-0.9-0.4-1.4-0.4h-1.9v5.6h1.9
				C-833,436.5-832.5,436.4-832.1,436.1z"/>
		</g>
		<g>
			<path class="st1" d="M-749,430.3c0.6,0.5,0.9,1.2,0.9,2.1c0,1-0.3,1.7-0.9,2.2c-0.6,0.5-1.4,0.8-2.5,0.8h-1.8v2.5h-1.6v-8.4h3.4
				C-750.4,429.5-749.6,429.8-749,430.3z M-750.2,433.6c0.3-0.3,0.5-0.7,0.5-1.2c0-0.5-0.2-0.9-0.5-1.2c-0.3-0.3-0.8-0.4-1.4-0.4
				h-1.8v3.1h1.8C-751,434-750.5,433.9-750.2,433.6z"/>
			<path class="st1" d="M-746.6,429.5h1.6v3.6h4.2v-3.6h1.6v8.4h-1.6v-3.4h-4.2v3.4h-1.6V429.5z"/>
			<path class="st1" d="M-730.8,430c0.7,0.4,1.2,0.9,1.6,1.5c0.4,0.7,0.6,1.4,0.6,2.2c0,0.8-0.2,1.5-0.6,2.2
				c-0.4,0.7-0.9,1.2-1.6,1.6c-0.7,0.4-1.4,0.6-2.3,0.6c-0.8,0-1.6-0.2-2.3-0.6c-0.7-0.4-1.2-0.9-1.6-1.6c-0.4-0.7-0.6-1.4-0.6-2.2
				c0-0.8,0.2-1.5,0.6-2.2c0.4-0.7,0.9-1.2,1.6-1.5c0.7-0.4,1.4-0.6,2.3-0.6C-732.2,429.4-731.5,429.6-730.8,430z M-734.5,431.2
				c-0.4,0.3-0.8,0.6-1,1c-0.3,0.4-0.4,0.9-0.4,1.4c0,0.5,0.1,1,0.4,1.5c0.3,0.4,0.6,0.8,1,1c0.4,0.3,0.9,0.4,1.4,0.4
				c0.5,0,1-0.1,1.4-0.4c0.4-0.3,0.8-0.6,1-1c0.3-0.4,0.4-0.9,0.4-1.5c0-0.5-0.1-1-0.4-1.4c-0.3-0.4-0.6-0.8-1-1
				c-0.4-0.3-0.9-0.4-1.4-0.4C-733.6,430.8-734,431-734.5,431.2z"/>
			<path class="st1" d="M-721.1,429.5h1.6v8.4h-1.5l-4.3-5.8v5.8h-1.6v-8.4h1.5l4.3,5.8V429.5z"/>
			<path class="st1" d="M-717.2,429.5h6.2v1.4h-4.5v2.1h4.1v1.4h-4.1v2.1h4.7v1.4h-6.3V429.5z"/>
			<path class="st1" d="M-700.8,431.1c-0.4-0.2-0.8-0.3-1.2-0.3c-0.5,0-1,0.1-1.4,0.4c-0.4,0.2-0.8,0.6-1,1
				c-0.2,0.4-0.4,0.9-0.4,1.4c0,0.5,0.1,1,0.4,1.4c0.2,0.4,0.6,0.8,1,1c0.4,0.3,0.9,0.4,1.4,0.4c0.4,0,0.8-0.1,1.2-0.3
				c0.4-0.2,0.8-0.4,1.1-0.7l0.9,1.1c-0.4,0.4-1,0.8-1.5,1.1c-0.6,0.3-1.2,0.4-1.8,0.4c-0.8,0-1.5-0.2-2.2-0.6
				c-0.7-0.4-1.2-0.9-1.6-1.6c-0.4-0.7-0.6-1.4-0.6-2.2c0-0.8,0.2-1.5,0.6-2.2c0.4-0.7,0.9-1.2,1.6-1.5c0.7-0.4,1.4-0.6,2.2-0.6
				c0.6,0,1.2,0.1,1.8,0.4c0.6,0.2,1.1,0.6,1.5,1l-0.9,1.2C-700.1,431.6-700.4,431.3-700.8,431.1z"/>
			<path class="st1" d="M-691.1,437.9l-0.7-1.8h-4.1l-0.7,1.8h-1.7l3.7-8.4h1.7l3.6,8.4H-691.1z M-695.4,434.8h3l-1.5-3.5
				L-695.4,434.8z"/>
			<path class="st1" d="M-688.1,429.5h1.6v6.9h3.6v1.5h-5.2V429.5z"/>
			<path class="st1" d="M-681.4,429.5h1.6v6.9h3.6v1.5h-5.2V429.5z"/>
		</g>
		<g>
			<path class="st1" d="M-608.9,429.5h1.8l2.8,5.4l2.8-5.4h1.8v8.4h-1.5v-6l-2.6,5.2h-1l-2.6-5.2v6h-1.5V429.5z"/>
			<path class="st1" d="M-597.3,429.5h6.2v1.4h-4.5v2.1h4.1v1.4h-4.1v2.1h4.7v1.4h-6.3V429.5z"/>
			<path class="st1" d="M-585.2,431.1c-0.5-0.1-0.8-0.2-1.2-0.2c-0.4,0-0.7,0.1-0.9,0.2c-0.2,0.1-0.3,0.3-0.3,0.6
				c0,0.2,0.1,0.4,0.2,0.6c0.2,0.2,0.4,0.3,0.6,0.4c0.2,0.1,0.6,0.2,1,0.3c0.6,0.2,1,0.3,1.4,0.5c0.4,0.2,0.7,0.4,0.9,0.7
				c0.3,0.3,0.4,0.8,0.4,1.3c0,0.5-0.1,1-0.4,1.3c-0.3,0.4-0.7,0.7-1.1,0.9c-0.5,0.2-1,0.3-1.7,0.3c-0.7,0-1.3-0.1-1.9-0.4
				c-0.6-0.2-1.2-0.6-1.6-1l0.7-1.4c0.4,0.4,0.9,0.7,1.4,0.9c0.5,0.2,1,0.3,1.5,0.3c0.4,0,0.8-0.1,1.1-0.3c0.3-0.2,0.4-0.4,0.4-0.7
				c0-0.2-0.1-0.4-0.2-0.6c-0.2-0.2-0.4-0.3-0.6-0.4c-0.2-0.1-0.6-0.2-1-0.3c-0.6-0.2-1-0.3-1.4-0.5c-0.4-0.2-0.7-0.4-0.9-0.7
				c-0.3-0.3-0.4-0.8-0.4-1.3c0-0.5,0.1-0.9,0.4-1.3c0.3-0.4,0.6-0.6,1.1-0.8c0.5-0.2,1-0.3,1.7-0.3c0.5,0,1.1,0.1,1.6,0.2
				c0.5,0.2,1,0.4,1.4,0.6l-0.6,1.4C-584.3,431.4-584.8,431.2-585.2,431.1z"/>
			<path class="st1" d="M-577.4,431.1c-0.5-0.1-0.8-0.2-1.2-0.2c-0.4,0-0.7,0.1-0.9,0.2c-0.2,0.1-0.3,0.3-0.3,0.6
				c0,0.2,0.1,0.4,0.2,0.6c0.2,0.2,0.4,0.3,0.6,0.4c0.2,0.1,0.6,0.2,1,0.3c0.6,0.2,1,0.3,1.4,0.5c0.4,0.2,0.7,0.4,0.9,0.7
				c0.3,0.3,0.4,0.8,0.4,1.3c0,0.5-0.1,1-0.4,1.3c-0.3,0.4-0.7,0.7-1.1,0.9c-0.5,0.2-1,0.3-1.7,0.3c-0.7,0-1.3-0.1-1.9-0.4
				c-0.6-0.2-1.2-0.6-1.6-1l0.7-1.4c0.4,0.4,0.9,0.7,1.4,0.9c0.5,0.2,1,0.3,1.5,0.3c0.4,0,0.8-0.1,1.1-0.3c0.3-0.2,0.4-0.4,0.4-0.7
				c0-0.2-0.1-0.4-0.2-0.6c-0.2-0.2-0.4-0.3-0.6-0.4c-0.2-0.1-0.6-0.2-1-0.3c-0.6-0.2-1-0.3-1.4-0.5c-0.4-0.2-0.7-0.4-0.9-0.7
				c-0.3-0.3-0.4-0.8-0.4-1.3c0-0.5,0.1-0.9,0.4-1.3c0.3-0.4,0.6-0.6,1.1-0.8c0.5-0.2,1-0.3,1.7-0.3c0.5,0,1.1,0.1,1.6,0.2
				c0.5,0.2,1,0.4,1.4,0.6l-0.6,1.4C-576.6,431.4-577,431.2-577.4,431.1z"/>
			<path class="st1" d="M-567.5,437.9l-0.7-1.8h-4.1l-0.7,1.8h-1.7l3.7-8.4h1.7l3.6,8.4H-567.5z M-571.7,434.8h3l-1.5-3.5
				L-571.7,434.8z"/>
			<path class="st1" d="M-559,433.7h1.4v3.2c-0.4,0.3-1,0.6-1.6,0.8c-0.6,0.2-1.2,0.3-1.8,0.3c-0.8,0-1.6-0.2-2.2-0.6
				c-0.7-0.4-1.2-0.9-1.6-1.6c-0.4-0.7-0.6-1.4-0.6-2.2c0-0.8,0.2-1.5,0.6-2.2c0.4-0.7,0.9-1.2,1.6-1.5c0.7-0.4,1.5-0.6,2.3-0.6
				c0.6,0,1.2,0.1,1.8,0.3c0.6,0.2,1.1,0.5,1.5,0.9l-0.9,1.2c-0.3-0.3-0.7-0.5-1.1-0.7c-0.4-0.2-0.8-0.3-1.3-0.3
				c-0.5,0-1,0.1-1.5,0.4c-0.4,0.3-0.8,0.6-1.1,1c-0.3,0.4-0.4,0.9-0.4,1.4c0,0.5,0.1,1,0.4,1.5c0.3,0.4,0.6,0.8,1.1,1
				c0.4,0.3,0.9,0.4,1.5,0.4c0.3,0,0.6,0,0.9-0.1c0.3-0.1,0.6-0.2,0.9-0.4V433.7z"/>
			<path class="st1" d="M-555.5,429.5h6.2v1.4h-4.5v2.1h4.1v1.4h-4.1v2.1h4.7v1.4h-6.3V429.5z"/>
		</g>
		<g>
			<path class="st1" d="M-497.8,429.5h1.6v6.9h3.6v1.5h-5.2V429.5z"/>
			<path class="st1" d="M-484.8,437.9l-0.7-1.8h-4.1l-0.7,1.8h-1.7l3.7-8.4h1.7l3.6,8.4H-484.8z M-489.1,434.8h3l-1.5-3.5
				L-489.1,434.8z"/>
			<path class="st1" d="M-475.9,429.5h1.6v8.4h-1.5l-4.3-5.8v5.8h-1.6v-8.4h1.5l4.3,5.8V429.5z"/>
			<path class="st1" d="M-466.3,430.1c0.7,0.4,1.2,0.9,1.6,1.5c0.4,0.6,0.6,1.4,0.6,2.2c0,0.8-0.2,1.5-0.6,2.2
				c-0.4,0.6-0.9,1.1-1.6,1.5c-0.7,0.4-1.4,0.5-2.3,0.5h-3.4v-8.4h3.5C-467.7,429.5-467,429.7-466.3,430.1z M-467.2,436.1
				c0.4-0.2,0.7-0.6,1-1c0.2-0.4,0.3-0.9,0.3-1.4c0-0.5-0.1-1-0.4-1.4c-0.2-0.4-0.6-0.8-1-1c-0.4-0.2-0.9-0.4-1.4-0.4h-1.9v5.6h1.9
				C-468,436.5-467.6,436.4-467.2,436.1z"/>
			<path class="st1" d="M-462.6,429.5h1.6v6.9h3.6v1.5h-5.2V429.5z"/>
			<path class="st1" d="M-455.8,429.5h1.6v8.4h-1.6V429.5z"/>
			<path class="st1" d="M-446.1,429.5h1.6v8.4h-1.5l-4.3-5.8v5.8h-1.6v-8.4h1.5l4.3,5.8V429.5z"/>
			<path class="st1" d="M-442.2,429.5h6.2v1.4h-4.5v2.1h4.1v1.4h-4.1v2.1h4.7v1.4h-6.3V429.5z"/>
			<path class="st1" d="M-425,430.3c0.6,0.5,0.9,1.2,0.9,2.1c0,1-0.3,1.7-0.9,2.2c-0.6,0.5-1.4,0.8-2.5,0.8h-1.8v2.5h-1.6v-8.4h3.4
				C-426.4,429.5-425.5,429.8-425,430.3z M-426.1,433.6c0.3-0.3,0.5-0.7,0.5-1.2c0-0.5-0.2-0.9-0.5-1.2c-0.3-0.3-0.8-0.4-1.4-0.4
				h-1.8v3.1h1.8C-426.9,434-426.4,433.9-426.1,433.6z"/>
			<path class="st1" d="M-422.5,429.5h1.6v3.6h4.2v-3.6h1.6v8.4h-1.6v-3.4h-4.2v3.4h-1.6V429.5z"/>
			<path class="st1" d="M-406.7,430c0.7,0.4,1.2,0.9,1.6,1.5c0.4,0.7,0.6,1.4,0.6,2.2c0,0.8-0.2,1.5-0.6,2.2
				c-0.4,0.7-0.9,1.2-1.6,1.6c-0.7,0.4-1.4,0.6-2.3,0.6s-1.6-0.2-2.3-0.6c-0.7-0.4-1.2-0.9-1.6-1.6c-0.4-0.7-0.6-1.4-0.6-2.2
				c0-0.8,0.2-1.5,0.6-2.2c0.4-0.7,0.9-1.2,1.6-1.5c0.7-0.4,1.4-0.6,2.3-0.6S-407.4,429.6-406.7,430z M-410.4,431.2
				c-0.4,0.3-0.8,0.6-1,1c-0.3,0.4-0.4,0.9-0.4,1.4c0,0.5,0.1,1,0.4,1.5c0.3,0.4,0.6,0.8,1,1c0.4,0.3,0.9,0.4,1.4,0.4
				c0.5,0,1-0.1,1.4-0.4c0.4-0.3,0.8-0.6,1-1c0.3-0.4,0.4-0.9,0.4-1.5c0-0.5-0.1-1-0.4-1.4c-0.3-0.4-0.6-0.8-1-1
				c-0.4-0.3-0.9-0.4-1.4-0.4C-409.5,430.8-409.9,431-410.4,431.2z"/>
			<path class="st1" d="M-397,429.5h1.6v8.4h-1.5l-4.3-5.8v5.8h-1.6v-8.4h1.5l4.3,5.8V429.5z"/>
			<path class="st1" d="M-393.1,429.5h6.2v1.4h-4.5v2.1h4.1v1.4h-4.1v2.1h4.7v1.4h-6.3V429.5z"/>
		</g>
		<g>
			<path class="st1" d="M-323.1,429.5h1.7l-2.8,8.4h-1.7l-1.9-6.4l-2,6.4h-1.6l-2.8-8.4h1.7l2,6.7l2-6.7h1.6l2,6.7L-323.1,429.5z"/>
			<path class="st1" d="M-320.1,429.5h6.2v1.4h-4.5v2.1h4.1v1.4h-4.1v2.1h4.7v1.4h-6.3V429.5z"/>
			<path class="st1" d="M-306.1,430.1c0.5,0.4,0.8,0.9,0.8,1.5c0,0.5-0.1,0.9-0.4,1.2c-0.3,0.3-0.6,0.6-1.1,0.7
				c0.6,0.1,1,0.3,1.3,0.7c0.3,0.4,0.5,0.8,0.5,1.4c0,0.7-0.3,1.3-0.8,1.7c-0.6,0.4-1.3,0.6-2.3,0.6h-3.8v-8.4h3.7
				C-307.3,429.5-306.6,429.7-306.1,430.1z M-307.3,432.7c0.2-0.2,0.4-0.4,0.4-0.8c0-0.3-0.1-0.6-0.4-0.7c-0.2-0.2-0.6-0.3-1-0.3h-2
				v2h2C-307.9,433-307.6,432.9-307.3,432.7z M-307.1,436.2c0.3-0.2,0.4-0.5,0.4-0.8c0-0.3-0.1-0.6-0.4-0.8
				c-0.3-0.2-0.7-0.3-1.2-0.3h-2v2.2h2C-307.8,436.5-307.4,436.4-307.1,436.2z"/>
			<path class="st1" d="M-299.2,431.1c-0.5-0.1-0.8-0.2-1.2-0.2c-0.4,0-0.7,0.1-0.9,0.2c-0.2,0.1-0.3,0.3-0.3,0.6
				c0,0.2,0.1,0.4,0.2,0.6c0.2,0.2,0.4,0.3,0.6,0.4c0.2,0.1,0.6,0.2,1,0.3c0.6,0.2,1,0.3,1.4,0.5c0.4,0.2,0.7,0.4,0.9,0.7
				c0.3,0.3,0.4,0.8,0.4,1.3c0,0.5-0.1,1-0.4,1.3c-0.3,0.4-0.7,0.7-1.1,0.9c-0.5,0.2-1,0.3-1.7,0.3c-0.7,0-1.3-0.1-1.9-0.4
				s-1.2-0.6-1.6-1l0.7-1.4c0.4,0.4,0.9,0.7,1.4,0.9c0.5,0.2,1,0.3,1.5,0.3c0.4,0,0.8-0.1,1.1-0.3c0.3-0.2,0.4-0.4,0.4-0.7
				c0-0.2-0.1-0.4-0.2-0.6c-0.2-0.2-0.4-0.3-0.6-0.4c-0.2-0.1-0.6-0.2-1-0.3c-0.6-0.2-1-0.3-1.4-0.5c-0.4-0.2-0.7-0.4-0.9-0.7
				c-0.3-0.3-0.4-0.8-0.4-1.3c0-0.5,0.1-0.9,0.4-1.3c0.3-0.4,0.6-0.6,1.1-0.8c0.5-0.2,1-0.3,1.7-0.3c0.5,0,1.1,0.1,1.6,0.2
				c0.5,0.2,1,0.4,1.4,0.6l-0.6,1.4C-298.3,431.4-298.8,431.2-299.2,431.1z"/>
			<path class="st1" d="M-295.4,429.5h1.6v8.4h-1.6V429.5z"/>
			<path class="st1" d="M-292.4,429.5h6.9v1.4h-2.6v7h-1.6v-7h-2.6V429.5z"/>
			<path class="st1" d="M-284.2,429.5h6.2v1.4h-4.5v2.1h4.1v1.4h-4.1v2.1h4.7v1.4h-6.3V429.5z"/>
		</g>
		<g>
			<path class="st1" d="M-876.2,587.1c-0.4-0.2-0.8-0.3-1.2-0.3c-0.5,0-1,0.1-1.4,0.4c-0.4,0.2-0.8,0.6-1,1
				c-0.2,0.4-0.4,0.9-0.4,1.4s0.1,1,0.4,1.4c0.2,0.4,0.6,0.8,1,1c0.4,0.3,0.9,0.4,1.4,0.4c0.4,0,0.8-0.1,1.2-0.3
				c0.4-0.2,0.8-0.4,1.1-0.7l0.9,1.1c-0.4,0.4-1,0.8-1.5,1.1s-1.2,0.4-1.8,0.4c-0.8,0-1.5-0.2-2.2-0.6c-0.7-0.4-1.2-0.9-1.6-1.6
				c-0.4-0.7-0.6-1.4-0.6-2.2c0-0.8,0.2-1.5,0.6-2.2c0.4-0.7,0.9-1.2,1.6-1.5c0.7-0.4,1.4-0.6,2.2-0.6c0.6,0,1.2,0.1,1.8,0.4
				c0.6,0.2,1.1,0.6,1.5,1l-0.9,1.2C-875.4,587.6-875.8,587.3-876.2,587.1z"/>
			<path class="st1" d="M-866.7,586c0.7,0.4,1.2,0.9,1.6,1.5c0.4,0.7,0.6,1.4,0.6,2.2c0,0.8-0.2,1.5-0.6,2.2
				c-0.4,0.7-0.9,1.2-1.6,1.6c-0.7,0.4-1.4,0.6-2.3,0.6c-0.8,0-1.6-0.2-2.3-0.6c-0.7-0.4-1.2-0.9-1.6-1.6c-0.4-0.7-0.6-1.4-0.6-2.2
				c0-0.8,0.2-1.5,0.6-2.2c0.4-0.7,0.9-1.2,1.6-1.5c0.7-0.4,1.4-0.6,2.3-0.6C-868.2,585.4-867.4,585.6-866.7,586z M-870.4,587.2
				c-0.4,0.3-0.8,0.6-1,1c-0.3,0.4-0.4,0.9-0.4,1.4c0,0.5,0.1,1,0.4,1.5c0.3,0.4,0.6,0.8,1,1c0.4,0.3,0.9,0.4,1.4,0.4
				c0.5,0,1-0.1,1.4-0.4c0.4-0.3,0.8-0.6,1-1c0.3-0.4,0.4-0.9,0.4-1.5c0-0.5-0.1-1-0.4-1.4c-0.3-0.4-0.6-0.8-1-1
				c-0.4-0.3-0.9-0.4-1.4-0.4C-869.5,586.8-870,587-870.4,587.2z"/>
			<path class="st1" d="M-857,585.5h1.6v8.4h-1.5l-4.3-5.8v5.8h-1.6v-8.4h1.5l4.3,5.8V585.5z"/>
			<path class="st1" d="M-854.1,585.5h6.9v1.4h-2.6v7h-1.6v-7h-2.6V585.5z"/>
			<path class="st1" d="M-840.5,593.9l-0.7-1.8h-4.1l-0.7,1.8h-1.7l3.7-8.4h1.7l3.6,8.4H-840.5z M-844.8,590.8h3l-1.5-3.5
				L-844.8,590.8z"/>
			<path class="st1" d="M-832.7,587.1c-0.4-0.2-0.8-0.3-1.2-0.3c-0.5,0-1,0.1-1.4,0.4c-0.4,0.2-0.8,0.6-1,1
				c-0.2,0.4-0.4,0.9-0.4,1.4s0.1,1,0.4,1.4c0.2,0.4,0.6,0.8,1,1c0.4,0.3,0.9,0.4,1.4,0.4c0.4,0,0.8-0.1,1.2-0.3
				c0.4-0.2,0.8-0.4,1.1-0.7l0.9,1.1c-0.4,0.4-1,0.8-1.5,1.1c-0.6,0.3-1.2,0.4-1.8,0.4c-0.8,0-1.5-0.2-2.2-0.6
				c-0.7-0.4-1.2-0.9-1.6-1.6c-0.4-0.7-0.6-1.4-0.6-2.2c0-0.8,0.2-1.5,0.6-2.2c0.4-0.7,0.9-1.2,1.6-1.5c0.7-0.4,1.4-0.6,2.2-0.6
				c0.6,0,1.2,0.1,1.8,0.4c0.6,0.2,1.1,0.6,1.5,1l-0.9,1.2C-831.9,587.6-832.3,587.3-832.7,587.1z"/>
			<path class="st1" d="M-830.1,585.5h6.9v1.4h-2.6v7h-1.6v-7h-2.6V585.5z"/>
		</g>
		<g>
			<path class="st1" d="M-734.5,585.5h1.6v3.6h4.2v-3.6h1.6v8.4h-1.6v-3.4h-4.2v3.4h-1.6V585.5z"/>
			<path class="st1" d="M-718.7,586c0.7,0.4,1.2,0.9,1.6,1.5c0.4,0.7,0.6,1.4,0.6,2.2c0,0.8-0.2,1.5-0.6,2.2
				c-0.4,0.7-0.9,1.2-1.6,1.6c-0.7,0.4-1.4,0.6-2.3,0.6c-0.8,0-1.6-0.2-2.3-0.6c-0.7-0.4-1.2-0.9-1.6-1.6c-0.4-0.7-0.6-1.4-0.6-2.2
				c0-0.8,0.2-1.5,0.6-2.2c0.4-0.7,0.9-1.2,1.6-1.5c0.7-0.4,1.4-0.6,2.3-0.6C-720.1,585.4-719.4,585.6-718.7,586z M-722.4,587.2
				c-0.4,0.3-0.8,0.6-1,1c-0.3,0.4-0.4,0.9-0.4,1.4c0,0.5,0.1,1,0.4,1.5c0.3,0.4,0.6,0.8,1,1c0.4,0.3,0.9,0.4,1.4,0.4
				c0.5,0,1-0.1,1.4-0.4c0.4-0.3,0.8-0.6,1-1c0.3-0.4,0.4-0.9,0.4-1.5c0-0.5-0.1-1-0.4-1.4c-0.3-0.4-0.6-0.8-1-1
				c-0.4-0.3-0.9-0.4-1.4-0.4C-721.4,586.8-721.9,587-722.4,587.2z"/>
			<path class="st1" d="M-714.8,585.5h1.8l2.8,5.4l2.8-5.4h1.8v8.4h-1.5v-6l-2.6,5.2h-1l-2.6-5.2v6h-1.5V585.5z"/>
			<path class="st1" d="M-703.3,585.5h6.2v1.4h-4.5v2.1h4.1v1.4h-4.1v2.1h4.7v1.4h-6.3V585.5z"/>
		</g>
		<g>
			<path class="st1" d="M-628.5,587.1c-0.4-0.2-0.8-0.3-1.2-0.3c-0.5,0-1,0.1-1.4,0.4c-0.4,0.2-0.8,0.6-1,1
				c-0.2,0.4-0.4,0.9-0.4,1.4s0.1,1,0.4,1.4c0.2,0.4,0.6,0.8,1,1c0.4,0.3,0.9,0.4,1.4,0.4c0.4,0,0.8-0.1,1.2-0.3
				c0.4-0.2,0.8-0.4,1.1-0.7l0.9,1.1c-0.4,0.4-1,0.8-1.5,1.1c-0.6,0.3-1.2,0.4-1.8,0.4c-0.8,0-1.5-0.2-2.2-0.6
				c-0.7-0.4-1.2-0.9-1.6-1.6c-0.4-0.7-0.6-1.4-0.6-2.2c0-0.8,0.2-1.5,0.6-2.2c0.4-0.7,0.9-1.2,1.6-1.5c0.7-0.4,1.4-0.6,2.2-0.6
				c0.6,0,1.2,0.1,1.8,0.4c0.6,0.2,1.1,0.6,1.5,1l-0.9,1.2C-627.7,587.6-628.1,587.3-628.5,587.1z"/>
			<path class="st1" d="M-619,586c0.7,0.4,1.2,0.9,1.6,1.5c0.4,0.7,0.6,1.4,0.6,2.2c0,0.8-0.2,1.5-0.6,2.2c-0.4,0.7-0.9,1.2-1.6,1.6
				c-0.7,0.4-1.4,0.6-2.3,0.6c-0.8,0-1.6-0.2-2.3-0.6c-0.7-0.4-1.2-0.9-1.6-1.6c-0.4-0.7-0.6-1.4-0.6-2.2c0-0.8,0.2-1.5,0.6-2.2
				c0.4-0.7,0.9-1.2,1.6-1.5c0.7-0.4,1.4-0.6,2.3-0.6C-620.4,585.4-619.7,585.6-619,586z M-622.7,587.2c-0.4,0.3-0.8,0.6-1,1
				c-0.3,0.4-0.4,0.9-0.4,1.4c0,0.5,0.1,1,0.4,1.5c0.3,0.4,0.6,0.8,1,1c0.4,0.3,0.9,0.4,1.4,0.4c0.5,0,1-0.1,1.4-0.4
				c0.4-0.3,0.8-0.6,1-1c0.3-0.4,0.4-0.9,0.4-1.5c0-0.5-0.1-1-0.4-1.4c-0.3-0.4-0.6-0.8-1-1c-0.4-0.3-0.9-0.4-1.4-0.4
				C-621.7,586.8-622.2,587-622.7,587.2z"/>
			<path class="st1" d="M-609.3,585.5h1.6v8.4h-1.5l-4.3-5.8v5.8h-1.6v-8.4h1.5l4.3,5.8V585.5z"/>
			<path class="st1" d="M-606.3,585.5h6.9v1.4h-2.6v7h-1.6v-7h-2.6V585.5z"/>
			<path class="st1" d="M-592.7,593.9l-0.7-1.8h-4.1l-0.7,1.8h-1.7l3.7-8.4h1.7l3.6,8.4H-592.7z M-597,590.8h3l-1.5-3.5L-597,590.8z
				"/>
			<path class="st1" d="M-584.9,587.1c-0.4-0.2-0.8-0.3-1.2-0.3c-0.5,0-1,0.1-1.4,0.4c-0.4,0.2-0.8,0.6-1,1
				c-0.2,0.4-0.4,0.9-0.4,1.4s0.1,1,0.4,1.4c0.2,0.4,0.6,0.8,1,1c0.4,0.3,0.9,0.4,1.4,0.4c0.4,0,0.8-0.1,1.2-0.3
				c0.4-0.2,0.8-0.4,1.1-0.7l0.9,1.1c-0.4,0.4-1,0.8-1.5,1.1s-1.2,0.4-1.8,0.4c-0.8,0-1.5-0.2-2.2-0.6c-0.7-0.4-1.2-0.9-1.6-1.6
				c-0.4-0.7-0.6-1.4-0.6-2.2c0-0.8,0.2-1.5,0.6-2.2c0.4-0.7,0.9-1.2,1.6-1.5c0.7-0.4,1.4-0.6,2.2-0.6c0.6,0,1.2,0.1,1.8,0.4
				c0.6,0.2,1.1,0.6,1.5,1l-0.9,1.2C-584.2,587.6-584.5,587.3-584.9,587.1z"/>
			<path class="st1" d="M-582.3,585.5h6.9v1.4h-2.6v7h-1.6v-7h-2.6V585.5z"/>
			<path class="st1" d="M-564.8,586c0.7,0.4,1.2,0.9,1.6,1.5c0.4,0.7,0.6,1.4,0.6,2.2c0,0.8-0.2,1.5-0.6,2.2
				c-0.4,0.7-0.9,1.2-1.6,1.6c-0.7,0.4-1.4,0.6-2.3,0.6s-1.6-0.2-2.3-0.6c-0.7-0.4-1.2-0.9-1.6-1.6c-0.4-0.7-0.6-1.4-0.6-2.2
				c0-0.8,0.2-1.5,0.6-2.2c0.4-0.7,0.9-1.2,1.6-1.5c0.7-0.4,1.4-0.6,2.3-0.6S-565.5,585.6-564.8,586z M-568.5,587.2
				c-0.4,0.3-0.8,0.6-1,1c-0.3,0.4-0.4,0.9-0.4,1.4c0,0.5,0.1,1,0.4,1.5c0.3,0.4,0.6,0.8,1,1c0.4,0.3,0.9,0.4,1.4,0.4
				c0.5,0,1-0.1,1.4-0.4c0.4-0.3,0.8-0.6,1-1c0.3-0.4,0.4-0.9,0.4-1.5c0-0.5-0.1-1-0.4-1.4c-0.3-0.4-0.6-0.8-1-1
				c-0.4-0.3-0.9-0.4-1.4-0.4C-567.6,586.8-568,587-568.5,587.2z"/>
			<path class="st1" d="M-555.1,585.5h1.6v8.4h-1.5l-4.3-5.8v5.8h-1.6v-8.4h1.5l4.3,5.8V585.5z"/>
			<path class="st1" d="M-551.2,585.5h1.6v6.9h3.6v1.5h-5.2V585.5z"/>
			<path class="st1" d="M-544.5,585.5h1.6v8.4h-1.6V585.5z"/>
			<path class="st1" d="M-534.7,585.5h1.6v8.4h-1.5l-4.3-5.8v5.8h-1.6v-8.4h1.5l4.3,5.8V585.5z"/>
			<path class="st1" d="M-530.9,585.5h6.2v1.4h-4.5v2.1h4.1v1.4h-4.1v2.1h4.7v1.4h-6.3V585.5z"/>
		</g>
		<g>
			<path class="st1" d="M-472,585.5h1.7l-2.8,8.4h-1.7l-1.9-6.4l-2,6.4h-1.6l-2.8-8.4h1.7l2,6.7l2-6.7h1.6l2,6.7L-472,585.5z"/>
			<path class="st1" d="M-463.8,593.9l-1.5-2.5c-0.1,0-0.2,0-0.3,0h-1.9v2.5h-1.6v-8.4h3.5c1.1,0,1.9,0.3,2.5,0.8
				c0.6,0.5,0.9,1.2,0.9,2.1c0,0.7-0.1,1.2-0.4,1.7c-0.3,0.5-0.7,0.8-1.2,1l1.8,2.8H-463.8z M-467.4,590h1.9c0.6,0,1.1-0.1,1.4-0.4
				c0.3-0.3,0.5-0.7,0.5-1.2c0-0.5-0.2-0.9-0.5-1.2c-0.3-0.3-0.8-0.4-1.4-0.4h-1.9V590z"/>
			<path class="st1" d="M-460.1,585.5h1.6v8.4h-1.6V585.5z"/>
			<path class="st1" d="M-457.2,585.5h6.9v1.4h-2.6v7h-1.6v-7h-2.6V585.5z"/>
			<path class="st1" d="M-448.9,585.5h6.2v1.4h-4.5v2.1h4.1v1.4h-4.1v2.1h4.7v1.4h-6.3V585.5z"/>
			<path class="st1" d="M-438.5,585.5h6.9v1.4h-2.6v7h-1.6v-7h-2.6V585.5z"/>
			<path class="st1" d="M-424.7,586c0.7,0.4,1.2,0.9,1.6,1.5c0.4,0.7,0.6,1.4,0.6,2.2c0,0.8-0.2,1.5-0.6,2.2
				c-0.4,0.7-0.9,1.2-1.6,1.6c-0.7,0.4-1.4,0.6-2.3,0.6c-0.8,0-1.6-0.2-2.3-0.6c-0.7-0.4-1.2-0.9-1.6-1.6c-0.4-0.7-0.6-1.4-0.6-2.2
				c0-0.8,0.2-1.5,0.6-2.2c0.4-0.7,0.9-1.2,1.6-1.5c0.7-0.4,1.4-0.6,2.3-0.6C-426.1,585.4-425.4,585.6-424.7,586z M-428.3,587.2
				c-0.4,0.3-0.8,0.6-1,1c-0.3,0.4-0.4,0.9-0.4,1.4c0,0.5,0.1,1,0.4,1.5c0.3,0.4,0.6,0.8,1,1c0.4,0.3,0.9,0.4,1.4,0.4
				c0.5,0,1-0.1,1.4-0.4c0.4-0.3,0.8-0.6,1-1c0.3-0.4,0.4-0.9,0.4-1.5c0-0.5-0.1-1-0.4-1.4c-0.3-0.4-0.6-0.8-1-1
				c-0.4-0.3-0.9-0.4-1.4-0.4C-427.4,586.8-427.9,587-428.3,587.2z"/>
			<path class="st1" d="M-415.6,592c0.4,0.4,0.9,0.6,1.5,0.6c0.6,0,1.1-0.2,1.5-0.6c0.4-0.4,0.5-0.9,0.5-1.6v-4.9h1.6v4.9
				c0,0.7-0.1,1.4-0.4,1.9c-0.3,0.5-0.7,1-1.3,1.2c-0.5,0.3-1.2,0.4-1.9,0.4c-0.8,0-1.4-0.1-2-0.4s-1-0.7-1.3-1.2
				c-0.3-0.5-0.4-1.2-0.4-1.9v-4.9h1.6v4.9C-416.2,591.1-416,591.6-415.6,592z"/>
			<path class="st1" d="M-404.4,587.1c-0.5-0.1-0.8-0.2-1.2-0.2c-0.4,0-0.7,0.1-0.9,0.2c-0.2,0.1-0.3,0.3-0.3,0.6
				c0,0.2,0.1,0.4,0.2,0.6c0.2,0.2,0.4,0.3,0.6,0.4c0.2,0.1,0.6,0.2,1,0.3c0.6,0.2,1,0.3,1.4,0.5c0.4,0.2,0.7,0.4,0.9,0.7
				c0.3,0.3,0.4,0.8,0.4,1.3c0,0.5-0.1,1-0.4,1.3c-0.3,0.4-0.7,0.7-1.1,0.9c-0.5,0.2-1,0.3-1.7,0.3c-0.7,0-1.3-0.1-1.9-0.4
				s-1.2-0.6-1.6-1l0.7-1.4c0.4,0.4,0.9,0.7,1.4,0.9c0.5,0.2,1,0.3,1.5,0.3c0.4,0,0.8-0.1,1.1-0.3c0.3-0.2,0.4-0.4,0.4-0.7
				c0-0.2-0.1-0.4-0.2-0.6c-0.2-0.2-0.4-0.3-0.6-0.4c-0.2-0.1-0.6-0.2-1-0.3c-0.6-0.2-1-0.3-1.4-0.5c-0.4-0.2-0.7-0.4-0.9-0.7
				c-0.3-0.3-0.4-0.8-0.4-1.3c0-0.5,0.1-0.9,0.4-1.3c0.3-0.4,0.6-0.6,1.1-0.8c0.5-0.2,1-0.3,1.7-0.3c0.5,0,1.1,0.1,1.6,0.2
				c0.5,0.2,1,0.4,1.4,0.6l-0.6,1.4C-403.5,587.4-403.9,587.2-404.4,587.1z"/>
		</g>
		<g>
			<path class="st1" d="M-336.7,585.5h1.6v6.9h3.6v1.5h-5.2V585.5z"/>
			<path class="st1" d="M-323.9,586c0.7,0.4,1.2,0.9,1.6,1.5c0.4,0.7,0.6,1.4,0.6,2.2c0,0.8-0.2,1.5-0.6,2.2
				c-0.4,0.7-0.9,1.2-1.6,1.6c-0.7,0.4-1.4,0.6-2.3,0.6c-0.8,0-1.6-0.2-2.3-0.6c-0.7-0.4-1.2-0.9-1.6-1.6c-0.4-0.7-0.6-1.4-0.6-2.2
				c0-0.8,0.2-1.5,0.6-2.2c0.4-0.7,0.9-1.2,1.6-1.5c0.7-0.4,1.4-0.6,2.3-0.6C-325.3,585.4-324.6,585.6-323.9,586z M-327.6,587.2
				c-0.4,0.3-0.8,0.6-1,1c-0.3,0.4-0.4,0.9-0.4,1.4c0,0.5,0.1,1,0.4,1.5c0.3,0.4,0.6,0.8,1,1c0.4,0.3,0.9,0.4,1.4,0.4
				c0.5,0,1-0.1,1.4-0.4c0.4-0.3,0.8-0.6,1-1c0.3-0.4,0.4-0.9,0.4-1.5c0-0.5-0.1-1-0.4-1.4c-0.3-0.4-0.6-0.8-1-1
				c-0.4-0.3-0.9-0.4-1.4-0.4C-326.7,586.8-327.1,587-327.6,587.2z"/>
			<path class="st1" d="M-315.3,587.1c-0.4-0.2-0.8-0.3-1.2-0.3c-0.5,0-1,0.1-1.4,0.4c-0.4,0.2-0.8,0.6-1,1
				c-0.2,0.4-0.4,0.9-0.4,1.4s0.1,1,0.4,1.4c0.2,0.4,0.6,0.8,1,1c0.4,0.3,0.9,0.4,1.4,0.4c0.4,0,0.8-0.1,1.2-0.3
				c0.4-0.2,0.8-0.4,1.1-0.7l0.9,1.1c-0.4,0.4-1,0.8-1.5,1.1c-0.6,0.3-1.2,0.4-1.8,0.4c-0.8,0-1.5-0.2-2.2-0.6
				c-0.7-0.4-1.2-0.9-1.6-1.6c-0.4-0.7-0.6-1.4-0.6-2.2c0-0.8,0.2-1.5,0.6-2.2c0.4-0.7,0.9-1.2,1.6-1.5c0.7-0.4,1.4-0.6,2.2-0.6
				c0.6,0,1.2,0.1,1.8,0.4c0.6,0.2,1.1,0.6,1.5,1l-0.9,1.2C-314.5,587.6-314.9,587.3-315.3,587.1z"/>
			<path class="st1" d="M-305.6,593.9l-0.7-1.8h-4.1l-0.7,1.8h-1.7l3.7-8.4h1.7l3.6,8.4H-305.6z M-309.9,590.8h3l-1.5-3.5
				L-309.9,590.8z"/>
			<path class="st1" d="M-304.4,585.5h6.9v1.4h-2.6v7h-1.6v-7h-2.6V585.5z"/>
			<path class="st1" d="M-296.2,585.5h1.6v8.4h-1.6V585.5z"/>
			<path class="st1" d="M-286.2,586c0.7,0.4,1.2,0.9,1.6,1.5c0.4,0.7,0.6,1.4,0.6,2.2c0,0.8-0.2,1.5-0.6,2.2
				c-0.4,0.7-0.9,1.2-1.6,1.6c-0.7,0.4-1.4,0.6-2.3,0.6s-1.6-0.2-2.3-0.6c-0.7-0.4-1.2-0.9-1.6-1.6c-0.4-0.7-0.6-1.4-0.6-2.2
				c0-0.8,0.2-1.5,0.6-2.2c0.4-0.7,0.9-1.2,1.6-1.5c0.7-0.4,1.4-0.6,2.3-0.6S-286.8,585.6-286.2,586z M-289.8,587.2
				c-0.4,0.3-0.8,0.6-1,1c-0.3,0.4-0.4,0.9-0.4,1.4c0,0.5,0.1,1,0.4,1.5c0.3,0.4,0.6,0.8,1,1c0.4,0.3,0.9,0.4,1.4,0.4
				c0.5,0,1-0.1,1.4-0.4c0.4-0.3,0.8-0.6,1-1c0.3-0.4,0.4-0.9,0.4-1.5c0-0.5-0.1-1-0.4-1.4c-0.3-0.4-0.6-0.8-1-1
				c-0.4-0.3-0.9-0.4-1.4-0.4C-288.9,586.8-289.4,587-289.8,587.2z"/>
			<path class="st1" d="M-276.4,585.5h1.6v8.4h-1.5l-4.3-5.8v5.8h-1.6v-8.4h1.5l4.3,5.8V585.5z"/>
		</g>
	</g>
	<g id="Left_block">
		<g id="ICONS">
			<path class="st2" d="M-1230,241.1h6.3v28h-6.3V241.1z"/>
			<path class="st2" d="M-1195,247.2c-1.3-0.7-2.6-1-3.9-1c-1.6,0-3,0.4-4.3,1.2c-1.3,0.8-2.3,1.8-3.1,3.2c-0.7,1.3-1.1,2.8-1.1,4.4
				c0,1.6,0.4,3.1,1.1,4.5c0.7,1.3,1.8,2.4,3.1,3.2c1.3,0.8,2.7,1.2,4.3,1.2c1.3,0,2.5-0.3,3.8-0.9c1.3-0.6,2.4-1.4,3.5-2.4l3.7,4
				c-1.5,1.5-3.2,2.8-5.3,3.7c-2,0.9-4,1.4-6.1,1.4c-2.7,0-5.2-0.6-7.5-1.9c-2.2-1.3-4-3-5.3-5.2c-1.3-2.2-1.9-4.7-1.9-7.4
				c0-2.7,0.7-5.1,2-7.3c1.3-2.2,3.1-3.9,5.4-5.2c2.3-1.3,4.8-1.9,7.6-1.9c2,0,4,0.4,6,1.3c2,0.8,3.7,2,5,3.4l-3.7,4.5
				C-1192.6,248.7-1193.7,247.8-1195,247.2z"/>
			<path class="st2" d="M-1158.4,242.6c2.3,1.3,4.1,3,5.4,5.2c1.3,2.2,2,4.6,2,7.3c0,2.7-0.7,5.1-2,7.4c-1.3,2.2-3.1,4-5.4,5.2
				c-2.3,1.3-4.8,1.9-7.6,1.9c-2.8,0-5.3-0.6-7.6-1.9c-2.3-1.3-4.1-3-5.4-5.2c-1.3-2.2-2-4.7-2-7.4c0-2.7,0.7-5.1,2-7.3
				c1.3-2.2,3.1-3.9,5.4-5.2c2.3-1.3,4.8-1.9,7.7-1.9C-1163.2,240.7-1160.7,241.3-1158.4,242.6z M-1170.3,247.4
				c-1.3,0.8-2.4,1.9-3.2,3.2c-0.8,1.4-1.2,2.9-1.2,4.5c0,1.7,0.4,3.2,1.2,4.5c0.8,1.4,1.8,2.4,3.2,3.2c1.3,0.8,2.8,1.2,4.3,1.2
				c1.5,0,3-0.4,4.3-1.2c1.3-0.8,2.3-1.9,3.1-3.2c0.8-1.4,1.1-2.9,1.1-4.5c0-1.6-0.4-3.1-1.1-4.5c-0.8-1.4-1.8-2.4-3.1-3.2
				c-1.3-0.8-2.7-1.2-4.3-1.2C-1167.5,246.2-1168.9,246.6-1170.3,247.4z"/>
			<path class="st2" d="M-1121.9,241.1h6v28h-5.8l-13.6-18v18h-6v-28h5.8l13.6,18.1V241.1z"/>
			<path class="st2" d="M-1090.3,246.8c-1.6-0.5-3-0.8-4.1-0.8c-1.1,0-2,0.2-2.6,0.6c-0.6,0.4-1,1-1,1.8c0,1,0.5,1.7,1.4,2.3
				c0.9,0.5,2.3,1.1,4.3,1.6c1.9,0.6,3.5,1.1,4.7,1.7c1.2,0.6,2.3,1.4,3.2,2.5c0.9,1.1,1.3,2.6,1.3,4.4c0,1.8-0.5,3.3-1.4,4.6
				c-0.9,1.3-2.2,2.3-3.9,2.9c-1.7,0.7-3.5,1-5.6,1c-2.3,0-4.5-0.4-6.7-1.2c-2.2-0.8-4.1-1.9-5.7-3.3l2.5-5.2c1.4,1.3,3,2.3,4.9,3.1
				c1.8,0.8,3.5,1.2,5,1.2c1.3,0,2.3-0.2,3.1-0.7c0.7-0.5,1.1-1.2,1.1-2.1c0-0.7-0.2-1.3-0.7-1.8c-0.5-0.5-1.1-0.8-1.9-1.1
				c-0.8-0.3-1.8-0.6-3.1-1c-1.9-0.5-3.5-1.1-4.7-1.6c-1.2-0.5-2.3-1.3-3.1-2.4c-0.9-1.1-1.3-2.5-1.3-4.4c0-1.7,0.5-3.2,1.4-4.4
				c0.9-1.3,2.2-2.2,3.8-2.9c1.6-0.7,3.5-1,5.7-1c1.9,0,3.8,0.3,5.7,0.8c1.9,0.6,3.5,1.3,5,2.2l-2.4,5.2
				C-1087.1,248-1088.6,247.3-1090.3,246.8z"/>
		</g>
		<g id="HIGH_QUALITY" class="st3">
			<path class="st2" d="M-1261.1,209.2h1.3v6.1h8.3v-6.1h1.3v13.3h-1.3v-6h-8.3v6h-1.3V209.2z"/>
			<path class="st2" d="M-1239.1,209.2h1.3v13.3h-1.3V209.2z"/>
			<path class="st2" d="M-1217.5,216h1.2v4.9c-0.6,0.5-1.4,1-2.3,1.3c-0.9,0.3-1.7,0.5-2.6,0.5c-1.3,0-2.4-0.3-3.5-0.9
				c-1.1-0.6-1.9-1.4-2.5-2.5c-0.6-1-0.9-2.2-0.9-3.4s0.3-2.4,0.9-3.4c0.6-1,1.5-1.8,2.5-2.4c1.1-0.6,2.2-0.9,3.5-0.9
				c0.9,0,1.8,0.2,2.6,0.5c0.8,0.3,1.6,0.8,2.2,1.3l-0.8,0.9c-0.5-0.5-1.2-0.9-1.9-1.2c-0.7-0.3-1.4-0.4-2.2-0.4c-1,0-2,0.3-2.8,0.8
				s-1.5,1.2-2.1,2c-0.5,0.8-0.8,1.8-0.8,2.8c0,1,0.3,2,0.8,2.8c0.5,0.9,1.2,1.5,2.1,2c0.9,0.5,1.8,0.8,2.8,0.8
				c0.6,0,1.3-0.1,1.9-0.3s1.2-0.5,1.7-0.9V216z"/>
			<path class="st2" d="M-1205.6,209.2h1.3v6.1h8.3v-6.1h1.3v13.3h-1.3v-6h-8.3v6h-1.3V209.2z"/>
			<path class="st2" d="M-1158.2,223.7c-0.5,0.5-1,0.8-1.6,1.1c-0.6,0.3-1.1,0.4-1.7,0.4c-1.4,0-2.8-0.8-4.1-2.5h-0.2
				c-1.3,0-2.4-0.3-3.5-0.9c-1.1-0.6-1.9-1.4-2.5-2.5c-0.6-1-0.9-2.2-0.9-3.4s0.3-2.4,0.9-3.4c0.6-1,1.5-1.8,2.5-2.4
				c1.1-0.6,2.2-0.9,3.5-0.9s2.4,0.3,3.5,0.9c1.1,0.6,1.9,1.4,2.5,2.4c0.6,1,0.9,2.2,0.9,3.4c0,1.1-0.2,2-0.7,3
				c-0.5,0.9-1.1,1.7-1.9,2.3c-0.8,0.6-1.7,1.1-2.7,1.3c1,1.1,2,1.6,2.9,1.6c0.8,0,1.7-0.4,2.6-1.2L-1158.2,223.7z M-1170.8,218.6
				c0.5,0.9,1.2,1.5,2.1,2c0.9,0.5,1.8,0.8,2.8,0.8c1,0,1.9-0.2,2.8-0.8s1.5-1.2,2-2c0.5-0.9,0.8-1.8,0.8-2.8s-0.3-1.9-0.8-2.8
				c-0.5-0.8-1.2-1.5-2-2c-0.9-0.5-1.8-0.7-2.8-0.7c-1,0-2,0.2-2.8,0.7c-0.9,0.5-1.5,1.2-2.1,2c-0.5,0.8-0.8,1.8-0.8,2.8
				S-1171.3,217.8-1170.8,218.6z"/>
			<path class="st2" d="M-1146.9,220.3c0.7,0.8,1.8,1.1,3.1,1.1s2.3-0.4,3.1-1.1c0.7-0.8,1.1-1.8,1.1-3.2v-7.9h1.3v7.9
				c0,1.7-0.5,3.1-1.5,4c-1,1-2.3,1.5-4,1.5s-3.1-0.5-4-1.5c-1-1-1.5-2.3-1.5-4v-7.9h1.3v7.9C-1148,218.5-1147.7,219.5-1146.9,220.3
				z"/>
			<path class="st2" d="M-1118.1,222.5l-1.6-3.5h-7.4l-1.6,3.5h-1.4l6-13.3h1.4l6,13.3H-1118.1z M-1126.5,217.8h6.3l-3.2-7.2
				L-1126.5,217.8z"/>
			<path class="st2" d="M-1107.7,209.2h1.3v12.1h5.9v1.2h-7.2V209.2z"/>
			<path class="st2" d="M-1091.1,209.2h1.3v13.3h-1.3V209.2z"/>
			<path class="st2" d="M-1080.6,209.2h10.1v1.2h-4.4v12.1h-1.3v-12.1h-4.4V209.2z"/>
			<path class="st2" d="M-1051.8,209.2l-5.1,8.5v4.7h-1.3v-4.7l-5.2-8.5h1.4l4.5,7.1l4.4-7.1H-1051.8z"/>
		</g>
		<polygon id="ribbon" class="st4" points="-1036.2,307.7 -1048.3,307.7 -1266.5,307.7 -1278.6,307.7 -1266.5,332.6 -1278.6,357.6 
			-1266.5,357.6 -1048.3,357.6 -1036.2,357.6 -1048.3,332.6 		"/>
		<g id="list">
			<path class="st2" d="M-1227,425.8l9.2-0.2l0,2.1l-6.8,0.1l0.1,3.1l6.1-0.1l0,2.1l-6.1,0.1l0.1,3.2l7-0.1l0,2.1l-9.4,0.2
				L-1227,425.8z"/>
			<path class="st2" d="M-1205.6,424.9l0.2,13.4l-2.3,0l0-1.5c-0.3,0.5-0.8,1-1.3,1.3c-0.5,0.3-1.2,0.4-1.9,0.5
				c-0.9,0-1.7-0.2-2.4-0.6c-0.7-0.4-1.2-1-1.6-1.7c-0.4-0.7-0.6-1.6-0.6-2.6c0-1,0.2-1.8,0.5-2.6c0.4-0.7,0.9-1.3,1.6-1.7
				c0.7-0.4,1.5-0.6,2.4-0.7c0.7,0,1.4,0.1,1.9,0.4c0.6,0.3,1,0.7,1.4,1.2l-0.1-5.3L-1205.6,424.9z M-1208.5,435.6
				c0.5-0.6,0.7-1.3,0.7-2.1c0-0.9-0.3-1.6-0.8-2.1c-0.5-0.5-1.2-0.8-2-0.8c-0.8,0-1.5,0.3-1.9,0.9c-0.5,0.6-0.7,1.3-0.7,2.1
				c0,0.9,0.3,1.6,0.8,2.1c0.5,0.5,1.2,0.8,2,0.8C-1209.6,436.5-1209,436.2-1208.5,435.6z"/>
			<path class="st2" d="M-1200.1,424.9c0.3,0.3,0.4,0.6,0.4,1c0,0.4-0.1,0.7-0.4,1c-0.2,0.3-0.6,0.4-0.9,0.4c-0.4,0-0.7-0.1-1-0.4
				c-0.3-0.3-0.4-0.6-0.4-1c0-0.4,0.1-0.7,0.4-1c0.2-0.3,0.6-0.4,0.9-0.4C-1200.7,424.5-1200.4,424.7-1200.1,424.9z M-1202.2,428.7
				l2.3,0l0.2,9.6l-2.3,0L-1202.2,428.7z"/>
			<path class="st2" d="M-1190.8,437.7c-0.8,0.5-1.6,0.7-2.4,0.7c-0.8,0-1.5-0.2-2-0.7c-0.5-0.5-0.8-1.2-0.8-2.1l-0.1-4.8l-1.3,0
				l0-1.7l1.4,0l0-2.6l2.3,0l0,2.6l2.8,0l0,1.7l-2.8,0l0.1,4.3c0,0.4,0.1,0.8,0.3,0.9c0.2,0.2,0.4,0.3,0.8,0.3
				c0.4,0,0.8-0.1,1.4-0.4L-1190.8,437.7z"/>
			<path class="st2" d="M-1183,438.3l0-1.2c-0.3,0.4-0.8,0.8-1.3,1c-0.5,0.2-1.1,0.3-1.8,0.4c-0.7,0-1.3-0.1-1.8-0.4
				c-0.5-0.2-0.9-0.6-1.2-1s-0.4-1-0.4-1.5c0-0.9,0.3-1.6,0.9-2.1c0.6-0.5,1.5-0.8,2.7-0.8l2.8,0l0-0.3c0-0.6-0.2-1-0.6-1.3
				c-0.4-0.3-0.9-0.5-1.6-0.4c-0.9,0-1.9,0.3-2.8,1l-0.9-1.6c0.7-0.4,1.4-0.7,2-0.9c0.6-0.2,1.3-0.3,2.2-0.3c1.2,0,2.2,0.3,2.9,0.8
				c0.7,0.6,1.1,1.4,1.1,2.5l0.1,6.3L-1183,438.3z M-1183.9,436.1c0.5-0.3,0.7-0.7,0.8-1.2l0-0.9l-2.4,0c-0.6,0-1.1,0.1-1.4,0.3
				c-0.3,0.2-0.4,0.5-0.4,0.9c0,0.4,0.2,0.7,0.5,1c0.3,0.2,0.7,0.3,1.3,0.3C-1184.9,436.6-1184.3,436.5-1183.9,436.1z"/>
			<path class="st2" d="M-1169.9,429.2c0.7,0.4,1.2,1,1.6,1.7c0.4,0.7,0.6,1.6,0.6,2.6c0,1-0.2,1.8-0.5,2.5
				c-0.4,0.7-0.9,1.3-1.6,1.7c-0.7,0.4-1.5,0.6-2.4,0.7c-0.7,0-1.4-0.1-1.9-0.4c-0.6-0.3-1-0.7-1.4-1.2l0,1.6l-2.3,0l-0.2-13.4
				l2.3,0l0.1,5.3c0.3-0.5,0.8-1,1.3-1.3c0.5-0.3,1.2-0.4,1.9-0.5C-1171.3,428.6-1170.5,428.8-1169.9,429.2z M-1170.7,435.5
				c0.5-0.6,0.7-1.3,0.7-2.1c0-0.9-0.3-1.5-0.8-2.1c-0.5-0.5-1.2-0.8-2-0.8c-0.8,0-1.5,0.3-1.9,0.8s-0.7,1.2-0.7,2.1
				c0,0.9,0.3,1.6,0.8,2.1c0.5,0.5,1.2,0.8,2,0.8C-1171.8,436.4-1171.2,436.1-1170.7,435.5z"/>
			<path class="st2" d="M-1165.3,425l2.3,0l0.2,13.4l-2.3,0L-1165.3,425z"/>
			<path class="st2" d="M-1152.1,429.9c0.8,0.9,1.2,2.1,1.2,3.7c0,0.3,0,0.5,0,0.7l-7.1,0.1c0.2,0.7,0.5,1.2,1,1.6
				c0.5,0.4,1.1,0.6,1.8,0.6c0.5,0,1-0.1,1.4-0.3c0.4-0.2,0.8-0.5,1.2-0.8l1.3,1.3c-0.5,0.5-1,1-1.7,1.3c-0.7,0.3-1.4,0.5-2.3,0.5
				c-1,0-1.9-0.2-2.6-0.6c-0.8-0.4-1.3-1-1.8-1.7c-0.4-0.7-0.6-1.6-0.7-2.5c0-1,0.2-1.8,0.6-2.6c0.4-0.8,1-1.3,1.7-1.8
				c0.7-0.4,1.6-0.6,2.5-0.7C-1154,428.6-1152.9,429-1152.1,429.9z M-1153,432.7c0-0.7-0.3-1.3-0.7-1.7c-0.5-0.4-1-0.6-1.8-0.6
				c-0.7,0-1.3,0.2-1.7,0.7c-0.5,0.4-0.7,1-0.8,1.7L-1153,432.7z"/>
			<path class="st2" d="M-1139.6,430.6c-0.5-0.1-1-0.2-1.4-0.2c-0.4,0-0.7,0.1-0.9,0.2s-0.3,0.4-0.3,0.6c0,0.3,0.2,0.5,0.5,0.7
				c0.3,0.2,0.8,0.3,1.4,0.5c0.7,0.2,1.2,0.4,1.7,0.6c0.4,0.2,0.8,0.5,1.1,0.9c0.3,0.4,0.5,0.9,0.5,1.5c0,0.9-0.3,1.7-1,2.2
				c-0.7,0.5-1.6,0.8-2.7,0.8c-0.7,0-1.5-0.1-2.2-0.3c-0.7-0.2-1.3-0.5-1.8-1l0.8-1.7c0.4,0.4,1,0.6,1.6,0.8
				c0.6,0.2,1.2,0.3,1.7,0.3c0.4,0,0.8-0.1,1-0.2c0.3-0.2,0.4-0.4,0.4-0.7c0-0.3-0.2-0.6-0.5-0.7c-0.3-0.2-0.8-0.3-1.5-0.5
				c-0.7-0.2-1.2-0.4-1.6-0.5c-0.4-0.2-0.8-0.5-1.1-0.8c-0.3-0.4-0.5-0.9-0.5-1.5c0-0.9,0.3-1.7,1-2.2c0.7-0.5,1.5-0.8,2.6-0.8
				c0.6,0,1.3,0.1,1.9,0.2c0.6,0.2,1.2,0.4,1.7,0.7l-0.8,1.7C-1138.6,431-1139.1,430.8-1139.6,430.6z"/>
			<path class="st2" d="M-1129.1,437.7c-0.8,0.5-1.6,0.7-2.4,0.7c-0.8,0-1.5-0.2-2-0.7c-0.5-0.5-0.8-1.2-0.8-2.1l-0.1-4.8l-1.3,0
				l0-1.7l1.4,0l0-2.6l2.3,0l0,2.6l2.8,0l0,1.7l-2.8,0l0.1,4.3c0,0.4,0.1,0.8,0.3,0.9c0.2,0.2,0.4,0.3,0.8,0.3
				c0.4,0,0.8-0.1,1.4-0.4L-1129.1,437.7z"/>
			<path class="st2" d="M-1123.5,429.1c0.6-0.3,1.2-0.5,1.9-0.5l0,2.3c-1,0-1.8,0.2-2.4,0.7c-0.6,0.5-0.9,1.2-0.9,2.1l0.1,4.6
				l-2.3,0l-0.2-9.6l2.3,0l0,1.9C-1124.4,429.9-1124,429.4-1123.5,429.1z"/>
			<path class="st2" d="M-1112.7,429.2c0.8,0.4,1.4,1,1.8,1.7c0.4,0.7,0.7,1.6,0.7,2.5c0,1-0.2,1.8-0.6,2.6c-0.4,0.8-1,1.3-1.8,1.8
				c-0.8,0.4-1.6,0.6-2.6,0.7c-1,0-1.9-0.2-2.7-0.6c-0.8-0.4-1.4-1-1.8-1.7c-0.4-0.7-0.7-1.6-0.7-2.6c0-1,0.2-1.8,0.6-2.6
				c0.4-0.7,1-1.3,1.8-1.8c0.8-0.4,1.6-0.6,2.7-0.7C-1114.4,428.6-1113.5,428.8-1112.7,429.2z M-1117.3,431.5
				c-0.5,0.5-0.7,1.3-0.7,2.1c0,0.9,0.3,1.6,0.8,2.1c0.5,0.5,1.2,0.8,2,0.8c0.8,0,1.4-0.3,1.9-0.8c0.5-0.5,0.7-1.3,0.7-2.1
				c0-0.9-0.3-1.6-0.8-2.1c-0.5-0.5-1.2-0.8-2-0.8C-1116.1,430.6-1116.8,430.9-1117.3,431.5z"/>
			<path class="st2" d="M-1101.3,438.3l-2.7-4.2l-1.4,1.6l0,2.7l-2.3,0l-0.2-13.4l2.3,0l0.1,7.7l3.9-4.1l2.7,0l-3.5,3.8l3.9,5.8
				L-1101.3,438.3z"/>
			<path class="st2" d="M-1089.2,429.9c0.8,0.9,1.2,2.1,1.2,3.7c0,0.3,0,0.5,0,0.7l-7.1,0.1c0.2,0.7,0.5,1.2,1,1.6
				c0.5,0.4,1.1,0.6,1.8,0.6c0.5,0,1-0.1,1.4-0.3c0.4-0.2,0.8-0.5,1.2-0.8l1.3,1.3c-0.5,0.5-1,1-1.7,1.3c-0.7,0.3-1.4,0.5-2.3,0.5
				c-1,0-1.9-0.2-2.6-0.6c-0.8-0.4-1.3-1-1.8-1.7c-0.4-0.7-0.6-1.6-0.7-2.5c0-1,0.2-1.8,0.6-2.6c0.4-0.8,1-1.3,1.7-1.8
				c0.7-0.4,1.6-0.6,2.5-0.7C-1091.2,428.6-1090,429-1089.2,429.9z M-1090.2,432.7c0-0.7-0.3-1.3-0.7-1.7c-0.5-0.4-1-0.6-1.8-0.6
				c-0.7,0-1.3,0.2-1.7,0.7c-0.5,0.4-0.7,1-0.8,1.7L-1090.2,432.7z"/>
			<path class="st2" d="M-1223.8,467.5c0.6,0.6,1.3,0.8,2.3,0.8c0.9,0,1.7-0.3,2.2-0.9c0.5-0.6,0.8-1.4,0.8-2.4l-0.1-7.4l2.4,0
				l0.1,7.4c0,1.1-0.2,2-0.6,2.9c-0.4,0.8-1.1,1.5-1.9,1.9c-0.8,0.4-1.8,0.7-2.9,0.7c-1.1,0-2.1-0.2-3-0.6c-0.8-0.4-1.5-1-1.9-1.8
				c-0.5-0.8-0.7-1.7-0.7-2.8l-0.1-7.4l2.4,0l0.1,7.4C-1224.6,466.2-1224.3,467-1223.8,467.5z"/>
			<path class="st2" d="M-1204.7,461.5c0.6,0.7,1,1.6,1,2.7l0.1,6l-2.4,0l-0.1-5.3c0-0.7-0.2-1.2-0.6-1.6c-0.4-0.4-0.9-0.6-1.6-0.6
				c-0.8,0-1.4,0.3-1.8,0.8s-0.7,1.2-0.6,2l0.1,4.7l-2.3,0l-0.2-9.6l2.3,0l0,1.8c0.6-1.2,1.8-1.9,3.4-1.9
				C-1206.2,460.6-1205.3,460.9-1204.7,461.5z"/>
			<path class="st2" d="M-1198.7,456.9c0.3,0.3,0.4,0.6,0.4,1c0,0.4-0.1,0.7-0.4,1c-0.2,0.3-0.6,0.4-0.9,0.4c-0.4,0-0.7-0.1-1-0.4
				c-0.3-0.3-0.4-0.6-0.4-1c0-0.4,0.1-0.7,0.4-1c0.2-0.3,0.6-0.4,0.9-0.4C-1199.3,456.5-1199,456.7-1198.7,456.9z M-1200.8,460.7
				l2.3,0l0.2,9.6l-2.3,0L-1200.8,460.7z"/>
			<path class="st2" d="M-1185.9,460.6l0.2,13.1l-2.3,0l-0.1-5c-0.3,0.5-0.8,1-1.3,1.3c-0.5,0.3-1.2,0.4-1.9,0.5
				c-0.9,0-1.7-0.2-2.4-0.6c-0.7-0.4-1.2-1-1.6-1.7c-0.4-0.7-0.6-1.6-0.6-2.6c0-1,0.2-1.8,0.5-2.6c0.4-0.7,0.9-1.3,1.6-1.7
				c0.7-0.4,1.5-0.6,2.4-0.7c0.7,0,1.4,0.1,1.9,0.4c0.6,0.3,1,0.7,1.4,1.2l0-1.6L-1185.9,460.6z M-1188.9,467.6
				c0.5-0.6,0.7-1.3,0.7-2.1c0-0.9-0.3-1.6-0.8-2.1c-0.5-0.5-1.2-0.8-2-0.8c-0.8,0-1.5,0.3-1.9,0.9c-0.5,0.6-0.7,1.3-0.7,2.1
				c0,0.9,0.3,1.6,0.8,2.1c0.5,0.5,1.2,0.8,2,0.8C-1190.1,468.5-1189.4,468.2-1188.9,467.6z"/>
			<path class="st2" d="M-1173.7,460.6l0.2,9.6l-2.4,0l0-1.8c-0.6,1.3-1.7,1.9-3.3,1.9c-1.1,0-1.9-0.3-2.6-0.9c-0.6-0.6-1-1.5-1-2.7
				l-0.1-6l2.4,0l0.1,5.3c0,0.7,0.2,1.2,0.6,1.6c0.4,0.4,0.9,0.6,1.5,0.5c0.7,0,1.3-0.3,1.8-0.8c0.4-0.5,0.6-1.2,0.6-2l-0.1-4.8
				L-1173.7,460.6z"/>
			<path class="st2" d="M-1163,461.9c0.8,0.9,1.2,2.1,1.2,3.7c0,0.3,0,0.5,0,0.7l-7.1,0.1c0.2,0.7,0.5,1.2,1,1.6
				c0.5,0.4,1.1,0.6,1.8,0.6c0.5,0,1-0.1,1.4-0.3c0.4-0.2,0.8-0.5,1.2-0.8l1.3,1.3c-0.5,0.5-1,1-1.7,1.3c-0.7,0.3-1.4,0.5-2.3,0.5
				c-1,0-1.9-0.2-2.6-0.6c-0.8-0.4-1.3-1-1.8-1.7c-0.4-0.7-0.6-1.6-0.7-2.5c0-1,0.2-1.8,0.6-2.6c0.4-0.8,1-1.3,1.7-1.8
				c0.7-0.4,1.6-0.6,2.5-0.7C-1165,460.6-1163.8,461-1163,461.9z M-1163.9,464.7c0-0.7-0.3-1.3-0.7-1.7c-0.5-0.4-1-0.6-1.8-0.6
				c-0.7,0-1.3,0.2-1.7,0.7c-0.5,0.4-0.7,1-0.8,1.7L-1163.9,464.7z"/>
			<path class="st2" d="M-1150.5,462.6c-0.5-0.1-1-0.2-1.4-0.2c-0.4,0-0.7,0.1-0.9,0.2s-0.3,0.4-0.3,0.6c0,0.3,0.2,0.5,0.5,0.7
				c0.3,0.2,0.8,0.3,1.4,0.5c0.7,0.2,1.2,0.4,1.7,0.6c0.4,0.2,0.8,0.5,1.1,0.9c0.3,0.4,0.5,0.9,0.5,1.5c0,0.9-0.3,1.7-1,2.2
				c-0.7,0.5-1.6,0.8-2.7,0.8c-0.7,0-1.5-0.1-2.2-0.3c-0.7-0.2-1.3-0.5-1.8-1l0.8-1.7c0.4,0.4,1,0.6,1.6,0.8
				c0.6,0.2,1.2,0.3,1.7,0.3c0.4,0,0.8-0.1,1-0.2c0.3-0.2,0.4-0.4,0.4-0.7c0-0.3-0.2-0.6-0.5-0.7c-0.3-0.2-0.8-0.3-1.5-0.5
				c-0.7-0.2-1.2-0.4-1.6-0.5c-0.4-0.2-0.8-0.5-1.1-0.8c-0.3-0.4-0.5-0.9-0.5-1.5c0-0.9,0.3-1.7,1-2.2c0.7-0.5,1.5-0.8,2.6-0.8
				c0.6,0,1.3,0.1,1.9,0.2c0.6,0.2,1.2,0.4,1.7,0.7l-0.8,1.7C-1149.5,463-1150,462.8-1150.5,462.6z"/>
			<path class="st2" d="M-1140,469.7c-0.8,0.5-1.6,0.7-2.4,0.7c-0.8,0-1.5-0.2-2-0.7c-0.5-0.5-0.8-1.2-0.8-2.1l-0.1-4.8l-1.3,0
				l0-1.7l1.4,0l0-2.6l2.3,0l0,2.6l2.8,0l0,1.7l-2.8,0l0.1,4.3c0,0.4,0.1,0.8,0.3,0.9c0.2,0.2,0.4,0.3,0.8,0.3
				c0.4,0,0.8-0.1,1.4-0.4L-1140,469.7z"/>
			<path class="st2" d="M-1135,473.3c-0.6,0.4-1.2,0.6-2,0.6c-0.5,0-0.9-0.1-1.3-0.2c-0.4-0.1-0.8-0.3-1.1-0.6l1-1.8
				c0.2,0.2,0.4,0.3,0.6,0.4c0.2,0.1,0.4,0.1,0.6,0.1c0.6,0,1.1-0.3,1.4-1l0.3-0.6l-4.1-9.4l2.4,0l2.9,7l2.4-7l2.4,0l-4.1,10.9
				C-1134,472.3-1134.4,472.9-1135,473.3z"/>
			<path class="st2" d="M-1127.9,457l2.3,0l0.2,13.4l-2.3,0L-1127.9,457z"/>
			<path class="st2" d="M-1114.7,461.9c0.8,0.9,1.2,2.1,1.2,3.7c0,0.3,0,0.5,0,0.7l-7.1,0.1c0.2,0.7,0.5,1.2,1,1.6
				c0.5,0.4,1.1,0.6,1.8,0.6c0.5,0,1-0.1,1.4-0.3c0.4-0.2,0.8-0.5,1.2-0.8l1.3,1.3c-0.5,0.5-1,1-1.7,1.3c-0.7,0.3-1.4,0.5-2.3,0.5
				c-1,0-1.9-0.2-2.6-0.6c-0.8-0.4-1.3-1-1.8-1.7c-0.4-0.7-0.6-1.6-0.7-2.5c0-1,0.2-1.8,0.6-2.6c0.4-0.8,1-1.3,1.7-1.8
				c0.7-0.4,1.6-0.6,2.5-0.7C-1116.6,460.6-1115.5,461-1114.7,461.9z M-1115.6,464.7c0-0.7-0.3-1.3-0.7-1.7c-0.5-0.4-1-0.6-1.8-0.6
				c-0.7,0-1.3,0.2-1.7,0.7c-0.5,0.4-0.7,1-0.8,1.7L-1115.6,464.7z"/>
			<path class="st2" d="M-1228.5,489.8l5.1-0.1l0.2,12.6l-2.4,0l-0.2-10.5l-2.6,0L-1228.5,489.8z"/>
			<path class="st2" d="M-1210.9,491.2c1,1.1,1.5,2.7,1.5,4.7c0,2.1-0.4,3.6-1.3,4.8c-0.9,1.1-2.2,1.7-4,1.7s-3.1-0.5-4-1.6
				c-1-1.1-1.5-2.7-1.5-4.7c0-2.1,0.4-3.7,1.3-4.8c0.9-1.1,2.2-1.7,4-1.7C-1213.2,489.6-1211.9,490.1-1210.9,491.2z M-1217.1,492.6
				c-0.5,0.7-0.7,1.9-0.7,3.4c0,1.5,0.3,2.7,0.8,3.4c0.5,0.7,1.2,1.1,2.2,1.1c1,0,1.7-0.4,2.2-1.1c0.5-0.7,0.7-1.9,0.7-3.4
				c0-1.5-0.3-2.7-0.8-3.4c-0.5-0.7-1.2-1.1-2.2-1C-1215.9,491.5-1216.6,491.9-1217.1,492.6z"/>
			<path class="st2" d="M-1197.9,491.2c1,1.1,1.5,2.7,1.5,4.7c0,2.1-0.4,3.6-1.3,4.8c-0.9,1.1-2.2,1.7-4,1.7c-1.7,0-3.1-0.5-4-1.6
				c-1-1.1-1.5-2.7-1.5-4.7c0-2.1,0.4-3.7,1.3-4.8c0.9-1.1,2.2-1.7,4-1.7C-1200.2,489.6-1198.8,490.1-1197.9,491.2z M-1204.1,492.6
				c-0.5,0.7-0.7,1.9-0.7,3.4c0,1.5,0.3,2.7,0.8,3.4c0.5,0.7,1.2,1.1,2.2,1.1c1,0,1.7-0.4,2.2-1.1c0.5-0.7,0.7-1.9,0.7-3.4
				c0-1.5-0.3-2.7-0.8-3.4s-1.2-1.1-2.2-1C-1202.9,491.5-1203.6,491.9-1204.1,492.6z"/>
			<path class="st2" d="M-1188.8,490.7c0.6,0.7,0.9,1.6,0.9,2.7c0,1.2-0.3,2.1-0.9,2.8c-0.6,0.7-1.4,1-2.5,1.1c-1,0-1.9-0.3-2.5-1
				c-0.6-0.7-0.9-1.6-0.9-2.8c0-1.2,0.3-2.1,0.9-2.8c0.6-0.7,1.4-1,2.4-1.1C-1190.3,489.8-1189.4,490.1-1188.8,490.7z
				 M-1192.6,491.8c-0.3,0.4-0.5,1-0.4,1.8c0,0.8,0.2,1.4,0.5,1.8c0.3,0.4,0.8,0.6,1.4,0.6c0.6,0,1-0.2,1.4-0.7
				c0.3-0.4,0.5-1,0.5-1.8c0-0.8-0.2-1.3-0.5-1.8c-0.3-0.4-0.8-0.6-1.4-0.6C-1191.9,491.1-1192.3,491.4-1192.6,491.8z
				 M-1182.9,489.7l1.8,0l-9,12.8l-1.8,0L-1182.9,489.7z M-1179.2,495.7c0.6,0.7,0.9,1.6,0.9,2.7c0,1.2-0.3,2.1-0.9,2.8
				c-0.6,0.7-1.4,1-2.5,1.1c-1,0-1.9-0.3-2.5-1c-0.6-0.7-0.9-1.6-0.9-2.8c0-1.2,0.3-2.1,0.9-2.8c0.6-0.7,1.4-1,2.4-1.1
				C-1180.6,494.7-1179.8,495-1179.2,495.7z M-1183,496.8c-0.3,0.4-0.5,1-0.4,1.8c0,0.8,0.2,1.4,0.5,1.8c0.3,0.4,0.8,0.6,1.4,0.6
				c0.6,0,1-0.2,1.4-0.7c0.3-0.4,0.5-1,0.5-1.8c0-0.8-0.2-1.3-0.5-1.8c-0.3-0.4-0.8-0.6-1.4-0.6
				C-1182.2,496.1-1182.7,496.3-1183,496.8z"/>
			<path class="st2" d="M-1172.7,492.8l2.4-0.1l2.6,7.3l2.3-7.4l2.4,0l-3.5,9.7l-2.4,0L-1172.7,492.8z"/>
			<path class="st2" d="M-1153.8,493.9c0.8,0.9,1.2,2.1,1.2,3.7c0,0.3,0,0.5,0,0.7l-7.1,0.1c0.2,0.7,0.5,1.2,1,1.6
				c0.5,0.4,1.1,0.6,1.8,0.6c0.5,0,1-0.1,1.4-0.3c0.4-0.2,0.8-0.5,1.2-0.8l1.3,1.3c-0.5,0.5-1,1-1.7,1.3c-0.7,0.3-1.4,0.5-2.3,0.5
				c-1,0-1.9-0.2-2.6-0.6c-0.8-0.4-1.3-1-1.8-1.7c-0.4-0.7-0.6-1.6-0.7-2.5c0-1,0.2-1.8,0.6-2.6c0.4-0.8,1-1.3,1.7-1.8
				c0.7-0.4,1.6-0.6,2.5-0.7C-1155.7,492.6-1154.5,493-1153.8,493.9z M-1154.7,496.7c0-0.7-0.3-1.3-0.7-1.7c-0.5-0.4-1-0.6-1.8-0.6
				c-0.7,0-1.3,0.2-1.7,0.7c-0.5,0.4-0.7,1-0.8,1.7L-1154.7,496.7z"/>
			<path class="st2" d="M-1146.2,494.7c-0.8,0-1.4,0.3-1.9,0.8c-0.5,0.5-0.7,1.2-0.7,2.1c0,0.9,0.3,1.6,0.8,2.1
				c0.5,0.5,1.1,0.8,1.9,0.8c1.2,0,2-0.4,2.6-1.2l1.5,1.2c-0.4,0.6-1,1.1-1.7,1.5c-0.7,0.3-1.5,0.5-2.5,0.5c-0.9,0-1.8-0.2-2.5-0.6
				c-0.7-0.4-1.3-1-1.7-1.7c-0.4-0.7-0.6-1.6-0.7-2.5c0-1,0.2-1.8,0.6-2.6c0.4-0.8,1-1.3,1.7-1.8c0.7-0.4,1.6-0.6,2.5-0.7
				c0.9,0,1.7,0.1,2.4,0.4c0.7,0.3,1.3,0.7,1.7,1.3l-1.4,1.4C-1144.3,495-1145.1,494.6-1146.2,494.7z"/>
			<path class="st2" d="M-1134,501.7c-0.8,0.5-1.6,0.7-2.4,0.7c-0.8,0-1.5-0.2-2-0.7c-0.5-0.5-0.8-1.2-0.8-2.1l-0.1-4.8l-1.3,0
				l0-1.7l1.4,0l0-2.6l2.3,0l0,2.6l2.8,0l0,1.7l-2.8,0l0.1,4.3c0,0.4,0.1,0.8,0.3,0.9c0.2,0.2,0.4,0.3,0.8,0.3
				c0.4,0,0.8-0.1,1.4-0.4L-1134,501.7z"/>
			<path class="st2" d="M-1125.2,493.2c0.8,0.4,1.4,1,1.8,1.7c0.4,0.7,0.7,1.6,0.7,2.5c0,1-0.2,1.8-0.6,2.6c-0.4,0.8-1,1.3-1.8,1.8
				c-0.8,0.4-1.6,0.6-2.6,0.7c-1,0-1.9-0.2-2.7-0.6c-0.8-0.4-1.4-1-1.8-1.7c-0.4-0.7-0.7-1.6-0.7-2.6c0-1,0.2-1.8,0.6-2.6
				c0.4-0.7,1-1.3,1.8-1.8c0.8-0.4,1.6-0.6,2.7-0.7C-1126.8,492.6-1126,492.8-1125.2,493.2z M-1129.8,495.5
				c-0.5,0.5-0.7,1.3-0.7,2.1c0,0.9,0.3,1.6,0.8,2.1c0.5,0.5,1.2,0.8,2,0.8c0.8,0,1.4-0.3,1.9-0.8c0.5-0.5,0.7-1.3,0.7-2.1
				c0-0.9-0.3-1.6-0.8-2.1c-0.5-0.5-1.2-0.8-2-0.8C-1128.6,494.6-1129.3,494.9-1129.8,495.5z"/>
			<path class="st2" d="M-1116.8,493.1c0.6-0.3,1.2-0.5,1.9-0.5l0,2.3c-1,0-1.8,0.2-2.4,0.7c-0.6,0.5-0.9,1.2-0.9,2.1l0.1,4.6
				l-2.3,0l-0.2-9.6l2.3,0l0,1.9C-1117.7,493.9-1117.3,493.4-1116.8,493.1z"/>
		</g>
		<path id="frame" class="st5" d="M-1060.2,398h-194.5c-6.4,0-11.7,5.2-11.7,11.7V518c0,6.4,5.2,11.7,11.7,11.7h194.5
			c6.4,0,11.7-5.2,11.7-11.7V409.7C-1048.5,403.2-1053.7,398-1060.2,398z"/>
		<g id="_x32_0">
			<path class="st2" d="M-1167.2,185h-66.1l36.8-44.3c0.4-0.5,0.9-1,1.3-1.5c0.4-0.5,0.8-1,1.1-1.5c2.7-3.4,5.1-7.1,7.3-11
				c2.2-3.9,3.3-8,3.3-12.2v-3c-0.5-4.2-2.3-7.2-5.3-9.2c-3-2-6.2-3-9.8-3c-0.3,0-0.7,0-1,0c-0.4,0-0.7,0.1-1,0.2
				c-3.7,0.4-7.1,1.9-10.2,4.5c-3.1,2.6-4.7,6-4.8,10.4h-15.4c0-9.4,3.4-16.6,10.2-21.6c6.8-5,14.4-7.5,22.8-7.5
				c1.1,0,2.1,0,3.2,0.1c1.1,0.1,2.2,0.1,3.4,0.2c1.1,0.2,2.1,0.4,3.2,0.6c1.1,0.2,2.1,0.5,3.2,0.8c5.7,2,10,5.3,13,9.8
				c3,4.5,4.6,9.7,4.6,15.7c0,7.5-2,14.4-6,20.8c-4,6.4-8.4,12.4-13.2,17.9c-1,1.1-1.9,2.1-2.8,3.2c-0.9,1.1-1.8,2.1-2.8,3.2
				l-12.5,14.6h37.6V185z"/>
			<path class="st2" d="M-1126.9,86c1.9-0.5,3.8-0.8,5.8-1c0.5,0,1.1,0,1.7-0.1c0.6-0.1,1.1-0.1,1.7-0.1c0.7,0,1.5,0,2.2,0.1
				c0.7,0.1,1.5,0.1,2.4,0.2c2.5,0.3,4.9,0.9,7.3,1.8c2.4,0.9,4.6,1.9,6.5,3.2c5.2,3.6,9.2,8.8,11.9,15.6c2.7,6.8,4.5,13.9,5.2,21.4
				c0.2,1.6,0.3,3.2,0.4,4.7c0.1,1.5,0.1,3.1,0.1,4.7c0,3.5-0.2,7-0.6,10.3c-0.4,3.4-0.9,6.5-1.5,9.4c-2.2,9.2-6.2,16.6-11.8,22.4
				c-5.6,5.8-12.8,8.6-21.5,8.6c-0.9,0-1.7,0-2.6-0.1c-0.9-0.1-1.8-0.1-2.8-0.2c-0.4-0.1-0.9-0.2-1.4-0.2c-0.5-0.1-0.9-0.1-1.4-0.2
				c-8.9-1.6-15.3-6.2-19.4-13.9c-4.1-7.7-6.7-15.9-7.8-24.8c-0.2-1.8-0.4-3.6-0.5-5.4c-0.1-1.8-0.2-3.6-0.2-5.4
				c0-2.9,0.1-5.7,0.3-8.5c0.2-2.8,0.5-5.2,1-7.4c0.1-0.9,0.2-1.7,0.4-2.5c0.2-0.8,0.3-1.6,0.6-2.5c1.4-5.7,3.6-11,6.6-16.2
				c3-5.1,7-9.1,12.2-11.8C-1130.5,87.1-1128.8,86.5-1126.9,86z M-1099.1,149.8c0.1-0.4,0.1-0.9,0.2-1.4c0.2-1.8,0.4-3.8,0.6-6.1
				c0.2-2.2,0.2-4.5,0.2-6.9c0-1.3,0-2.6-0.1-3.9c-0.1-1.3-0.1-2.6-0.2-3.9c-0.4-5-1.3-9.8-2.6-14.3c-1.3-4.5-3.4-8.1-6.2-10.6
				c-1-1-2.1-1.7-3.5-2.3c-1.4-0.6-2.8-1-4.3-1.2c-0.4,0-0.9,0-1.3-0.1c-0.4-0.1-0.9-0.1-1.3-0.1c-0.3,0-0.7,0-1.1,0
				c-0.4,0-0.8,0.1-1.1,0.2c-0.7,0.1-1.5,0.2-2.2,0.4c-0.7,0.2-1.5,0.4-2.2,0.7c-2.9,1.3-5.1,3.3-6.6,6.1c-1.5,2.8-2.7,5.8-3.5,9
				c-0.2,1.1-0.4,2.2-0.6,3.3c-0.2,1.1-0.4,2.2-0.6,3.3c-0.3,1.5-0.6,3.4-0.7,5.6c-0.2,2.2-0.3,4.5-0.4,6.9c0,0.4,0,0.9,0,1.4
				c0,0.5,0,0.9,0,1.4c0,1.3,0,2.6,0.1,3.9c0.1,1.3,0.1,2.6,0.2,3.9c0.4,6,1.5,11.6,3.4,16.9c1.8,5.3,4.7,8.8,8.8,10.6
				c0.2,0,0.4,0.1,0.6,0.2c0.2,0.1,0.3,0.2,0.6,0.2c0.6,0.2,1.3,0.4,2,0.6c0.7,0.2,1.4,0.3,2.2,0.4c0.2,0.1,0.5,0.2,0.8,0.2
				c0.3,0,0.6,0,1,0c0.4,0,0.9,0,1.4-0.1c0.5-0.1,1-0.1,1.5-0.2c0.3-0.1,0.7-0.2,1-0.2c0.4-0.1,0.7-0.1,1-0.2c0.3-0.1,0.6-0.2,1-0.2
				c0.3-0.1,0.6-0.1,0.8-0.2c2.9-1.4,5.1-3.5,6.6-6.2c1.5-2.8,2.7-5.7,3.5-8.6c0.2-1.2,0.4-2.3,0.6-3.4c0.2-1.1,0.4-2.1,0.6-3.2
				C-1099.2,150.6-1099.1,150.2-1099.1,149.8z"/>
		</g>
		<g id="lines">
			<line class="st6" x1="-1042.2" y1="217.2" x2="-1032.4" y2="217.2"/>
			<line class="st6" x1="-1282.4" y1="217.2" x2="-1272.6" y2="217.2"/>
		</g>
		<g id="markers">
			<path id="marker_2_" class="st2" d="M-1237,436L-1237,436c-1.3,0-2.4-1.1-2.4-2.4l0,0c0-1.3,1.1-2.4,2.4-2.4l0,0
				c1.3,0,2.4,1.1,2.4,2.4l0,0C-1234.7,435-1235.7,436-1237,436z"/>
			<path id="marker_1_" class="st2" d="M-1237,467.2L-1237,467.2c-1.3,0-2.4-1.1-2.4-2.4l0,0c0-1.3,1.1-2.4,2.4-2.4l0,0
				c1.3,0,2.4,1.1,2.4,2.4l0,0C-1234.7,466.1-1235.7,467.2-1237,467.2z"/>
			<path id="marker" class="st2" d="M-1237,498.3L-1237,498.3c-1.3,0-2.4-1.1-2.4-2.4l0,0c0-1.3,1.1-2.4,2.4-2.4l0,0
				c1.3,0,2.4,1.1,2.4,2.4l0,0C-1234.7,497.3-1235.7,498.3-1237,498.3z"/>
		</g>
		<g id="set_name" class="st7">
			<g>
				<path class="st2" d="M-1209,328.4c-0.6-0.3-1.3-0.5-1.9-0.5c-0.8,0-1.6,0.2-2.3,0.6c-0.7,0.4-1.2,0.9-1.6,1.6
					c-0.4,0.7-0.6,1.4-0.6,2.3c0,0.8,0.2,1.6,0.6,2.3c0.4,0.7,0.9,1.2,1.6,1.6c0.7,0.4,1.4,0.6,2.3,0.6c0.6,0,1.3-0.1,1.9-0.4
					c0.6-0.3,1.2-0.7,1.7-1.2l1.5,1.7c-0.7,0.7-1.5,1.3-2.4,1.7c-0.9,0.4-1.9,0.6-2.8,0.6c-1.3,0-2.5-0.3-3.5-0.9
					c-1.1-0.6-1.9-1.4-2.5-2.5c-0.6-1-0.9-2.2-0.9-3.5s0.3-2.4,0.9-3.5c0.6-1,1.5-1.9,2.5-2.5c1.1-0.6,2.3-0.9,3.6-0.9
					c0.9,0,1.9,0.2,2.8,0.6c0.9,0.4,1.7,0.9,2.3,1.6l-1.5,1.9C-1207.8,329.1-1208.3,328.7-1209,328.4z"/>
				<path class="st2" d="M-1194.4,326.5c1.1,0.6,1.9,1.4,2.6,2.5c0.6,1,0.9,2.2,0.9,3.5s-0.3,2.4-0.9,3.5c-0.6,1-1.5,1.9-2.6,2.5
					c-1.1,0.6-2.3,0.9-3.6,0.9s-2.5-0.3-3.6-0.9c-1.1-0.6-1.9-1.4-2.6-2.5c-0.6-1-0.9-2.2-0.9-3.5s0.3-2.4,0.9-3.5
					c0.6-1,1.5-1.9,2.6-2.5c1.1-0.6,2.3-0.9,3.6-0.9S-1195.4,325.9-1194.4,326.5z M-1200.2,328.5c-0.7,0.4-1.2,0.9-1.7,1.6
					c-0.4,0.7-0.6,1.5-0.6,2.3c0,0.8,0.2,1.6,0.6,2.3c0.4,0.7,1,1.2,1.7,1.7s1.4,0.6,2.3,0.6c0.8,0,1.5-0.2,2.2-0.6s1.2-1,1.6-1.7
					c0.4-0.7,0.6-1.5,0.6-2.3c0-0.8-0.2-1.6-0.6-2.3c-0.4-0.7-0.9-1.2-1.6-1.6c-0.7-0.4-1.4-0.6-2.2-0.6
					C-1198.7,327.9-1199.5,328.1-1200.2,328.5z"/>
				<path class="st2" d="M-1179.4,325.8h2.5v13.3h-2.4l-6.8-9.2v9.2h-2.5v-13.3h2.4l6.9,9.2V325.8z"/>
				<path class="st2" d="M-1175.1,325.8h10.8v2.3h-4.1v11h-2.6v-11h-4.1V325.8z"/>
				<path class="st2" d="M-1154,339.1l-1.2-2.8h-6.5l-1.2,2.8h-2.6l5.8-13.3h2.6l5.8,13.3H-1154z M-1160.7,334.1h4.7l-2.3-5.6
					L-1160.7,334.1z"/>
				<path class="st2" d="M-1142,328.4c-0.6-0.3-1.3-0.5-1.9-0.5c-0.8,0-1.6,0.2-2.3,0.6c-0.7,0.4-1.2,0.9-1.6,1.6s-0.6,1.4-0.6,2.3
					c0,0.8,0.2,1.6,0.6,2.3s0.9,1.2,1.6,1.6c0.7,0.4,1.4,0.6,2.3,0.6c0.6,0,1.3-0.1,1.9-0.4c0.6-0.3,1.2-0.7,1.7-1.2l1.5,1.7
					c-0.7,0.7-1.5,1.3-2.4,1.7c-0.9,0.4-1.9,0.6-2.8,0.6c-1.3,0-2.5-0.3-3.5-0.9c-1.1-0.6-1.9-1.4-2.5-2.5c-0.6-1-0.9-2.2-0.9-3.5
					s0.3-2.4,0.9-3.5c0.6-1,1.5-1.9,2.5-2.5c1.1-0.6,2.3-0.9,3.6-0.9c0.9,0,1.9,0.2,2.8,0.6c0.9,0.4,1.7,0.9,2.3,1.6l-1.5,1.9
					C-1140.8,329.1-1141.3,328.7-1142,328.4z"/>
				<path class="st2" d="M-1138.2,325.8h10.8v2.3h-4.1v11h-2.6v-11h-4.1V325.8z"/>
				<path class="st2" d="M-1117.7,336.1c0.6,0.6,1.4,0.9,2.4,0.9c1,0,1.8-0.3,2.4-0.9c0.6-0.6,0.9-1.4,0.9-2.5v-7.8h2.5v7.8
					c0,1.2-0.2,2.2-0.7,3c-0.5,0.9-1.1,1.5-2,2c-0.9,0.5-1.9,0.7-3.1,0.7c-1.2,0-2.2-0.2-3.1-0.7c-0.9-0.5-1.6-1.1-2-2
					c-0.5-0.9-0.7-1.9-0.7-3v-7.8h2.5v7.8C-1118.6,334.7-1118.3,335.5-1117.7,336.1z"/>
				<path class="st2" d="M-1100.3,328.2c-0.7-0.2-1.3-0.3-1.9-0.3c-0.6,0-1.1,0.1-1.4,0.3c-0.4,0.2-0.5,0.5-0.5,0.9
					c0,0.4,0.1,0.7,0.4,0.9s0.6,0.5,0.9,0.6c0.4,0.2,0.9,0.3,1.5,0.5c0.9,0.3,1.6,0.5,2.2,0.8c0.6,0.3,1.1,0.7,1.5,1.2
					c0.4,0.5,0.6,1.2,0.6,2.1c0,0.8-0.2,1.5-0.7,2.1c-0.4,0.6-1,1.1-1.8,1.4c-0.8,0.3-1.6,0.5-2.6,0.5c-1,0-2.1-0.2-3-0.6
					c-1-0.4-1.8-0.9-2.6-1.5l1.1-2.2c0.7,0.6,1.4,1.1,2.3,1.5c0.8,0.4,1.6,0.5,2.3,0.5c0.7,0,1.3-0.1,1.7-0.4
					c0.4-0.3,0.6-0.6,0.6-1.1c0-0.4-0.1-0.7-0.4-0.9c-0.2-0.2-0.6-0.4-0.9-0.6c-0.4-0.2-0.9-0.3-1.6-0.5c-0.9-0.3-1.6-0.5-2.2-0.8
					c-0.6-0.3-1.1-0.6-1.5-1.1s-0.6-1.2-0.6-2c0-0.8,0.2-1.4,0.6-2c0.4-0.6,1-1,1.7-1.3c0.8-0.3,1.6-0.5,2.6-0.5
					c0.9,0,1.7,0.1,2.6,0.4c0.8,0.3,1.6,0.6,2.3,1l-1,2.2C-1098.9,328.8-1099.6,328.5-1100.3,328.2z"/>
			</g>
		</g>
	</g>
</g>
<g id="Icons">
	<g id="_x32_0_1_">
		<polyline class="st8" points="-321.6,528.4 -329.9,528.4 -339,550.6 -272.6,550.6 -281.7,528.4 -290,528.4 		"/>
		<g>
			<path class="st8" d="M-289.3,509.1c0,2.6-0.6,5-1.6,7.2c-2.7,5.5-14.8,22.5-14.8,22.5s-11.9-16.8-14.6-22.1
				c-1.2-2.3-1.9-4.9-1.9-7.6c0-9.1,7.4-16.5,16.5-16.5C-296.7,492.6-289.3,500-289.3,509.1z"/>
			<circle class="st8" cx="-305.8" cy="509.1" r="6.7"/>
		</g>
		<line class="st8" x1="-339" y1="556.3" x2="-272.6" y2="556.3"/>
	</g>
	<g id="_x31_9">
		<polyline class="st8" points="-417.1,527.3 -417.1,551.4 -473.2,551.4 -473.2,511.6 -435.8,511.6 		"/>
		<polygon class="st8" points="-425.4,529.3 -435.4,534.3 -435.4,523.2 -413.4,487.6 -403.4,493.8 		"/>
		<line class="st8" x1="-416.7" y1="493.1" x2="-407.7" y2="498.7"/>
		<g>
			<line class="st8" x1="-442.4" y1="535.4" x2="-462.6" y2="535.4"/>
			<line class="st8" x1="-448" y1="527.5" x2="-462.6" y2="527.5"/>
		</g>
	</g>
	<g id="_x31_8">
		<g id="_x32__2_">
			<polyline class="st8" points="-612.5,543.5 -612.3,498.5 -545.9,498.9 -546.2,538.3 			"/>
			<path class="st8" d="M-569.9,543.5l-2.3,2h-14.1l-2.3-2h-32.3c1.5,4.1,5.4,6.9,9.8,6.9h63.7c4.4,0,8.3-2.8,9.8-6.9H-569.9z"/>
		</g>
		<polygon class="st8" points="-573.3,529.5 -576.6,523.6 -572.5,521.3 -585.8,513.2 -585.9,528.8 -581.9,526.5 -578.6,532.5 		"/>
	</g>
	<g id="_x31_7">
		<polyline class="st8" points="-684.3,521.2 -716,492.6 -747.6,521.2 		"/>
		<polyline class="st8" points="-741.3,524.2 -741.3,556.3 -724.4,556.3 -724.4,540.1 -707.5,540.1 -707.5,556.3 -690.6,556.3 
			-690.6,524.2 		"/>
	</g>
	<g id="_x31_6">
		<path class="st8" d="M-845.2,524.9l-0.6-5.1c3.9-3.4,6.6-9.4,6.6-15.4c0-9-1.3-16.2-13.5-16.2c-12.3,0-13.5,7.3-13.5,16.2
			c0,5.9,2.7,11.9,6.6,15.4l-0.6,5.1c-0.2,1.8-1.5,3.3-3.3,3.8l-12.5,3.5c-3.3,0.9-5.5,3.9-5.5,7.3v21.2h57.5v-21.2
			c0-3.4-2.3-6.4-5.5-7.3l-12.5-3.5C-843.7,528.2-845,526.7-845.2,524.9z"/>
		<path class="st8" d="M-860.8,499c0,0,3.6,1.4,6.9,1.4c4.4,0,8.9-1.9,8.9-1.9s2.5,1.9,5.1,1.9"/>
		<path class="st8" d="M-863.4,529.7l0.8,0.7c5.8,4.8,14.1,4.8,19.9,0l0.8-0.7"/>
	</g>
	<g id="_x31_5">
		<rect x="-341.5" y="339.9" class="st9" width="71.3" height="57"/>
		<line class="st9" x1="-341.5" y1="349.7" x2="-275.2" y2="349.7"/>
		<line class="st9" x1="-337" y1="344.9" x2="-334.4" y2="344.9"/>
		<line class="st9" x1="-331.8" y1="344.9" x2="-329.3" y2="344.9"/>
		<line class="st9" x1="-326.7" y1="344.9" x2="-324.1" y2="344.9"/>
		<line class="st9" x1="-327.4" y1="376.9" x2="-324.8" y2="376.9"/>
		<polyline class="st8" points="-315.2,376.9 -321.1,376.9 -321.1,366.9 -315.2,366.9 		"/>
		<rect x="-309.4" y="366.9" class="st8" width="6.7" height="10"/>
		<polyline class="st8" points="-296.8,376.4 -296.8,366.9 -294.7,366.9 -291.8,370.6 -291.8,370.6 -289.1,366.9 -287,366.9 
			-287,376.4 		"/>
	</g>
	<g id="_x31_4">
		<path class="st8" d="M-451.3,359.2l-0.4,2c-0.8,4.7-4.8,8.1-9.6,8.1c0,0,0,0,0,0l-1.8,0c-2.1,0-4,1.4-4.6,3.4
			c-1.2,3.9-3.3,10.3-4.9,15.2c-1.1,3.4,1.4,6.8,5,6.8h49.9c3.5,0,6.1-3.4,5-6.8l-4.9-15.2c-0.6-2-2.5-3.4-4.6-3.4l-1.8,0
			c-4.7,0-8.8-3.5-9.6-8.2l-0.4-2"/>
		<path class="st8" d="M-431.4,359.6L-431.4,359.6L-431.4,359.6z"/>
		<path class="st8" d="M-430.3,353.8c2.1,0.5,2.3,1,2.3,1l1.1,6c0.2,1.5,1.5,2.7,3.1,2.7l10,0c1.5,0,2.7-1.1,2.9-2.5l0.5-3.9
			c0-0.3,0-0.7,0-1c-1.7-10.3-17.2-13.8-32.1-13.8c-14.5,0-30.8,3.3-32.1,13.9c0,0.3,0,0.6,0,0.9l0.5,3.9c0.2,1.5,1.4,2.5,2.9,2.5
			l10,0c1.5,0,2.9-1.1,3.1-2.7l1.1-6c0,0,0.9-1.9,14.5-1.9c4.9,0,8.1,0.2,10.3,0.6C-431.5,353.5-430.9,353.6-430.3,353.8"/>
		<circle class="st8" cx="-442.5" cy="377.8" r="6.9"/>
	</g>
	<g id="_x31_3">
		<polyline class="st10" points="57.7,32.5 57.7,24 16.2,24 16.2,53 21.2,53 21.2,60.3 28.5,53 57.7,53 57.7,43.8 		"/>
		<polyline class="st10" points="43.2,47.3 43.2,38.5 84.7,38.5 84.7,67.5 79.7,67.5 79.7,74.8 72.4,67.5 43.2,67.5 43.2,53.3 		"/>
	</g>
	<g id="_x31_2">
		<g id="_x38__2_">
			<path class="st10" d="M38.3,390.3c-1.2-2-1-2.5-1-2.5l3.7-5.3c1-1.3,0.8-3.2-0.3-4.3l-7.6-7.5c-1.1-1.1-2.9-1.2-4.1-0.3l-3.3,2.5
				c-0.3,0.2-0.5,0.5-0.8,0.8c-6.5,9.1,2.6,23.3,13.8,34.5c10.9,10.9,25.7,20.5,34.6,13.6c0.3-0.2,0.5-0.4,0.7-0.7l2.6-3.4
				c0.9-1.2,0.8-3-0.3-4.1l-7.6-7.5c-1.2-1.2-3-1.3-4.3-0.3l-5.3,3.7c0,0-2.1,0.8-12.4-9.4c-3.7-3.6-5.9-6.3-7.3-8.1
				C39,391.3,38.6,390.8,38.3,390.3"/>
		</g>
		<path class="st10" d="M66.8,395c0-2.2-0.5-4.4-1.5-6.5c-2.6-5.3-7.8-8.4-13.3-8.5"/>
		<path class="st10" d="M75.5,395c0-3.5-0.8-7-2.4-10.3c-4.1-8.4-12.4-13.3-21.1-13.4"/>
		<path class="st10" d="M73.1,384.7c-3-6.8-12.2-13-21.1-13.4"/>
	</g>
	<g id="_x31_1">
		<circle class="st8" cx="-852.7" cy="368.4" r="32.8"/>
		<ellipse class="st8" cx="-852.7" cy="368.4" rx="17.5" ry="32.8"/>
		<line class="st8" x1="-852.7" y1="335.6" x2="-852.7" y2="400.5"/>
		<line class="st8" x1="-876.2" y1="356.1" x2="-823.9" y2="356.1"/>
		<line class="st8" x1="-829.2" y1="380.7" x2="-881.4" y2="380.7"/>
	</g>
	<g id="_x31_0">
		<rect x="-323.4" y="182.6" class="st8" width="35.3" height="59.7"/>
		<line class="st8" x1="-323.4" y1="231" x2="-294.3" y2="231"/>
		<line class="st8" x1="-306.5" y1="236.8" x2="-305.1" y2="236.8"/>
		<line class="st8" x1="-309" y1="188.8" x2="-302.6" y2="188.8"/>
	</g>
	<g id="_x39_">
		<path class="st8" d="M-449.8,202c-0.4-2.3,0-2.7,0-2.7l5.4-3.5c1.4-0.9,2-2.6,1.3-4.1l-4.2-9.8c-0.6-1.4-2.2-2.2-3.7-1.8l-4,1.1
			c-0.3,0.1-0.7,0.2-1,0.4c-9.4,5.9-6.4,22.6-0.2,37.2c6,14.2,16,28.7,26.9,25.7c0.3-0.1,0.6-0.2,0.9-0.4l3.7-2.1
			c1.3-0.8,1.9-2.4,1.3-3.9l-4.2-9.8c-0.6-1.5-2.3-2.3-3.9-1.9l-6.3,1.4c0,0-2.2-0.1-7.9-13.4c-2-4.8-3.1-8-3.7-10.3
			C-449.5,203.3-449.7,202.6-449.8,202"/>
	</g>
	<g id="_x38_">
		<path class="st8" d="M-556.1,203.2c0,3.6-0.8,7-2.3,10.1c-3.7,7.7-20.8,31.6-20.8,31.6s-16.6-23.6-20.5-31
			c-1.7-3.2-2.6-6.8-2.6-10.7c0-12.8,10.3-23.1,23.1-23.1C-566.5,180.1-556.1,190.4-556.1,203.2z"/>
		
			<ellipse transform="matrix(0.2307 -0.973 0.973 0.2307 -643.3086 -407.3234)" class="st8" cx="-579.2" cy="203.2" rx="9.4" ry="9.4"/>
	</g>
	<g id="_x37_">
		<rect x="19.2" y="160.1" class="st10" width="61.6" height="46.2"/>
		<polyline class="st10" points="21.5,161.7 50,187.8 79.4,161.3 		"/>
		<line class="st10" x1="39.5" y1="187.8" x2="21.5" y2="204.3"/>
		<line class="st10" x1="78.5" y1="204.3" x2="60.5" y2="187.8"/>
	</g>
	<g id="_x36_">
		<g>
			<line class="st11" x1="-874" y1="215.2" x2="-870.4" y2="218.8"/>
			<line class="st11" x1="-870.4" y1="215.2" x2="-874" y2="218.8"/>
		</g>
		<g>
			<line class="st11" x1="-861.2" y1="215.2" x2="-857.6" y2="218.8"/>
			<line class="st11" x1="-857.6" y1="215.2" x2="-861.2" y2="218.8"/>
		</g>
		<g>
			<line class="st11" x1="-848.4" y1="215.2" x2="-844.8" y2="218.8"/>
			<line class="st11" x1="-844.8" y1="215.2" x2="-848.4" y2="218.8"/>
		</g>
		<polyline class="st8" points="-826.2,188.7 -821.5,188.7 -821.5,241.7 -883.9,241.7 -883.9,188.7 -876,188.7 		"/>
		<rect x="-873.9" y="183.1" class="st8" width="8" height="11.1"/>
		<rect x="-839.5" y="183.1" class="st8" width="8" height="11.1"/>
		<line class="st8" x1="-883.9" y1="201.3" x2="-827.6" y2="201.3"/>
		<line class="st8" x1="-874.5" y1="209" x2="-869.9" y2="209"/>
		<line class="st8" x1="-861.7" y1="209" x2="-857.1" y2="209"/>
		<line class="st8" x1="-848.9" y1="209" x2="-844.3" y2="209"/>
		<line class="st8" x1="-836.1" y1="209" x2="-831.5" y2="209"/>
		<line class="st8" x1="-836.1" y1="217.4" x2="-831.5" y2="217.4"/>
		<line class="st8" x1="-874.5" y1="225.8" x2="-869.9" y2="225.8"/>
		<line class="st8" x1="-861.7" y1="225.8" x2="-857.1" y2="225.8"/>
		<line class="st8" x1="-848.9" y1="225.8" x2="-844.3" y2="225.8"/>
		<line class="st8" x1="-836.1" y1="225.8" x2="-831.5" y2="225.8"/>
		<line class="st8" x1="-874.5" y1="234.2" x2="-869.9" y2="234.2"/>
		<line class="st8" x1="-861.7" y1="234.2" x2="-857.1" y2="234.2"/>
		<line class="st8" x1="-848.9" y1="234.2" x2="-844.3" y2="234.2"/>
		<line class="st8" x1="-836.1" y1="234.2" x2="-831.5" y2="234.2"/>
		<line class="st8" x1="-860.5" y1="188.7" x2="-839.5" y2="188.7"/>
	</g>
	<g id="_x35_">
		<path class="st8" d="M-290.4,75.8l10.1,6.1l-2.2-10c6.6-4.3,10.7-10.4,10.7-17.2c0-13.1-15.2-23.7-34-23.7
			c-18.8,0-34,10.6-34,23.7c0,13.1,15.2,23.7,34,23.7c3.1,0,6.1-0.3,9-0.8"/>
		<path class="st8" d="M-294.8,77.3"/>
		<circle class="st8" cx="-322.6" cy="54.7" r="3.6"/>
		<circle class="st8" cx="-305.8" cy="54.7" r="3.6"/>
		<circle class="st8" cx="-289.1" cy="54.7" r="3.6"/>
	</g>
	<g id="_x34_">
		<path class="st8" d="M-426.9,63.6l14.8,14.8c2.3,2.3,2.3,6.1,0,8.4v0c-2.3,2.3-6.1,2.3-8.4,0l-12-12"/>
		<circle class="st8" cx="-449.5" cy="49.4" r="25.1"/>
		<circle class="st8" cx="-449.5" cy="49.4" r="16.1"/>
	</g>
	<g id="_x33_">
		<path class="st8" d="M-603.8,53.3V52c0-13.6,11-24.6,24.6-24.6h0c13.6,0,24.6,11,24.6,24.6v26l0,0c0,4.1-3.3,7.5-7.5,7.5h-13.9
			c-0.8,0-1.5-0.6-1.5-1.5v-2.7c0-0.8,0.7-1.5,1.5-1.5h5.8c0.8,0,1.5,0.7,1.5,1.5v3.3"/>
		<path class="st8" d="M-609.2,78h5.3V59.1h-5.3c-3.3,0-5.9,2.7-5.9,5.9v7C-615.1,75.3-612.4,78-609.2,78z"/>
		<path class="st8" d="M-550.9,78"/>
		<path class="st8" d="M-548.5,78L-548.5,78c2.8,0,5.1-2.3,5.1-5.1v-8.6c0-2.8-2.3-5.1-5.1-5.1h-6.1"/>
		<path class="st8" d="M-608.8,59.1h-1.2c-2.8,0-5.1,2.3-5.1,5.1v8.6c0,2.8,2.3,5.1,5.1,5.1h6.1"/>
	</g>
	<g id="_x32_">
		<path class="st8" d="M-707.2,45.2c0,0-7.2-5.6-14,0.2c-2.4,2-3.6,4.7-4.6,7.8c-1.9,5.7-2.7,18,5.8,18c3.6,0,8.5-2,11.5-9.9
			L-707.2,45.2z"/>
		<path class="st8" d="M-708.5,62.6c0.2,3.1,1.4,10.4,9,7.8c11.2-3.8,12.8-34.3-4.6-40.4c-16.8-5.9-36.7,3.6-36.7,28.7
			c0,25,21.4,29.3,33.7,23.6"/>
	</g>
	<g id="_x31_">
		<path class="st8" d="M-852.7,87.5c-17.2,0-31.1-13.9-31.1-31.1c0-17.2,13.9-31.1,31.1-31.1c17.2,0,31.1,13.9,31.1,31.1"/>
		<line class="st8" x1="-852.7" y1="25.4" x2="-852.7" y2="30.2"/>
		<line class="st8" x1="-852.7" y1="82.7" x2="-852.7" y2="87.5"/>
		<line class="st8" x1="-874.7" y1="34.5" x2="-871.2" y2="37.9"/>
		<line class="st8" x1="-883.8" y1="56.4" x2="-878.9" y2="56.4"/>
		<line class="st8" x1="-826.4" y1="56.4" x2="-821.6" y2="56.4"/>
		<line class="st8" x1="-874.7" y1="78.4" x2="-871.2" y2="75"/>
		<line class="st8" x1="-834.1" y1="37.9" x2="-830.7" y2="34.5"/>
		<line class="st8" x1="-839.3" y1="43" x2="-849.8" y2="53.5"/>
		<line class="st8" x1="-855.5" y1="53.4" x2="-860.8" y2="48.1"/>
		<path class="st8" d="M-848.6,56.4c0,2.3-1.8,4.1-4.1,4.1c-2.3,0-4.1-1.8-4.1-4.1s1.8-4.1,4.1-4.1
			C-850.4,52.3-848.6,54.2-848.6,56.4z"/>
		<polyline class="st8" points="-845.8,67.5 -845.8,64.9 -836.3,64.9 -836.3,68.4 -845.5,79.7 -845.5,84.2 -836.3,84.2 		"/>
		<polyline class="st8" points="-831.8,64.9 -831.8,74.5 -824,74.5 		"/>
		<line class="st8" x1="-823.2" y1="64.9" x2="-823.2" y2="84.2"/>
	</g>
</g>
</svg>
