<?xml version="1.0" encoding="utf-8"?>
<!-- Generator: Adobe Illustrator 24.1.0, SVG Export Plug-In . SVG Version: 6.00 Build 0)  -->
<svg version="1.1" id="Layer_1" xmlns="http://www.w3.org/2000/svg" xmlns:xlink="http://www.w3.org/1999/xlink" x="0px" y="0px"
	 viewBox="0 0 1888.5 358.5" style="enable-background:new 0 0 1888.5 358.5;" xml:space="preserve">
<style type="text/css">
	.st0{fill:#FFFFFF;}
</style>
<g>
	<polygon class="st0" points="50.9,307.5 209.9,307.5 209.9,283.2 83.4,283.2 	"/>
	<polygon class="st0" points="751.6,307.5 592.6,307.5 592.6,283.2 719.1,283.2 	"/>
	<rect x="448.5" y="285.7" class="st0" width="105" height="19.9"/>
	<rect x="226.5" y="60.9" class="st0" width="88.5" height="22.5"/>
	<polygon class="st0" points="294.1,116 247.4,145.1 247.4,77 294.1,77 	"/>
	<polygon class="st0" points="448.5,243.6 553.5,243.6 553.5,233.8 544.2,226.3 448.5,226.3 	"/>
	<polygon class="st0" points="492.3,184.2 448.5,148.7 448.5,184.2 	"/>
	<rect x="448.5" y="256" class="st0" width="105" height="17.3"/>
	<polygon class="st0" points="448.5,196.6 448.5,213.9 528.9,213.9 507.6,196.6 	"/>
	<g>
		<path class="st0" d="M747.9,190.3c2.8,0,5,0.1,6.6,0.4c1.6,0.3,3,0.7,4.2,1.3c2.1,1.1,3.5,2.7,4.5,4.8c0.9,2.1,1.4,5,1.4,8.8
			c0,5.6-0.9,9.5-2.8,11.8c-1.9,2.3-5,3.5-9.4,3.5h-23.2v10.1h-12.4v-40.7H747.9z M747.4,200.4h-18.3v10.3h18.3
			c1.7,0,2.8-0.4,3.5-1.2c0.7-0.8,1-2.3,1-4.3c0-1.7-0.4-2.9-1.1-3.6C750.1,200.8,749,200.4,747.4,200.4z"/>
		<path class="st0" d="M806.8,190.3c6.4,0,10.8,1,13.2,2.9c2.3,1.9,3.5,5.4,3.5,10.5c0,3.5-0.5,6.1-1.6,7.8c-1,1.7-2.8,2.9-5.2,3.4
			c2.1,0.5,3.8,1.4,4.8,2.7c1.1,1.3,1.6,3,1.6,5v8.3h-12.4v-6.2c0-1.6-0.4-2.7-1.1-3.3c-0.8-0.6-2.2-0.9-4.5-0.9h-18.5v10.4h-12.4
			v-40.7H806.8z M806.3,200.4h-19.7v9.9h19.7c1.7,0,2.8-0.4,3.5-1.2c0.7-0.8,1-2.2,1-4.2c0-1.6-0.4-2.8-1.1-3.5
			C809,200.7,807.9,200.4,806.3,200.4z"/>
		<path class="st0" d="M853.4,231.4c-4.8,0-8.2-0.2-10.4-0.6c-2.2-0.4-4-1.2-5.4-2.2c-1.6-1.2-2.7-2.7-3.4-4.6c-0.7-1.9-1-4.4-1-7.5
			v-11.1c0-3.4,0.3-6.1,1-8.1c0.7-2,1.8-3.6,3.4-4.7c1.4-1,3.2-1.7,5.4-2.2c2.3-0.4,5.7-0.7,10.3-0.7H868c4.6,0,8.1,0.2,10.4,0.7
			c2.3,0.4,4.1,1.2,5.4,2.2c1.5,1.1,2.6,2.7,3.3,4.7c0.7,2,1.1,4.5,1.1,7.6v11.3c0,3.1-0.3,5.7-1.1,7.6c-0.7,2-1.8,3.5-3.3,4.7
			c-1.4,1-3.2,1.8-5.4,2.2c-2.2,0.4-5.7,0.6-10.4,0.6H853.4z M856.8,221.2h7.9c4.4,0,7.3-0.5,8.7-1.6c1.4-1.1,2.2-3.1,2.2-6.1v-5.8
			c0-3-0.7-5-2.2-6.1c-1.4-1.1-4.3-1.7-8.7-1.7h-7.9c-4.5,0-7.4,0.6-8.8,1.7c-1.4,1.1-2.1,3.2-2.1,6.3v5.7c0,2.9,0.7,4.9,2.2,6
			C849.5,220.7,852.4,221.2,856.8,221.2z"/>
		<path class="st0" d="M929.7,190.3c2.8,0,5,0.1,6.6,0.4c1.6,0.3,3,0.7,4.2,1.3c2.1,1.1,3.5,2.7,4.5,4.8c0.9,2.1,1.4,5,1.4,8.8
			c0,5.6-0.9,9.5-2.8,11.8c-1.9,2.3-5,3.5-9.4,3.5H911v10.1h-12.4v-40.7H929.7z M929.3,200.4H911v10.3h18.3c1.7,0,2.8-0.4,3.5-1.2
			c0.7-0.8,1-2.3,1-4.3c0-1.7-0.4-2.9-1.1-3.6C932,200.8,930.8,200.4,929.3,200.4z"/>
		<path class="st0" d="M1000.1,200.2h-32v6.1h30.2v8.5h-30.2v6.2h32.5v9.8h-44.9v-40.7h44.4V200.2z"/>
		<path class="st0" d="M1043.4,190.3c6.4,0,10.8,1,13.2,2.9c2.3,1.9,3.5,5.4,3.5,10.5c0,3.5-0.5,6.1-1.6,7.8c-1,1.7-2.8,2.9-5.2,3.4
			c2.1,0.5,3.8,1.4,4.8,2.7c1.1,1.3,1.6,3,1.6,5v8.3h-12.4v-6.2c0-1.6-0.4-2.7-1.1-3.3c-0.8-0.6-2.2-0.9-4.5-0.9h-18.5v10.4h-12.4
			v-40.7H1043.4z M1042.9,200.4h-19.7v9.9h19.7c1.7,0,2.8-0.4,3.5-1.2c0.7-0.8,1-2.2,1-4.2c0-1.6-0.4-2.8-1.1-3.5
			C1045.7,200.7,1044.5,200.4,1042.9,200.4z"/>
		<path class="st0" d="M1097.3,230.9h-12.4v-30.7h-17v-10h46.4v10h-17V230.9z"/>
		<path class="st0" d="M1153.2,230.9h-12.4v-14.6l-22.4-26h15.3l13.4,16.2l14-16.2h14.7l-22.5,26V230.9z"/>
		<path class="st0" d="M1225,230.9H1213v-40.7h18.3l14.5,25.4l14.7-25.4h18.1v40.7h-12v-29l-16.8,29h-8.1l-16.7-29V230.9z"/>
		<path class="st0" d="M1299.3,230.9h-13.5l22.2-40.7h15.8l21.8,40.7h-13.6l-3.9-6.8h-24.8L1299.3,230.9z M1307.9,214.4h15.6
			l-7.9-14.4L1307.9,214.4z"/>
		<path class="st0" d="M1407.5,230.9h-18.2l-24.4-29.6v29.6h-12.4v-40.7h18.4l24.2,29.8v-29.8h12.4V230.9z"/>
		<path class="st0" d="M1427.8,230.9h-13.5l22.2-40.7h15.8l21.8,40.7h-13.6l-3.9-6.8h-24.8L1427.8,230.9z M1436.5,214.4h15.6
			l-7.9-14.4L1436.5,214.4z"/>
		<path class="st0" d="M1518.5,204.9v-0.1c0-1.9-0.6-3.2-1.7-3.8c-1.1-0.7-3.7-1-7.6-1h-7.2c-4.2,0-7,0.5-8.2,1.5
			c-1.2,1-1.8,3.2-1.8,6.5v5.7c0,2.9,0.7,4.9,2,6c1.3,1.1,4,1.6,8,1.6h7.2c3.6,0,6-0.3,7.4-1c1.3-0.6,2-1.8,2-3.3
			c0-0.2,0-0.6-0.1-1.1c0-0.1,0-0.1,0-0.1h-14.6v-8.2h27.5v13.4c0,3.8-1.4,6.5-4.2,8.2c-2.8,1.6-7.8,2.4-14.8,2.4h-13.8
			c-4.2,0-7.4-0.2-9.4-0.7c-2-0.5-3.7-1.2-5.1-2.3c-1.6-1.3-2.8-2.9-3.6-4.8c-0.7-1.9-1.1-4.3-1.1-7.1v-11.1c0-5.8,1.4-9.9,4.1-12.2
			c2.8-2.3,7.8-3.5,15-3.5h13.9c4.5,0,7.8,0.2,9.9,0.6c2.1,0.4,3.8,1.1,5,2c1.3,1,2.2,2.3,2.8,4c0.6,1.7,0.9,3.8,0.9,6.3
			c0,0.6,0,1.1,0,1.4c0,0.3,0,0.6,0,0.9H1518.5z"/>
		<path class="st0" d="M1586,200.2h-32v6.1h30.2v8.5H1554v6.2h32.5v9.8h-44.9v-40.7h44.4V200.2z"/>
		<path class="st0" d="M1608.6,230.9h-12.1v-40.7h18.3l14.5,25.4l14.7-25.4h18.1v40.7h-12v-29l-16.8,29h-8.1l-16.7-29V230.9z"/>
		<path class="st0" d="M1717.7,200.2h-32v6.1h30.2v8.5h-30.2v6.2h32.5v9.8h-44.9v-40.7h44.4V200.2z"/>
		<path class="st0" d="M1783.1,230.9h-18.2l-24.4-29.6v29.6h-12.4v-40.7h18.4l24.2,29.8v-29.8h12.4V230.9z"/>
		<path class="st0" d="M1820.6,230.9h-12.4v-30.7h-17v-10h46.4v10h-17V230.9z"/>
		<path class="st0" d="M896.8,303.3c-1.2,1.5-2.7,2.5-4.5,3.1c-1.8,0.6-4.8,0.9-8.9,0.9h-14.1c-6.4,0-10.9-0.8-13.5-2.4
			c-2.6-1.6-3.9-4.3-3.9-8.2v-5.2c0-2.5,0.7-4.5,2.1-5.8c1.4-1.3,3.5-2,6.3-2.2c-1.4-0.8-2.3-1.7-2.9-2.5c-0.5-0.9-0.8-2-0.8-3.3
			v-4.5c0-2.9,0.8-4.8,2.3-5.9c1.5-1.1,5.2-1.6,10.9-1.6h11.7c6.2,0,10.4,0.6,12.4,1.9c2,1.2,3,3.5,3,6.8v5h-10.4c0-0.1,0-0.3,0-0.5
			c0-0.2,0-0.4,0-0.5c0-1.5-0.4-2.6-1.1-3.2c-0.7-0.6-2.1-0.9-4-0.9H871c-1,0-1.8,0.2-2.4,0.6c-0.6,0.4-0.8,1-0.8,1.8
			c0,0.5,0.1,1,0.4,1.4c0.3,0.4,0.6,0.8,1.2,1l20.7,10.8c0.1-0.3,0.2-0.7,0.2-1.2c0-0.4,0.1-1.1,0.1-1.9c0-0.1,0-0.3,0-0.6
			c0-0.3,0-0.5,0-0.6c0-0.2,0-0.4,0-0.5c0-0.1,0-0.2,0-0.3h10.2v6.7c0,0.4-0.1,0.9-0.2,1.6c-0.1,0.6-0.3,1.3-0.5,2.1l7.4,4.1
			l-3.5,7.8L896.8,303.3z M887,298.6l-18.8-10c-0.3-0.1-0.6-0.3-0.9-0.4c-0.3-0.1-0.6-0.1-0.9-0.1c-1.1,0-1.9,0.3-2.5,1
			c-0.6,0.7-0.9,1.6-0.9,2.7v2.7c0,1.6,0.4,2.6,1.3,3.2c0.9,0.6,2.5,0.9,5,0.9H887z"/>
		<path class="st0" d="M976.1,266.2c6.4,0,10.8,1,13.2,2.9c2.3,1.9,3.5,5.4,3.5,10.5c0,3.5-0.5,6.1-1.6,7.8c-1,1.7-2.8,2.9-5.2,3.4
			c2.1,0.5,3.8,1.4,4.8,2.7c1.1,1.3,1.6,3,1.6,5v8.3H980v-6.2c0-1.6-0.4-2.7-1.1-3.3c-0.8-0.6-2.2-0.9-4.5-0.9h-18.5v10.4h-12.4
			v-40.7H976.1z M975.6,276.4h-19.7v9.9h19.7c1.7,0,2.8-0.4,3.5-1.2c0.7-0.8,1-2.2,1-4.2c0-1.6-0.4-2.8-1.1-3.5
			C978.3,276.7,977.2,276.4,975.6,276.4z"/>
		<path class="st0" d="M1047.8,276.1h-32v6.1h30.2v8.5h-30.2v6.2h32.5v9.8h-44.9v-40.7h44.4V276.1z"/>
		<path class="st0" d="M1067.7,306.9h-13.5l22.2-40.7h15.8l21.8,40.7h-13.6l-3.9-6.8h-24.8L1067.7,306.9z M1076.4,290.3h15.6
			l-7.9-14.4L1076.4,290.3z"/>
		<path class="st0" d="M1134.2,297h27.1v9.8h-39.5v-40.7h12.4V297z"/>
		<path class="st0" d="M1243.4,276.1h-32v6.1h30.2v8.5h-30.2v6.2h32.5v9.8h-44.9v-40.7h44.4V276.1z"/>
		<path class="st0" d="M1253.3,293.4l12.3,0v0.7c0,1.5,0.4,2.6,1.1,3.1c0.7,0.5,2.3,0.8,4.7,0.8h15.6c1.5,0,2.6-0.3,3.3-0.8
			c0.7-0.5,1-1.4,1-2.6c0-1.2-0.4-2.1-1.1-2.6c-0.8-0.5-2.4-0.9-4.9-1.1l-19.5-0.4c-4.9-0.1-8.2-1.1-9.9-2.8
			c-1.7-1.7-2.6-4.8-2.6-9.3c0-2.3,0.2-4.2,0.7-5.8c0.5-1.5,1.2-2.8,2.2-3.8c1.2-1.1,2.7-1.9,4.6-2.4c1.9-0.5,5-0.7,9.3-0.7h18.9
			c4.7,0,8.1,0.9,10.1,2.6c2.1,1.7,3.1,4.5,3.1,8.3c0,0.3,0,0.5,0,0.8c0,0.3,0,0.8-0.1,1.4h-12v-0.2c0-1.3-0.3-2.4-1-3
			c-0.7-0.7-1.7-1-3.1-1h-14.3c-2.4,0-4,0.2-4.7,0.7c-0.8,0.5-1.1,1.3-1.1,2.5c0,1.2,0.3,2,1,2.5c0.7,0.5,2,0.9,3.8,1l20.4,0.3
			c4.7,0.1,7.9,1.2,9.8,3.1c1.9,2,2.8,5.3,2.8,10.1c0,2.8-0.3,5-1,6.6c-0.7,1.6-1.9,2.9-3.5,4c-1.1,0.7-2.6,1.2-4.5,1.5
			c-1.9,0.3-4.6,0.4-8.1,0.4h-16.5c-6.8,0-11.3-0.8-13.6-2.3c-2.3-1.5-3.4-4.4-3.4-8.5c0-0.2,0-0.6,0-1.2
			C1253.2,294.8,1253.2,294.2,1253.3,293.4z"/>
		<path class="st0" d="M1340.4,306.9H1328v-30.7h-17v-10h46.4v10h-17V306.9z"/>
		<path class="st0" d="M1369.1,306.9h-13.5l22.2-40.7h15.8l21.8,40.7h-13.6l-3.9-6.8H1373L1369.1,306.9z M1377.7,290.3h15.6
			l-7.9-14.4L1377.7,290.3z"/>
		<path class="st0" d="M1442.8,306.9h-12.4v-30.7h-17v-10h46.4v10h-17V306.9z"/>
		<path class="st0" d="M1512.4,276.1h-32v6.1h30.2v8.5h-30.2v6.2h32.5v9.8H1468v-40.7h44.4V276.1z"/>
		<path class="st0" d="M1566.2,297h27.1v9.8h-39.5v-40.7h12.4V297z"/>
		<path class="st0" d="M1614.1,297h27.1v9.8h-39.5v-40.7h12.4V297z"/>
		<path class="st0" d="M1687.7,280.9v-0.4c0-1.6-0.5-2.7-1.6-3.5c-1-0.7-2.7-1.1-5-1.1h-9.9c-4.3,0-7,0.5-8.2,1.5
			c-1.2,1-1.8,3.2-1.8,6.5v5.7c0,2.9,0.7,4.9,2,6c1.3,1.1,4,1.6,8,1.6h7.2c4,0,6.5-0.4,7.8-1.2c1.2-0.8,1.8-2.3,1.8-4.4v-0.4h12.6
			c0,0.1,0,0.2,0,0.3c0.1,1.2,0.1,2.1,0.1,2.6c0,2.6-0.3,4.8-1,6.4c-0.7,1.7-1.7,3.1-3.1,4.1c-1.3,1-3.1,1.7-5.3,2.1
			c-2.2,0.4-5.5,0.6-9.7,0.6h-13.9c-4.2,0-7.4-0.2-9.4-0.7c-2-0.5-3.7-1.2-5.1-2.3c-1.6-1.3-2.8-2.9-3.6-4.8
			c-0.7-1.9-1.1-4.3-1.1-7.1v-11.1c0-5.8,1.4-9.9,4.1-12.2c2.8-2.3,7.8-3.5,15-3.5h13.9c4.5,0,7.7,0.2,9.9,0.6c2.1,0.4,3.8,1.1,5,2
			c1.3,1,2.2,2.3,2.9,4c0.6,1.7,0.9,3.8,0.9,6.3c0,0.6,0,1.1,0,1.4c0,0.3,0,0.6-0.1,0.9H1687.7z"/>
		<path class="st0" d="M739.2,142.8h-30.2l49.5-90.7h35.3l48.6,90.7h-30.4l-8.8-15.1H748L739.2,142.8z M758.5,105.9h34.9l-17.6-32.1
			L758.5,105.9z"/>
		<path class="st0" d="M878.8,142.8h-26.9V52.1h40.9l32.4,56.7L958,52.1h40.3v90.7h-26.8V78.2l-37.5,64.7H916l-37.2-64.7V142.8z"/>
		<path class="st0" d="M1116,74.2h-71.5v13.7h67.3V107h-67.3v13.9h72.6v21.9h-100.2V52.1h99.2V74.2z"/>
		<path class="st0" d="M1206.5,52.1c14.4,0,24.2,2.1,29.4,6.4c5.2,4.3,7.8,12,7.8,23.3c0,7.8-1.2,13.7-3.5,17.5
			c-2.3,3.8-6.2,6.4-11.6,7.7c4.8,1.1,8.4,3.1,10.8,6c2.4,2.9,3.6,6.6,3.6,11.2v18.6h-27.7V129c0-3.6-0.8-6-2.5-7.4
			c-1.7-1.3-5-2-10-2h-41.3v23.2h-27.8V52.1H1206.5z M1205.4,74.7h-44.1v22.2h44.1c3.7,0,6.3-0.9,7.8-2.6c1.5-1.7,2.2-4.8,2.2-9.4
			c0-3.6-0.8-6.2-2.4-7.8C1211.5,75.5,1208.9,74.7,1205.4,74.7z"/>
		<path class="st0" d="M1290.1,142.8h-27.7V52.1h27.7V142.8z"/>
		<path class="st0" d="M1396.4,84.8v-0.9c0-3.5-1.2-6.1-3.5-7.8c-2.3-1.6-6-2.5-11.1-2.5h-22.2c-9.5,0-15.6,1.1-18.3,3.4
			c-2.7,2.3-4.1,7.1-4.1,14.4v12.6c0,6.5,1.5,11,4.5,13.5c3,2.4,9,3.7,17.9,3.7h16.1c8.8,0,14.6-0.9,17.3-2.7c2.7-1.8,4.1-5,4.1-9.8
			v-1h28.1c0,0.1,0,0.3,0.1,0.7c0.1,2.6,0.2,4.6,0.2,5.9c0,5.8-0.7,10.6-2.2,14.4c-1.5,3.8-3.8,6.8-6.9,9.1c-3,2.2-6.9,3.8-11.9,4.7
			c-4.9,0.9-12.2,1.4-21.7,1.4h-31c-9.5,0-16.4-0.5-20.9-1.5c-4.5-1-8.3-2.7-11.5-5.2c-3.7-2.9-6.3-6.4-8-10.6
			c-1.7-4.2-2.5-9.5-2.5-15.9V85.9c0-13,3.1-22.1,9.3-27.2c6.2-5.1,17.4-7.7,33.6-7.7h31c10,0,17.3,0.4,22,1.3
			c4.7,0.9,8.4,2.4,11.2,4.5c2.9,2.2,5,5.2,6.4,8.9c1.4,3.7,2,8.4,2,14c0,1.3,0,2.4,0,3.1c0,0.7-0.1,1.4-0.2,2H1396.4z"/>
		<path class="st0" d="M1459.7,142.8h-30.2l49.5-90.7h35.3l48.6,90.7h-30.4l-8.8-15.1h-55.3L1459.7,142.8z M1479.1,105.9h34.9
			l-17.6-32.1L1479.1,105.9z"/>
		<path class="st0" d="M1695.1,142.8h-40.6l-54.4-66v66h-27.7V52.1h41l54.1,66.5V52.1h27.6V142.8z"/>
		<path class="st0" d="M1734.3,142.8h-30.2l49.5-90.7h35.3l48.6,90.7h-30.4l-8.8-15.1h-55.3L1734.3,142.8z M1753.6,105.9h34.9
			l-17.6-32.1L1753.6,105.9z"/>
	</g>
	<polygon class="st0" points="50.9,307.5 209.9,307.5 209.9,283.2 83.4,283.2 	"/>
	<polygon class="st0" points="751.6,307.5 592.6,307.5 592.6,283.2 719.1,283.2 	"/>
	<g>
		<path class="st0" d="M248.3,239.6v65.9H404V148.7L248.3,239.6z M275.3,296.4l-7.5-5.4l-7.5,5.4l2.9-8.8l-7.5-5.4h9.3l2.9-8.8
			l2.9,8.8h9.3l-7.5,5.4L275.3,296.4z M272.4,248.7l2.9,8.8l-7.5-5.4l-7.5,5.4l2.9-8.8l-7.5-5.4h9.3l2.9-8.8l2.9,8.8h9.3
			L272.4,248.7z M305.1,279.8l-7.5-5.4l-7.5,5.4l2.9-8.8l-7.5-5.4h9.3l2.9-8.8l2.9,8.8h9.3l-7.5,5.4L305.1,279.8z M302.2,232.1
			l2.9,8.8l-7.5-5.4l-7.5,5.4l2.9-8.8l-7.5-5.4h9.3l2.9-8.8l2.9,8.8h9.3L302.2,232.1z M335,299.1l-7.5-5.4l-7.5,5.4l2.9-8.8
			l-7.5-5.4h9.3l2.9-8.8l2.9,8.8h9.3l-7.5,5.4L335,299.1z M332.1,254.4l2.9,8.8l-7.5-5.4l-7.5,5.4l2.9-8.8l-7.5-5.4h9.3l2.9-8.8
			l2.9,8.8h9.3L332.1,254.4z M332.1,215.5l2.9,8.8l-7.5-5.4l-7.5,5.4l2.9-8.8l-7.5-5.4h9.3l2.9-8.8l2.9,8.8h9.3L332.1,215.5z
			 M364.8,282.5l-7.5-5.4l-7.5,5.4l2.9-8.8l-7.5-5.4h9.3l2.9-8.8l2.9,8.8h9.3l-7.5,5.4L364.8,282.5z M361.9,237.8l2.9,8.8l-7.5-5.4
			l-7.5,5.4l2.9-8.8l-7.5-5.4h9.3l2.9-8.8l2.9,8.8h9.3L361.9,237.8z M361.9,198.9l2.9,8.8l-7.5-5.4l-7.5,5.4l2.9-8.8l-7.5-5.4h9.3
			l2.9-8.8l2.9,8.8h9.3L361.9,198.9z M394.7,301.8l-7.5-5.4l-7.5,5.4l2.9-8.8l-7.5-5.4h9.3l2.9-8.8l2.9,8.8h9.3l-7.5,5.4
			L394.7,301.8z M391.8,257.1l2.9,8.8l-7.5-5.4l-7.5,5.4l2.9-8.8l-7.5-5.4h9.3l2.9-8.8l2.9,8.8h9.3L391.8,257.1z M391.8,221.1
			l2.9,8.8l-7.5-5.4l-7.5,5.4l2.9-8.8l-7.5-5.4h9.3l2.9-8.8l2.9,8.8h9.3L391.8,221.1z M391.8,182.3l2.9,8.8l-7.5-5.4l-7.5,5.4
			l2.9-8.8l-7.5-5.4h9.3l2.9-8.8l2.9,8.8h9.3L391.8,182.3z"/>
	</g>
	<rect x="448.5" y="285.7" class="st0" width="105" height="19.9"/>
	<rect x="226.5" y="60.9" class="st0" width="88.5" height="22.5"/>
	<polygon class="st0" points="294.1,116 247.4,145.1 247.4,77 294.1,77 	"/>
	<polygon class="st0" points="205.9,268.1 156,220.5 427.5,51 653.1,222.8 596.3,267.3 596.3,229 426.8,103.1 205.8,236.6 	"/>
	<polygon class="st0" points="448.5,243.6 553.5,243.6 553.5,233.8 544.2,226.3 448.5,226.3 	"/>
	<polygon class="st0" points="492.3,184.2 448.5,148.7 448.5,184.2 	"/>
	<rect x="448.5" y="256" class="st0" width="105" height="17.3"/>
	<polygon class="st0" points="448.5,196.6 448.5,213.9 528.9,213.9 507.6,196.6 	"/>
	<path class="st0" d="M747.9,190.3c2.8,0,5,0.1,6.6,0.4c1.6,0.3,3,0.7,4.2,1.3c2.1,1.1,3.5,2.7,4.5,4.8c0.9,2.1,1.4,5,1.4,8.8
		c0,5.6-0.9,9.5-2.8,11.8c-1.9,2.3-5,3.5-9.4,3.5h-23.2v10.1h-12.4v-40.7H747.9z M747.4,200.4h-18.3v10.3h18.3
		c1.7,0,2.8-0.4,3.5-1.2c0.7-0.8,1-2.3,1-4.3c0-1.7-0.4-2.9-1.1-3.6C750.1,200.8,749,200.4,747.4,200.4z"/>
	<path class="st0" d="M806.8,190.3c6.4,0,10.8,1,13.2,2.9c2.3,1.9,3.5,5.4,3.5,10.5c0,3.5-0.5,6.1-1.6,7.8c-1,1.7-2.8,2.9-5.2,3.4
		c2.1,0.5,3.8,1.4,4.8,2.7c1.1,1.3,1.6,3,1.6,5v8.3h-12.4v-6.2c0-1.6-0.4-2.7-1.1-3.3c-0.8-0.6-2.2-0.9-4.5-0.9h-18.5v10.4h-12.4
		v-40.7H806.8z M806.3,200.4h-19.7v9.9h19.7c1.7,0,2.8-0.4,3.5-1.2c0.7-0.8,1-2.2,1-4.2c0-1.6-0.4-2.8-1.1-3.5
		C809,200.7,807.9,200.4,806.3,200.4z"/>
	<path class="st0" d="M853.4,231.4c-4.8,0-8.2-0.2-10.4-0.6c-2.2-0.4-4-1.2-5.4-2.2c-1.6-1.2-2.7-2.7-3.4-4.6c-0.7-1.9-1-4.4-1-7.5
		v-11.1c0-3.4,0.3-6.1,1-8.1c0.7-2,1.8-3.6,3.4-4.7c1.4-1,3.2-1.7,5.4-2.2c2.3-0.4,5.7-0.7,10.3-0.7H868c4.6,0,8.1,0.2,10.4,0.7
		c2.3,0.4,4.1,1.2,5.4,2.2c1.5,1.1,2.6,2.7,3.3,4.7c0.7,2,1.1,4.5,1.1,7.6v11.3c0,3.1-0.3,5.7-1.1,7.6c-0.7,2-1.8,3.5-3.3,4.7
		c-1.4,1-3.2,1.8-5.4,2.2c-2.2,0.4-5.7,0.6-10.4,0.6H853.4z M856.8,221.2h7.9c4.4,0,7.3-0.5,8.7-1.6c1.4-1.1,2.2-3.1,2.2-6.1v-5.8
		c0-3-0.7-5-2.2-6.1c-1.4-1.1-4.3-1.7-8.7-1.7h-7.9c-4.5,0-7.4,0.6-8.8,1.7c-1.4,1.1-2.1,3.2-2.1,6.3v5.7c0,2.9,0.7,4.9,2.2,6
		C849.5,220.7,852.4,221.2,856.8,221.2z"/>
	<path class="st0" d="M929.7,190.3c2.8,0,5,0.1,6.6,0.4c1.6,0.3,3,0.7,4.2,1.3c2.1,1.1,3.5,2.7,4.5,4.8c0.9,2.1,1.4,5,1.4,8.8
		c0,5.6-0.9,9.5-2.8,11.8c-1.9,2.3-5,3.5-9.4,3.5H911v10.1h-12.4v-40.7H929.7z M929.3,200.4H911v10.3h18.3c1.7,0,2.8-0.4,3.5-1.2
		c0.7-0.8,1-2.3,1-4.3c0-1.7-0.4-2.9-1.1-3.6C932,200.8,930.8,200.4,929.3,200.4z"/>
	<path class="st0" d="M1000.1,200.2h-32v6.1h30.2v8.5h-30.2v6.2h32.5v9.8h-44.9v-40.7h44.4V200.2z"/>
	<path class="st0" d="M1043.4,190.3c6.4,0,10.8,1,13.2,2.9c2.3,1.9,3.5,5.4,3.5,10.5c0,3.5-0.5,6.1-1.6,7.8c-1,1.7-2.8,2.9-5.2,3.4
		c2.1,0.5,3.8,1.4,4.8,2.7c1.1,1.3,1.6,3,1.6,5v8.3h-12.4v-6.2c0-1.6-0.4-2.7-1.1-3.3c-0.8-0.6-2.2-0.9-4.5-0.9h-18.5v10.4h-12.4
		v-40.7H1043.4z M1042.9,200.4h-19.7v9.9h19.7c1.7,0,2.8-0.4,3.5-1.2c0.7-0.8,1-2.2,1-4.2c0-1.6-0.4-2.8-1.1-3.5
		C1045.7,200.7,1044.5,200.4,1042.9,200.4z"/>
	<path class="st0" d="M1097.3,230.9h-12.4v-30.7h-17v-10h46.4v10h-17V230.9z"/>
	<path class="st0" d="M1153.2,230.9h-12.4v-14.6l-22.4-26h15.3l13.4,16.2l14-16.2h14.7l-22.5,26V230.9z"/>
	<path class="st0" d="M1225,230.9H1213v-40.7h18.3l14.5,25.4l14.7-25.4h18.1v40.7h-12v-29l-16.8,29h-8.1l-16.7-29V230.9z"/>
	<path class="st0" d="M1299.3,230.9h-13.5l22.2-40.7h15.8l21.8,40.7h-13.6l-3.9-6.8h-24.8L1299.3,230.9z M1307.9,214.4h15.6
		l-7.9-14.4L1307.9,214.4z"/>
	<path class="st0" d="M1407.5,230.9h-18.2l-24.4-29.6v29.6h-12.4v-40.7h18.4l24.2,29.8v-29.8h12.4V230.9z"/>
	<path class="st0" d="M1427.8,230.9h-13.5l22.2-40.7h15.8l21.8,40.7h-13.6l-3.9-6.8h-24.8L1427.8,230.9z M1436.5,214.4h15.6
		l-7.9-14.4L1436.5,214.4z"/>
	<path class="st0" d="M1518.5,204.9v-0.1c0-1.9-0.6-3.2-1.7-3.8c-1.1-0.7-3.7-1-7.6-1h-7.2c-4.2,0-7,0.5-8.2,1.5
		c-1.2,1-1.8,3.2-1.8,6.5v5.7c0,2.9,0.7,4.9,2,6c1.3,1.1,4,1.6,8,1.6h7.2c3.6,0,6-0.3,7.4-1c1.3-0.6,2-1.8,2-3.3
		c0-0.2,0-0.6-0.1-1.1c0-0.1,0-0.1,0-0.1h-14.6v-8.2h27.5v13.4c0,3.8-1.4,6.5-4.2,8.2c-2.8,1.6-7.8,2.4-14.8,2.4h-13.8
		c-4.2,0-7.4-0.2-9.4-0.7c-2-0.5-3.7-1.2-5.1-2.3c-1.6-1.3-2.8-2.9-3.6-4.8c-0.7-1.9-1.1-4.3-1.1-7.1v-11.1c0-5.8,1.4-9.9,4.1-12.2
		c2.8-2.3,7.8-3.5,15-3.5h13.9c4.5,0,7.8,0.2,9.9,0.6c2.1,0.4,3.8,1.1,5,2c1.3,1,2.2,2.3,2.8,4c0.6,1.7,0.9,3.8,0.9,6.3
		c0,0.6,0,1.1,0,1.4c0,0.3,0,0.6,0,0.9H1518.5z"/>
	<path class="st0" d="M1586,200.2h-32v6.1h30.2v8.5H1554v6.2h32.5v9.8h-44.9v-40.7h44.4V200.2z"/>
	<path class="st0" d="M1608.6,230.9h-12.1v-40.7h18.3l14.5,25.4l14.7-25.4h18.1v40.7h-12v-29l-16.8,29h-8.1l-16.7-29V230.9z"/>
	<path class="st0" d="M1717.7,200.2h-32v6.1h30.2v8.5h-30.2v6.2h32.5v9.8h-44.9v-40.7h44.4V200.2z"/>
	<path class="st0" d="M1783.1,230.9h-18.2l-24.4-29.6v29.6h-12.4v-40.7h18.4l24.2,29.8v-29.8h12.4V230.9z"/>
	<path class="st0" d="M1820.6,230.9h-12.4v-30.7h-17v-10h46.4v10h-17V230.9z"/>
	<path class="st0" d="M896.8,303.3c-1.2,1.5-2.7,2.5-4.5,3.1c-1.8,0.6-4.8,0.9-8.9,0.9h-14.1c-6.4,0-10.9-0.8-13.5-2.4
		c-2.6-1.6-3.9-4.3-3.9-8.2v-5.2c0-2.5,0.7-4.5,2.1-5.8c1.4-1.3,3.5-2,6.3-2.2c-1.4-0.8-2.3-1.7-2.9-2.5c-0.5-0.9-0.8-2-0.8-3.3
		v-4.5c0-2.9,0.8-4.8,2.3-5.9c1.5-1.1,5.2-1.6,10.9-1.6h11.7c6.2,0,10.4,0.6,12.4,1.9c2,1.2,3,3.5,3,6.8v5h-10.4c0-0.1,0-0.3,0-0.5
		c0-0.2,0-0.4,0-0.5c0-1.5-0.4-2.6-1.1-3.2c-0.7-0.6-2.1-0.9-4-0.9H871c-1,0-1.8,0.2-2.4,0.6c-0.6,0.4-0.8,1-0.8,1.8
		c0,0.5,0.1,1,0.4,1.4c0.3,0.4,0.6,0.8,1.2,1l20.7,10.8c0.1-0.3,0.2-0.7,0.2-1.2c0-0.4,0.1-1.1,0.1-1.9c0-0.1,0-0.3,0-0.6
		c0-0.3,0-0.5,0-0.6c0-0.2,0-0.4,0-0.5c0-0.1,0-0.2,0-0.3h10.2v6.7c0,0.4-0.1,0.9-0.2,1.6c-0.1,0.6-0.3,1.3-0.5,2.1l7.4,4.1
		l-3.5,7.8L896.8,303.3z M887,298.6l-18.8-10c-0.3-0.1-0.6-0.3-0.9-0.4c-0.3-0.1-0.6-0.1-0.9-0.1c-1.1,0-1.9,0.3-2.5,1
		c-0.6,0.7-0.9,1.6-0.9,2.7v2.7c0,1.6,0.4,2.6,1.3,3.2c0.9,0.6,2.5,0.9,5,0.9H887z"/>
	<path class="st0" d="M976.1,266.2c6.4,0,10.8,1,13.2,2.9c2.3,1.9,3.5,5.4,3.5,10.5c0,3.5-0.5,6.1-1.6,7.8c-1,1.7-2.8,2.9-5.2,3.4
		c2.1,0.5,3.8,1.4,4.8,2.7c1.1,1.3,1.6,3,1.6,5v8.3H980v-6.2c0-1.6-0.4-2.7-1.1-3.3c-0.8-0.6-2.2-0.9-4.5-0.9h-18.5v10.4h-12.4
		v-40.7H976.1z M975.6,276.4h-19.7v9.9h19.7c1.7,0,2.8-0.4,3.5-1.2c0.7-0.8,1-2.2,1-4.2c0-1.6-0.4-2.8-1.1-3.5
		C978.3,276.7,977.2,276.4,975.6,276.4z"/>
	<path class="st0" d="M1047.8,276.1h-32v6.1h30.2v8.5h-30.2v6.2h32.5v9.8h-44.9v-40.7h44.4V276.1z"/>
	<path class="st0" d="M1067.7,306.9h-13.5l22.2-40.7h15.8l21.8,40.7h-13.6l-3.9-6.8h-24.8L1067.7,306.9z M1076.4,290.3h15.6
		l-7.9-14.4L1076.4,290.3z"/>
	<path class="st0" d="M1134.2,297h27.1v9.8h-39.5v-40.7h12.4V297z"/>
	<path class="st0" d="M1243.4,276.1h-32v6.1h30.2v8.5h-30.2v6.2h32.5v9.8h-44.9v-40.7h44.4V276.1z"/>
	<path class="st0" d="M1253.3,293.4l12.3,0v0.7c0,1.5,0.4,2.6,1.1,3.1c0.7,0.5,2.3,0.8,4.7,0.8h15.6c1.5,0,2.6-0.3,3.3-0.8
		c0.7-0.5,1-1.4,1-2.6c0-1.2-0.4-2.1-1.1-2.6c-0.8-0.5-2.4-0.9-4.9-1.1l-19.5-0.4c-4.9-0.1-8.2-1.1-9.9-2.8
		c-1.7-1.7-2.6-4.8-2.6-9.3c0-2.3,0.2-4.2,0.7-5.8c0.5-1.5,1.2-2.8,2.2-3.8c1.2-1.1,2.7-1.9,4.6-2.4c1.9-0.5,5-0.7,9.3-0.7h18.9
		c4.7,0,8.1,0.9,10.1,2.6c2.1,1.7,3.1,4.5,3.1,8.3c0,0.3,0,0.5,0,0.8c0,0.3,0,0.8-0.1,1.4h-12v-0.2c0-1.3-0.3-2.4-1-3
		c-0.7-0.7-1.7-1-3.1-1h-14.3c-2.4,0-4,0.2-4.7,0.7c-0.8,0.5-1.1,1.3-1.1,2.5c0,1.2,0.3,2,1,2.5c0.7,0.5,2,0.9,3.8,1l20.4,0.3
		c4.7,0.1,7.9,1.2,9.8,3.1c1.9,2,2.8,5.3,2.8,10.1c0,2.8-0.3,5-1,6.6c-0.7,1.6-1.9,2.9-3.5,4c-1.1,0.7-2.6,1.2-4.5,1.5
		c-1.9,0.3-4.6,0.4-8.1,0.4h-16.5c-6.8,0-11.3-0.8-13.6-2.3c-2.3-1.5-3.4-4.4-3.4-8.5c0-0.2,0-0.6,0-1.2
		C1253.2,294.8,1253.2,294.2,1253.3,293.4z"/>
	<path class="st0" d="M1340.4,306.9H1328v-30.7h-17v-10h46.4v10h-17V306.9z"/>
	<path class="st0" d="M1369.1,306.9h-13.5l22.2-40.7h15.8l21.8,40.7h-13.6l-3.9-6.8H1373L1369.1,306.9z M1377.7,290.3h15.6
		l-7.9-14.4L1377.7,290.3z"/>
	<path class="st0" d="M1442.8,306.9h-12.4v-30.7h-17v-10h46.4v10h-17V306.9z"/>
	<path class="st0" d="M1512.4,276.1h-32v6.1h30.2v8.5h-30.2v6.2h32.5v9.8H1468v-40.7h44.4V276.1z"/>
	<path class="st0" d="M1566.2,297h27.1v9.8h-39.5v-40.7h12.4V297z"/>
	<path class="st0" d="M1614.1,297h27.1v9.8h-39.5v-40.7h12.4V297z"/>
	<path class="st0" d="M1687.7,280.9v-0.4c0-1.6-0.5-2.7-1.6-3.5c-1-0.7-2.7-1.1-5-1.1h-9.9c-4.3,0-7,0.5-8.2,1.5
		c-1.2,1-1.8,3.2-1.8,6.5v5.7c0,2.9,0.7,4.9,2,6c1.3,1.1,4,1.6,8,1.6h7.2c4,0,6.5-0.4,7.8-1.2c1.2-0.8,1.8-2.3,1.8-4.4v-0.4h12.6
		c0,0.1,0,0.2,0,0.3c0.1,1.2,0.1,2.1,0.1,2.6c0,2.6-0.3,4.8-1,6.4c-0.7,1.7-1.7,3.1-3.1,4.1c-1.3,1-3.1,1.7-5.3,2.1
		c-2.2,0.4-5.5,0.6-9.7,0.6h-13.9c-4.2,0-7.4-0.2-9.4-0.7c-2-0.5-3.7-1.2-5.1-2.3c-1.6-1.3-2.8-2.9-3.6-4.8
		c-0.7-1.9-1.1-4.3-1.1-7.1v-11.1c0-5.8,1.4-9.9,4.1-12.2c2.8-2.3,7.8-3.5,15-3.5h13.9c4.5,0,7.7,0.2,9.9,0.6c2.1,0.4,3.8,1.1,5,2
		c1.3,1,2.2,2.3,2.9,4c0.6,1.7,0.9,3.8,0.9,6.3c0,0.6,0,1.1,0,1.4c0,0.3,0,0.6-0.1,0.9H1687.7z"/>
	<path class="st0" d="M739.2,142.8h-30.2l49.5-90.7h35.3l48.6,90.7h-30.4l-8.8-15.1H748L739.2,142.8z M758.5,105.9h34.9l-17.6-32.1
		L758.5,105.9z"/>
	<path class="st0" d="M878.8,142.8h-26.9V52.1h40.9l32.4,56.7L958,52.1h40.3v90.7h-26.8V78.2l-37.5,64.7H916l-37.2-64.7V142.8z"/>
	<path class="st0" d="M1116,74.2h-71.5v13.7h67.3V107h-67.3v13.9h72.6v21.9h-100.2V52.1h99.2V74.2z"/>
	<path class="st0" d="M1206.5,52.1c14.4,0,24.2,2.1,29.4,6.4c5.2,4.3,7.8,12,7.8,23.3c0,7.8-1.2,13.7-3.5,17.5
		c-2.3,3.8-6.2,6.4-11.6,7.7c4.8,1.1,8.4,3.1,10.8,6c2.4,2.9,3.6,6.6,3.6,11.2v18.6h-27.7V129c0-3.6-0.8-6-2.5-7.4
		c-1.7-1.3-5-2-10-2h-41.3v23.2h-27.8V52.1H1206.5z M1205.4,74.7h-44.1v22.2h44.1c3.7,0,6.3-0.9,7.8-2.6c1.5-1.7,2.2-4.8,2.2-9.4
		c0-3.6-0.8-6.2-2.4-7.8C1211.5,75.5,1208.9,74.7,1205.4,74.7z"/>
	<path class="st0" d="M1290.1,142.8h-27.7V52.1h27.7V142.8z"/>
	<path class="st0" d="M1396.4,84.8v-0.9c0-3.5-1.2-6.1-3.5-7.8c-2.3-1.6-6-2.5-11.1-2.5h-22.2c-9.5,0-15.6,1.1-18.3,3.4
		c-2.7,2.3-4.1,7.1-4.1,14.4v12.6c0,6.5,1.5,11,4.5,13.5c3,2.4,9,3.7,17.9,3.7h16.1c8.8,0,14.6-0.9,17.3-2.7c2.7-1.8,4.1-5,4.1-9.8
		v-1h28.1c0,0.1,0,0.3,0.1,0.7c0.1,2.6,0.2,4.6,0.2,5.9c0,5.8-0.7,10.6-2.2,14.4c-1.5,3.8-3.8,6.8-6.9,9.1c-3,2.2-6.9,3.8-11.9,4.7
		c-4.9,0.9-12.2,1.4-21.7,1.4h-31c-9.5,0-16.4-0.5-20.9-1.5c-4.5-1-8.3-2.7-11.5-5.2c-3.7-2.9-6.3-6.4-8-10.6
		c-1.7-4.2-2.5-9.5-2.5-15.9V85.9c0-13,3.1-22.1,9.3-27.2c6.2-5.1,17.4-7.7,33.6-7.7h31c10,0,17.3,0.4,22,1.3
		c4.7,0.9,8.4,2.4,11.2,4.5c2.9,2.2,5,5.2,6.4,8.9c1.4,3.7,2,8.4,2,14c0,1.3,0,2.4,0,3.1c0,0.7-0.1,1.4-0.2,2H1396.4z"/>
	<path class="st0" d="M1459.7,142.8h-30.2l49.5-90.7h35.3l48.6,90.7h-30.4l-8.8-15.1h-55.3L1459.7,142.8z M1479.1,105.9h34.9
		l-17.6-32.1L1479.1,105.9z"/>
	<path class="st0" d="M1695.1,142.8h-40.6l-54.4-66v66h-27.7V52.1h41l54.1,66.5V52.1h27.6V142.8z"/>
	<path class="st0" d="M1734.3,142.8h-30.2l49.5-90.7h35.3l48.6,90.7h-30.4l-8.8-15.1h-55.3L1734.3,142.8z M1753.6,105.9h34.9
		l-17.6-32.1L1753.6,105.9z"/>
</g>
</svg>
